<?xml version="1.0" standalone="no"?>
<!DOCTYPE svg PUBLIC "-//W3C//DTD SVG 1.1//EN" "http://www.w3.org/Graphics/SVG/1.1/DTD/svg11.dtd" >
<svg xmlns="http://www.w3.org/2000/svg">
<metadata>
This is a custom SVG webfont generated by Font Squirrel.
Copyright   :  1992 1994 1997 2000 2004 Adobe Systems Incorporated All rights reserved Protected by US Patents D454582
Designer    : Robert Slimbach and Carol Twombly
Foundry URL : httpwwwadobecomtype
</metadata>
<defs>
<font id="MyriadProRegular" horiz-adv-x="614" >
<font-face units-per-em="2048" ascent="1536" descent="-512" />
<missing-glyph horiz-adv-x="434" />
<glyph unicode="ffj" horiz-adv-x="1656" d="M31 854v137h137v35q0 211 119 328q92 96 254 96q88 0 174 -43l-51 -133q-57 35 -123 35q-78 0 -129 -52q-66 -72 -66 -229v-37h418v56q0 199 113.5 314.5t318.5 115.5q152 0 248 -64l-53 -135q-84 53 -203 53q-246 0 -246 -291v-49h578v-903q0 -287 -119 -407 q-55 -55 -141 -84t-166 -29l-21 141q137 10 197 76q39 45 54 123t15 250v696h-397v-854h-178v854h-418v-854h-178v854h-137z" />
<glyph unicode="fj" horiz-adv-x="1069" d="M31 854v137h137v56q0 199 113.5 314.5t318.5 115.5q70 0 141.5 -18.5t110.5 -47.5l-51 -137q-84 57 -209 57q-246 0 -246 -291v-49h576v-903q0 -287 -119 -407q-55 -55 -141.5 -84t-165.5 -29l-19 141q137 10 195 76q39 45 54 123t15 250v696h-395v-854h-178v854h-137z " />
<glyph unicode="&#xfb00;" horiz-adv-x="1193" d="M31 854v137h137v31q0 225 111 338q92 92 249 92q76 0 142 -35l-37 -135q-49 27 -107 27q-180 0 -180 -277v-41h418v47q0 238 115 346q94 92 239 93q88 0 154 -29l-23 -139q-53 23 -116 22q-190 0 -191 -287v-53h238v-137h-238v-854h-178v854h-418v-854h-178v854h-137z " />
<glyph unicode="&#xfb03;" horiz-adv-x="1669" d="M31 854v137h137v35q0 211 119 328q92 96 254 96q88 0 174 -43l-51 -133q-57 35 -123 35q-78 0 -129 -52q-66 -72 -66 -229v-37h418v56q0 199 113.5 314.5t318.5 115.5q152 0 248 -64l-53 -135q-84 53 -203 53q-246 0 -246 -291v-49h578v-991h-181v854h-397v-854h-178v854 h-418v-854h-178v854h-137z" />
<glyph unicode="&#xfb04;" horiz-adv-x="1669" d="M31 854v137h137v23q0 223 115 338q102 98 266 98q86 0 166 -37l-47 -135q-55 31 -123 31q-84 0 -131 -52q-68 -70 -68 -227v-39h418v43q0 223 141 342q117 100 318 101q176 0 297 -66v-1411h-181v1311q-49 27 -147 26q-131 0 -190.5 -81.5t-59.5 -213.5v-51h234v-137 h-232v-854h-180v854h-418v-854h-178v854h-137z" />
<glyph unicode="fi" horiz-adv-x="1071" d="M31 854v137h137v56q0 199 113.5 314.5t318.5 115.5q70 0 141.5 -18.5t110.5 -47.5l-51 -137q-84 57 -209 57q-246 0 -246 -291v-49h576v-991h-181v854h-395v-854h-178v854h-137z" />
<glyph unicode="fl" horiz-adv-x="1071" d="M31 854v137h137v43q0 221 139 342q119 100 320 101q176 0 297 -66v-1411h-181v1311q-49 27 -147 26q-131 0 -190.5 -81.5t-59.5 -213.5v-51h232v-137h-232v-854h-178v854h-137z" />
<glyph unicode=" "  horiz-adv-x="434" />
<glyph unicode="&#x09;" horiz-adv-x="434" />
<glyph unicode="&#xa0;" horiz-adv-x="434" />
<glyph unicode="!" horiz-adv-x="471" d="M115 104q0 55 34.5 91t88 36t86 -35.5t32.5 -91t-33.5 -91.5t-89.5 -36q-51 0 -84.5 37t-33.5 90zM137 1380h197l-29 -985h-139z" />
<glyph unicode="&#x22;" horiz-adv-x="690" d="M104 1417h179l-35 -491h-111zM410 1417h178l-35 -491h-109z" />
<glyph unicode="#" horiz-adv-x="1017" d="M76 401v121h188l39 297h-178v121h194l54 391h121l-54 -391h215l52 391h120l-51 -391h168v-121h-186l-37 -297h176v-121h-195l-53 -401h-123l54 401h-213l-52 -401h-122l53 401h-170zM385 522h213l39 297h-213z" />
<glyph unicode="$" horiz-adv-x="1050" d="M135 121l49 137q133 -88 293 -88q109 0 176.5 56.5t67.5 144.5q0 82 -56.5 139t-175.5 104q-170 66 -253.5 148t-83.5 209t83.5 217t223.5 112v205h129v-198q150 -4 266 -72l-51 -135q-125 72 -258 71q-109 0 -163 -53t-54 -125q0 -76 56 -125t198 -108 q164 -68 240.5 -154t76.5 -219q0 -129 -86 -226.5t-238 -121.5v-213h-129v205q-190 4 -311 90z" />
<glyph unicode="%" horiz-adv-x="1622" d="M61 938q0 195 92.5 305.5t231.5 110.5t222 -104.5t83 -291.5q0 -201 -90 -310t-227 -109q-133 0 -221.5 104.5t-90.5 294.5zM203 946q-4 -131 44 -215t130 -84q86 0 129 82t43 219q0 133 -42 215t-132 82q-80 0 -126 -85t-46 -214zM358 -25l785 1381h114l-784 -1381h-115 zM930 387q0 195 92 305.5t231.5 110.5t222.5 -104.5t83 -292.5q0 -201 -90.5 -310.5t-227.5 -109.5q-133 0 -221 104t-90 297zM1071 393q-4 -131 44 -215t130 -84q86 0 129 82t43 221q0 133 -42 215t-132 82q-80 0 -126 -85t-46 -216z" />
<glyph unicode="&#x26;" horiz-adv-x="1239" d="M63 365q0 256 271 403v6q-115 143 -115 289q0 137 93.5 239.5t256.5 102.5q131 0 218 -80t87 -213q0 -111 -70.5 -200t-232.5 -169v-8q193 -223 336 -383q92 141 133 404h164q-59 -344 -198 -510q166 -180 227 -246h-213q-18 18 -59 61t-70 72q-170 -156 -404 -156 q-195 0 -309.5 113t-114.5 275zM236 391q0 -119 79.5 -198.5t204.5 -79.5q168 0 283 125q-252 279 -389 436q-178 -115 -178 -283zM383 1081q0 -115 104 -250q117 68 173.5 128.5t56.5 144.5q0 72 -41 125t-121 53t-126 -58.5t-46 -142.5z" />
<glyph unicode="'" horiz-adv-x="385" d="M104 1417h179l-35 -491h-111z" />
<glyph unicode="(" horiz-adv-x="581" d="M131 584q2 483 268 837h140q-256 -348 -256 -839q0 -463 256 -830h-140q-268 355 -268 832z" />
<glyph unicode=")" horiz-adv-x="581" d="M41 -248q256 362 256 835.5t-256 833.5h139q268 -350 269 -833q-2 -481 -269 -836h-139z" />
<glyph unicode="*" horiz-adv-x="849" d="M61 975v139l301 -39v4l-192 252l125 72l127 -287h4l125 289l123 -72l-195 -256v-4l309 41v-139l-309 39v-6l197 -246l-129 -74l-125 287h-4l-131 -289l-117 74l195 250v6z" />
<glyph unicode="+" horiz-adv-x="1220" d="M82 485v123h463v482h131v-482h463v-123h-463v-485h-131v485h-463z" />
<glyph unicode="," horiz-adv-x="423" d="M33 -254q82 225 123 492l200 20q-37 -131 -95 -278.5t-101 -219.5z" />
<glyph unicode="-" horiz-adv-x="628" d="M61 487v131h506v-131h-506z" />
<glyph unicode="." horiz-adv-x="423" d="M106 106.5q0 55.5 35 92.5t88.5 37t87 -36t33.5 -94q0 -55 -34.5 -92t-90.5 -37q-51 0 -85 37t-34 92.5z" />
<glyph unicode="/" horiz-adv-x="702" d="M-2 -80l569 1485h142l-574 -1485h-137z" />
<glyph unicode="0" horiz-adv-x="1050" d="M74 662q0 328 128 510t337 182t324.5 -178.5t115.5 -495.5q0 -338 -121 -520.5t-342 -182.5q-199 0 -319.5 180.5t-122.5 504.5zM256 659q0 -256 72.5 -399t197.5 -143q133 0 202 146.5t69 408.5q0 256 -66.5 399t-204.5 143q-121 0 -195.5 -145.5t-74.5 -409.5z" />
<glyph unicode="1" horiz-adv-x="1050" d="M213 1176l291 155h153v-1331h-174v1163h-4l-231 -125z" />
<glyph unicode="2" horiz-adv-x="1050" d="M92 0v111l141 137q279 264 387.5 409.5t108.5 286.5q0 115 -61.5 187.5t-200.5 72.5q-147 0 -283 -112l-57 127q160 135 375 135q201 0 304 -115t103 -272q0 -170 -108.5 -327t-349.5 -388l-105 -98v-4h596v-150h-850z" />
<glyph unicode="3" horiz-adv-x="1050" d="M86 68l49 137q137 -82 295 -82t230.5 79t70.5 179q-2 131 -101.5 198.5t-242.5 67.5h-100v135h100q113 0 205 58.5t92 167.5q0 86 -58.5 143t-174.5 57q-143 0 -267 -88l-49 131q143 102 350 103q184 0 282.5 -92.5t98.5 -225.5q0 -106 -63.5 -189t-181.5 -126v-4 q129 -25 211.5 -115t85.5 -225q0 -168 -129.5 -284t-356.5 -116q-209 1 -346 91z" />
<glyph unicode="4" horiz-adv-x="1050" d="M31 365v116l594 850h194v-827h187v-139h-187v-365h-170v365h-618zM213 504h436v444q0 104 6 209h-6q-53 -100 -110 -196l-326 -453v-4z" />
<glyph unicode="5" horiz-adv-x="1050" d="M86 59l45 138q125 -74 287 -74q131 0 223 80t90 209q0 135 -95 214t-286 79q-88 0 -186 -13l86 639h637v-151h-508l-51 -342q45 6 108 6q172 0 287 -72q84 -47 137 -134t53 -206q0 -197 -140 -326t-355 -129q-201 0 -332 82z" />
<glyph unicode="6" horiz-adv-x="1050" d="M70 545q0 379 225 600q168 166 426 196q66 10 131 11v-148q-53 2 -135 -10q-203 -33 -320.5 -163t-142.5 -308h4q115 156 324 156q178 0 289.5 -119t111.5 -311.5t-122 -332t-322 -139.5q-213 0 -341 155t-128 413zM248 500q2 -170 78.5 -276.5t216.5 -106.5 q115 0 186.5 88t71.5 231q0 141 -75 223t-200 82q-82 0 -152.5 -45t-107.5 -118q-18 -37 -18 -78z" />
<glyph unicode="7" horiz-adv-x="1050" d="M117 1182v149h839v-119l-579 -1212h-187l578 1178v4h-651z" />
<glyph unicode="8" horiz-adv-x="1050" d="M76 336q0 246 264 358l-2 6q-106 49 -159.5 129t-53.5 170q0 156 117.5 255.5t296.5 99.5q184 0 286.5 -96.5t102.5 -231.5q0 -209 -221 -311v-6q268 -106 268 -344q0 -172 -129 -280t-324 -108q-203 0 -324.5 103.5t-121.5 255.5zM260 360q-4 -104 69.5 -177.5 t196.5 -73.5q121 0 194 66.5t73 170.5q0 115 -75 182.5t-218 108.5q-115 -33 -177.5 -107t-62.5 -170zM297 1012q-2 -94 64.5 -153.5t189.5 -92.5q92 31 147.5 93.5t55.5 148.5q0 90 -56.5 153.5t-169.5 63.5q-109 0 -170 -61.5t-61 -151.5z" />
<glyph unicode="9" horiz-adv-x="1050" d="M84 881q0 195 128 334t327 139q203 0 321.5 -152.5t118.5 -410.5q0 -401 -229 -623q-156 -152 -388 -178q-88 -14 -165 -10v147q41 -4 145 6q170 23 279 129q141 127 176 352h-6q-115 -141 -316 -141q-174 0 -282.5 117t-108.5 291zM262 891q0 -125 69.5 -204t186.5 -79 q88 0 156.5 38t105.5 102q16 29 17 67q0 180 -69 291t-206 111q-115 0 -187.5 -91.5t-72.5 -234.5z" />
<glyph unicode=":" horiz-adv-x="423" d="M109 104q0 57 33.5 93t86.5 36q55 0 88 -35.5t33 -93.5q0 -55 -33.5 -91t-89.5 -36q-51 0 -84.5 37t-33.5 90zM109 827q0 57 33.5 93t86.5 36q55 0 88 -35.5t33 -93.5q0 -55 -33.5 -91t-89.5 -36q-51 0 -84.5 37t-33.5 90z" />
<glyph unicode=";" horiz-adv-x="423" d="M35 -252q84 229 123 492l198 20q-37 -131 -95 -277.5t-101 -220.5zM123 827q0 57 33.5 93t87.5 36q55 0 88 -35.5t33 -93.5q0 -55 -34 -91t-89 -36q-51 0 -85 37t-34 90z" />
<glyph unicode="&#x3c;" horiz-adv-x="1220" d="M135 489v111l950 490v-142l-800 -401v-4l800 -402v-141z" />
<glyph unicode="=" horiz-adv-x="1220" d="M82 289v123h1057v-123h-1057zM82 690v123h1057v-123h-1057z" />
<glyph unicode="&#x3e;" horiz-adv-x="1220" d="M135 0v141l807 402v4l-807 401v142l950 -486v-117z" />
<glyph unicode="?" horiz-adv-x="831" d="M104 1323q117 82 293 82q166 0 254 -87t88 -214q0 -94 -43 -172t-133 -184q-125 -150 -117 -304l5 -51h-162l-4 53q-20 178 127 355q143 168 143 280q0 80 -50 127t-145 49q-123 0 -206 -63zM246 104q0 57 33.5 93t87.5 36q55 0 87.5 -35.5t32.5 -93.5q0 -55 -33.5 -91 t-88.5 -36q-51 0 -85 37t-34 90z" />
<glyph unicode="@" horiz-adv-x="1509" d="M88 426q0 328 208 558t540 230q264 0 429 -166.5t165 -426.5q0 -221 -106.5 -354.5t-256.5 -133.5q-68 0 -112 45t-42 135h-6q-106 -180 -289 -180q-92 0 -156.5 70.5t-64.5 187.5q0 197 138.5 341.5t347.5 144.5q125 0 219 -43l-70 -371q-45 -225 62 -230 q84 -4 152.5 100.5t68.5 272.5q0 229 -131 371.5t-365 142.5q-258 0 -436 -189.5t-178 -492.5q0 -252 147.5 -403.5t378.5 -151.5q182 0 309 72l33 -88q-156 -82 -364 -82q-260 0 -440.5 176t-180.5 465zM532 399q0 -70 35 -112.5t101 -42.5q84 0 157.5 88t92.5 190l43 230 q-41 16 -103 16q-135 0 -230.5 -109.5t-95.5 -259.5z" />
<glyph unicode="A" horiz-adv-x="1253" d="M51 0l471 1380h213l471 -1380h-190l-148 434h-489l-143 -434h-185zM416 573h418l-138 398q-29 84 -71 252h-4q-47 -184 -70 -250z" />
<glyph unicode="B" horiz-adv-x="1110" d="M156 4v1356q129 31 325 31q256 0 377 -101q117 -86 117 -243q0 -100 -62.5 -182.5t-171.5 -121.5v-6q115 -27 200 -114.5t85 -229.5q0 -168 -119 -276q-137 -129 -475 -129q-157 0 -276 16zM334 135q49 -8 149 -8q154 0 254.5 64.5t100.5 203.5q0 133 -100.5 200 t-256.5 67h-147v-527zM334 795h162q137 0 217 65.5t80 167.5q0 225 -301 225q-100 0 -158 -12v-446z" />
<glyph unicode="C" horiz-adv-x="1187" d="M74 678q0 326 199.5 525.5t521.5 199.5q209 0 327 -62l-45 -145q-115 57 -276 57q-246 0 -392.5 -150.5t-146.5 -418.5q0 -256 140.5 -405.5t388.5 -149.5q174 0 292 57l35 -143q-127 -66 -364 -66q-301 0 -490.5 184.5t-189.5 516.5z" />
<glyph unicode="D" horiz-adv-x="1363" d="M156 4v1356q180 31 379 31q371 0 559 -172q197 -178 196 -496q0 -338 -198 -537q-203 -199 -613 -198q-180 0 -323 16zM334 139q59 -8 180 -8q285 0 436.5 152.5t151.5 433.5q2 250 -140.5 391t-418.5 141q-125 0 -209 -18v-1092z" />
<glyph unicode="E" horiz-adv-x="1007" d="M154 0v1380h747v-149h-567v-436h534v-148h-534v-497h598v-150h-778z" />
<glyph unicode="F" horiz-adv-x="997" d="M154 0v1380h743v-149h-563v-459h520v-147h-520v-625h-180z" />
<glyph unicode="G" horiz-adv-x="1323" d="M74 682q0 313 202.5 513t544.5 200q215 0 346 -64l-45 -145q-125 59 -305 59q-254 0 -404.5 -148.5t-150.5 -406.5q0 -260 144.5 -408.5t388.5 -148.5q164 0 237 37v412h-278v143h454v-664q-197 -76 -426 -75q-326 0 -516 182q-192 186 -192 514z" />
<glyph unicode="H" horiz-adv-x="1335" d="M154 0v1380h180v-577h667v577h181v-1380h-181v647h-667v-647h-180z" />
<glyph unicode="I" horiz-adv-x="489" d="M154 0v1380h180v-1380h-180z" />
<glyph unicode="J" horiz-adv-x="757" d="M8 10l25 146q68 -27 151 -27q127 0 189.5 75t62.5 267v909h180v-923q0 -479 -417 -480q-115 0 -191 33z" />
<glyph unicode="K" horiz-adv-x="1110" d="M156 0v1380h178v-665h6q47 68 109 147l421 518h222l-500 -585l538 -795h-210l-453 678l-133 -152v-526h-178z" />
<glyph unicode="L" horiz-adv-x="966" d="M154 0v1380h180v-1230h590v-150h-770z" />
<glyph unicode="M" horiz-adv-x="1646" d="M119 0l96 1380h227l236 -667q82 -246 139 -465h4q49 188 148 465l245 667h228l86 -1380h-176l-33 606q-23 424 -23 596h-4q-94 -303 -174 -524l-244 -670h-135l-225 658q-104 315 -158 536h-4q-6 -264 -26 -610l-37 -592h-170z" />
<glyph unicode="N" horiz-adv-x="1347" d="M156 0v1380h196l441 -698q160 -258 245 -449l6 3q-20 231 -20 567v577h168v-1380h-180l-439 700q-172 272 -256 461l-6 -2q12 -209 13 -569v-590h-168z" />
<glyph unicode="O" horiz-adv-x="1411" d="M74 680q0 326 179 525.5t460 199.5q283 0 452.5 -194.5t169.5 -505.5q0 -342 -182 -535t-459 -193q-274 0 -447 195t-173 508zM262 684q0 -233 120 -397t323 -164q205 0 323.5 164t118.5 409q0 227 -116 395.5t-324 168.5q-211 0 -328 -167t-117 -409z" />
<glyph unicode="P" horiz-adv-x="1089" d="M156 0v1364q160 27 342 27q260 0 387 -115q121 -106 121 -289q0 -184 -107 -295q-145 -152 -422 -151q-94 0 -143 12v-553h-178zM334 698q55 -14 147 -14q162 0 254 77t92 216q0 135 -87 203.5t-238 68.5q-115 0 -168 -14v-537z" />
<glyph unicode="Q" horiz-adv-x="1411" d="M74 678q0 328 179 527.5t462 199.5q281 0 450.5 -194.5t169.5 -503.5q0 -258 -106.5 -429.5t-286.5 -234.5v-8q221 -55 404 -88l-52 -150q-281 74 -528 160q-61 20 -84 20q-260 10 -434 194.5t-174 506.5zM262 682q0 -233 120 -396t323 -163q205 0 323.5 164t118.5 409 q0 227 -114.5 395.5t-321.5 168.5q-143 0 -248 -83t-153 -212t-48 -283z" />
<glyph unicode="R" horiz-adv-x="1101" d="M156 0v1362q158 29 342 29q274 0 399 -113q109 -98 109 -264q0 -129 -72 -220.5t-186 -129.5v-7q150 -53 200 -278q76 -319 107 -379h-185q-33 57 -90 330q-31 143 -94 203.5t-184 64.5h-168v-598h-178zM334 733h182q141 0 226 72t85 190q0 129 -85 192.5t-232 63.5 q-123 0 -176 -14v-504z" />
<glyph unicode="S" horiz-adv-x="1009" d="M86 68l47 149q141 -90 318 -90q135 0 211.5 64.5t76.5 170.5q0 94 -60.5 157t-199.5 116q-365 133 -364 393q0 164 123.5 269.5t322.5 105.5q188 0 303 -68l-49 -145q-106 66 -260 65q-129 0 -194.5 -62.5t-65.5 -143.5q0 -94 62.5 -151.5t211.5 -115.5 q180 -70 265.5 -164t85.5 -241q0 -170 -124 -285t-358 -115q-98 0 -196.5 26t-155.5 65z" />
<glyph unicode="T" horiz-adv-x="1017" d="M-2 1229v151h1022v-151h-422v-1229h-180v1229h-420z" />
<glyph unicode="U" horiz-adv-x="1325" d="M154 567v813h180v-819q0 -221 88 -329.5t233 -108.5q158 0 247 108.5t89 329.5v819h180v-807q0 -303 -142 -449.5t-380 -146.5q-227 0 -361 142.5t-134 447.5z" />
<glyph unicode="V" horiz-adv-x="1142" d="M6 1380h195l215 -680q106 -348 147 -516h4q53 215 158 514l233 682h191l-494 -1380h-196z" />
<glyph unicode="W" horiz-adv-x="1732" d="M31 1380h188l164 -698q63 -268 102 -477h4q23 139 113 479l184 696h187l168 -700q74 -307 96 -473h4q27 143 111 477l182 696h182l-391 -1380h-186l-174 719q-66 272 -91 450h-4q-31 -186 -106 -450l-197 -719h-186z" />
<glyph unicode="X" horiz-adv-x="1169" d="M51 0l422 698l-405 682h206l183 -323q86 -150 127 -234h6q49 102 125 234l186 323h207l-420 -671l430 -709h-207l-178 305q-90 145 -158 273h-4q-47 -96 -149 -275l-166 -303h-205z" />
<glyph unicode="Y" horiz-adv-x="1107" d="M25 1380h204l195 -381q113 -231 137 -284h4q25 57 140 284l198 381h201l-461 -792v-588h-180v586z" />
<glyph unicode="Z" horiz-adv-x="1132" d="M61 0v104l764 1121v6h-698v149h932v-108l-762 -1116v-6h772v-150h-1008z" />
<glyph unicode="[" horiz-adv-x="581" d="M166 -229v1634h375v-113h-234v-1409h234v-112h-375z" />
<glyph unicode="\" horiz-adv-x="698" d="M4 1405h139l557 -1485h-139z" />
<glyph unicode="]" horiz-adv-x="581" d="M41 -117h233v1409h-233v113h375v-1634h-375v112z" />
<glyph unicode="^" horiz-adv-x="1220" d="M125 387l422 944h129l422 -944h-144l-342 795h-4l-342 -795h-141z" />
<glyph unicode="_" horiz-adv-x="1024" d="M0 -154h1024v-102h-1024v102z" />
<glyph unicode="`" d="M45 1419h197l180 -293h-127z" />
<glyph unicode="a" horiz-adv-x="987" d="M72 262q0 180 154 276q151 93 430 93h12v20q0 37 -7.5 71t-29 73t-69.5 61.5t-120 22.5q-152 0 -260 -74l-41 121q137 86 328 86q207 0 292 -115t85 -289v-370q0 -143 14 -238h-162l-14 125h-6q-45 -63 -124 -105.5t-179 -42.5q-143 0 -223 84t-80 201zM252 283 q0 -84 48 -128t120 -44q92 0 155.5 48t88.5 117q8 27 8 58v172h-28q-392 1 -392 -223z" />
<glyph unicode="b" horiz-adv-x="1165" d="M141 0q8 135 9 256v1198h178v-623h4q104 180 338 181q186 0 303 -140.5t117 -363.5q0 -250 -133.5 -390.5t-313.5 -140.5q-225 0 -334 185h-4l-10 -162h-154zM328 397q0 -39 8 -65q25 -94 98.5 -152.5t171.5 -58.5q141 0 221 104.5t80 276.5q0 158 -78.5 263t-218.5 105 q-92 0 -168.5 -60t-103.5 -161q-10 -37 -10 -76v-176z" />
<glyph unicode="c" horiz-adv-x="917" d="M78 483q0 231 146.5 380t385.5 149q152 0 250 -54l-41 -137q-90 47 -209 47q-164 0 -257 -107.5t-93 -266.5q0 -170 97.5 -270.5t246.5 -100.5q115 0 221 47l31 -135q-121 -57 -285 -58q-223 0 -358 139.5t-135 366.5z" />
<glyph unicode="d" horiz-adv-x="1155" d="M78 489q0 234 128 377q130 145 316 146q109 0 185.5 -43t113.5 -107h4v592h179v-1198q0 -121 8 -256h-160l-8 172h-6q-41 -86 -129 -140.5t-205 -54.5q-182 0 -304 140.5t-122 371.5zM260 489q0 -158 77 -262t216 -104q92 0 166 58.5t98 156.5q8 33 8 78v172q0 45 -8 76 q-20 88 -91 147t-169 59q-137 0 -217 -107.5t-80 -273.5z" />
<glyph unicode="e" horiz-adv-x="1026" d="M78 479q0 229 127 381t338 152q115 0 199.5 -46t127.5 -120t62.5 -148.5t19.5 -150.5q0 -53 -6 -84h-696q2 -174 97 -259t243 -85q158 0 274 51l33 -129q-141 -63 -332 -64q-225 0 -356 137.5t-131 364.5zM252 592h526q2 109 -56 200t-194 91q-125 0 -194.5 -89 t-81.5 -202z" />
<glyph unicode="f" horiz-adv-x="598" d="M31 854v137h137v47q0 233 115 346q94 92 241 93q84 0 154 -29l-25 -139q-49 23 -114 22q-193 0 -193 -287v-53h240v-137h-240v-854h-178v854h-137z" />
<glyph unicode="g" horiz-adv-x="1144" d="M78 487q0 240 133 382.5t315 142.5q215 0 310 -170h4l6 149h160q-8 -92 -9 -270v-576q0 -322 -141 -454q-133 -119 -362 -119q-207 0 -330 82l45 139q121 -80 291 -80q147 0 233 84t86 264v109h-4q-43 -74 -124 -120t-191 -46q-182 0 -302 138t-120 345zM260 498 q0 -154 77 -255.5t216 -101.5q86 0 154.5 49.5t95.5 135.5q14 43 14 96v178q0 51 -10 80q-27 84 -91.5 138t-160.5 54q-131 0 -213 -102t-82 -272z" />
<glyph unicode="h" horiz-adv-x="1136" d="M150 0v1454h180v-620h4q47 84 129 129q86 49 184 49q43 0 87 -11.5t92 -40t84 -74.5t59.5 -122t23.5 -174v-590h-180v569q0 131 -55.5 212t-173.5 81q-84 0 -149.5 -51t-92.5 -127q-12 -33 -12 -86v-598h-180z" />
<glyph unicode="i" horiz-adv-x="479" d="M127 1270q0 47 31.5 79.5t81 32.5t80 -31.5t30.5 -80.5q0 -47 -30.5 -79t-83.5 -32q-49 0 -79 32t-30 79zM150 0v991h180v-991h-180z" />
<glyph unicode="j" horiz-adv-x="497" d="M-94 -291q137 10 196 78q39 43 54.5 121t15.5 250v833h180v-903q0 -287 -119 -407q-55 -55 -141 -84t-166 -29zM150 1270q0 47 31.5 79.5t80.5 32.5t80 -32.5t31 -79.5t-31 -79t-84 -32q-47 0 -77.5 33t-30.5 78z" />
<glyph unicode="k" horiz-adv-x="960" d="M150 0v1454h178v-917h4q41 57 86 112l293 342h215l-381 -407l436 -584h-221l-340 475l-92 -102v-373h-178z" />
<glyph unicode="l" horiz-adv-x="483" d="M150 0v1454h180v-1454h-180z" />
<glyph unicode="m" horiz-adv-x="1708" d="M141 991h158l8 -162h6q106 182 314 183q98 0 171.5 -54.5t106.5 -144.5h4q39 74 113 129q92 70 217 70q55 0 108.5 -19.5t104.5 -64.5t83 -134t32 -212v-582h-176v559q0 145 -54.5 225t-160.5 80q-74 0 -131.5 -46t-83.5 -116q-14 -47 -15 -90v-612h-176v594 q0 123 -53 196.5t-154 73.5q-78 0 -139.5 -53t-83.5 -127q-14 -35 -14 -88v-596h-176v723q-1 104 -9 268z" />
<glyph unicode="n" horiz-adv-x="1136" d="M141 991h160l10 -164h4q41 78 127 131.5t201 53.5q57 0 113.5 -19.5t112 -63.5t90 -131t34.5 -208v-590h-180v571q0 131 -55.5 212t-173.5 81q-84 0 -149.5 -53t-92.5 -131q-12 -33 -12 -84v-596h-180v723q-1 159 -9 268z" />
<glyph unicode="o" horiz-adv-x="1124" d="M78 487q0 240 140 382.5t351 142.5q213 0 345.5 -141.5t132.5 -366.5q0 -256 -147.5 -391.5t-346.5 -135.5q-205 0 -340 140.5t-135 369.5zM262 494q0 -164 84 -272.5t215 -108.5q129 0 215 109.5t86 275.5q0 145 -74.5 262t-222 117t-225.5 -113.5t-78 -269.5z" />
<glyph unicode="p" horiz-adv-x="1165" d="M141 991h160l10 -170h4q113 190 353 191q182 0 302 -139.5t120 -362.5q0 -254 -132.5 -393.5t-320.5 -139.5q-98 0 -179 41t-126 115h-4v-539h-178v1074q-1 135 -9 323zM328 403q0 -43 8 -73q25 -94 99.5 -152.5t170.5 -58.5q141 0 221 104.5t80 278.5q0 156 -78.5 261 t-216.5 105q-94 0 -170.5 -60t-101.5 -161q-12 -45 -12 -72v-172z" />
<glyph unicode="q" horiz-adv-x="1153" d="M78 477q0 260 136 397.5t312 137.5q109 0 188 -47t117 -123h5l6 149h170q-8 -164 -8 -272v-1125h-179v558h-4q-100 -174 -323 -175q-178 0 -299 139.5t-121 360.5zM260 489q0 -158 76 -263t217 -105q88 0 157.5 51t100.5 143q14 47 14 88v187q0 43 -8 74 q-23 88 -92.5 146t-165.5 58q-137 0 -218 -105.5t-81 -273.5z" />
<glyph unicode="r" horiz-adv-x="669" d="M141 991h158l8 -196h6q33 98 109 157.5t168 59.5q16 0 49 -4v-170q-18 4 -61 4q-94 0 -159 -63.5t-83 -166.5q-6 -37 -6 -84v-528h-180v682q-1 186 -9 309z" />
<glyph unicode="s" horiz-adv-x="811" d="M82 47l43 135q117 -70 240 -69q92 0 141 41t49 106q0 63 -41 103t-141 77q-264 96 -264 281q0 123 94 207t248 84q147 0 241 -62l-43 -131q-94 59 -203 60q-78 0 -120.5 -39t-42.5 -97q0 -59 42 -94t144 -76q131 -49 195.5 -119.5t64.5 -177.5q0 -135 -98.5 -217 t-270.5 -82q-159 0 -278 70z" />
<glyph unicode="t" horiz-adv-x="677" d="M37 854v137h153v185l177 53v-238h258v-137h-258v-535q0 -193 135 -192q63 0 104 12l8 -137q-70 -25 -159 -25q-125 0 -195 76q-70 78 -70 260v541h-153z" />
<glyph unicode="u" horiz-adv-x="1128" d="M143 412v579h181v-547q0 -317 221 -317q84 0 147.5 49t89.5 117q16 39 17 92v606h180v-719q0 -168 8 -272h-160l-10 162h-4q-41 -74 -125 -129.5t-203 -55.5q-63 0 -119.5 20.5t-108.5 67t-83 135.5t-31 212z" />
<glyph unicode="v" horiz-adv-x="985" d="M27 991h192l195 -555q53 -150 80 -256h6q25 88 84 256l192 555h189l-390 -991h-172z" />
<glyph unicode="w" horiz-adv-x="1507" d="M37 991h184l133 -504q59 -246 72 -315h6q23 100 88 313l162 506h152l153 -495q55 -180 88 -324h6q20 123 76 322l141 497h179l-320 -991h-164l-151 473q-59 186 -88 326h-4q-29 -141 -91 -328l-159 -471h-164z" />
<glyph unicode="x" horiz-adv-x="948" d="M16 0l353 506l-336 485h200l142 -213q49 -70 102 -160h4q37 66 101 162l137 211h196l-337 -479l346 -512h-203l-148 223q-41 61 -106 172h-4q-45 -80 -105 -172l-143 -223h-199z" />
<glyph unicode="y" horiz-adv-x="964" d="M18 991h197l215 -585q37 -96 66 -203h4q2 6 25.5 85t37.5 122l197 581h190l-270 -706q-100 -262 -175 -401.5t-165 -219.5q-113 -94 -221 -115l-45 150q86 27 157 88q92 72 152 201q14 33 14 43q0 16 -14 47z" />
<glyph unicode="z" horiz-adv-x="876" d="M37 0v104l446 584q16 20 131 156v4h-536v143h753v-112l-442 -576q-88 -113 -127 -156v-4h578v-143h-803z" />
<glyph unicode="{" horiz-adv-x="581" d="M57 539v104q96 0 130 42t36 110q0 59 -16 170q-16 119 -17 172q0 135 81 201.5t218 66.5h41v-113h-34q-164 -2 -164 -176q0 -31 14 -145q16 -102 16 -156q2 -180 -149 -221v-4q150 -39 149 -223q0 -55 -16 -158q-14 -115 -14 -148q0 -176 164 -178h34v-112h-43 q-297 0 -297 280q0 68 19 168q14 133 14 166q0 154 -166 154z" />
<glyph unicode="|" horiz-adv-x="489" d="M176 -512v2048h137v-2048h-137z" />
<glyph unicode="}" horiz-adv-x="581" d="M51 -117h35q164 2 164 178q0 33 -14 148q-16 102 -17 158q-2 182 150 223v4q-150 39 -150 221q0 53 17 156q14 115 14 145q0 174 -164 176h-35v113h41q137 0 218 -66.5t81 -201.5q0 -53 -16 -172q-16 -111 -17 -170q0 -68 34 -110t132 -42v-104q-162 0 -166 -154 q0 -51 17 -166q16 -111 16 -168q0 -281 -297 -280h-43v112z" />
<glyph unicode="~" horiz-adv-x="1220" d="M100 430q-4 147 64.5 228t179.5 81q61 0 119.5 -19.5t171.5 -72.5q180 -86 254 -86q106 0 110 172h121q6 -160 -60.5 -234.5t-172.5 -74.5q-102 0 -297 90q-12 6 -40 19.5t-39 19.5t-33.5 16.5t-36 14.5t-32 10t-34 8t-31.5 2q-119 0 -121 -174h-123z" />
<glyph unicode="&#xa1;" horiz-adv-x="471" d="M115 870q0 57 34.5 93t88 36t86 -35.5t32.5 -93.5q0 -53 -33.5 -89t-87 -36t-87 36t-33.5 89zM137 -399l29 977h139l29 -977h-197z" />
<glyph unicode="&#xa2;" horiz-adv-x="1050" d="M137 668q0 199 112.5 337t299.5 169v204h129v-200q127 -2 223 -52l-41 -137q-90 51 -215 51q-147 0 -237.5 -105.5t-90.5 -260.5q0 -164 91.5 -261.5t230.5 -97.5q131 0 233 52l31 -131q-88 -51 -225 -60v-205h-129v207q-180 20 -295 144q-117 127 -117 346z" />
<glyph unicode="&#xa3;" horiz-adv-x="1050" d="M115 0v102q104 53 168.5 149.5t64.5 209.5q0 76 -10 143h-211v129h190q-23 135 -22 221q0 180 110.5 290t282.5 110q141 0 223 -51l-39 -136q-74 41 -184 41q-115 0 -169 -69.5t-54 -186.5q0 -98 22 -219h295v-129h-278q12 -150 -8 -229q-33 -129 -142 -221v-4h611v-150 h-850z" />
<glyph unicode="&#xa4;" horiz-adv-x="1050" d="M57 1071l93 94l139 -155q98 84 237 84q143 0 236 -82l145 153l92 -94l-161 -145q72 -96 71 -242q0 -156 -71 -250l153 -151l-90 -90l-141 155q-92 -86 -240 -86q-145 0 -233 82l-137 -151l-89 90l148 143q-76 102 -76 248q0 150 80 252zM279 676q0 -137 74.5 -211 t166.5 -74q98 0 171 73t73 218q0 115 -64.5 199t-179.5 84q-109 0 -175 -83t-66 -206z" />
<glyph unicode="&#xa5;" horiz-adv-x="1050" d="M33 1331h192l213 -422q49 -104 82 -186h6q33 92 82 190l221 418h189l-367 -620h267v-101h-320v-149h320v-101h-320v-360h-170v360h-317v101h317v149h-317v101h268z" />
<glyph unicode="&#xa6;" horiz-adv-x="489" d="M176 356h137v-716h-137v716zM176 664v716h137v-716h-137z" />
<glyph unicode="&#xa7;" horiz-adv-x="1062" d="M121 696q0 141 151 242q-33 23 -54 71t-21 99q0 133 107.5 212t269 79t282.5 -68l-45 -117q-102 66 -244 66q-92 0 -152.5 -42t-60.5 -110q0 -74 59.5 -112.5t196.5 -83.5q164 -53 248 -124t84 -198q0 -147 -131 -248q78 -74 78 -182q0 -150 -115 -228.5t-274 -78.5 q-205 0 -322 86l49 117q115 -82 273 -82q100 0 163.5 44t63.5 122q0 72 -53 118t-197 97q-180 61 -268 130.5t-88 190.5zM268 717q0 -57 49.5 -103.5t165.5 -89.5q180 -63 234 -98q78 57 78 158q0 127 -183 190q-18 8 -61 23.5t-70.5 26t-61.5 25.5t-59 30q-92 -66 -92 -162 z" />
<glyph unicode="&#xa8;" d="M14 1272q0 43 30 73.5t75 30.5q41 0 69.5 -29.5t28.5 -74.5q0 -43 -28.5 -74t-73.5 -31q-43 0 -72 31t-29 74zM395 1272q0 43 30 73.5t73 30.5t71.5 -29.5t28.5 -74.5q0 -43 -28.5 -74t-73.5 -31q-43 0 -72 31t-29 74z" />
<glyph unicode="&#xa9;" horiz-adv-x="1386" d="M74 696q0 262 181 446.5t443 184.5q258 0 436.5 -184.5t178.5 -446.5q0 -264 -179.5 -449.5t-437.5 -185.5q-260 0 -441 185.5t-181 449.5zM176 690q0 -229 149.5 -387t370.5 -158q217 -2 365.5 158t148.5 393q0 229 -149.5 388t-366.5 159q-219 0 -368.5 -160 t-149.5 -393zM354 684q0 170 115 275.5t276 105.5q74 0 137.5 -17.5t88.5 -37.5l-25 -80q-88 47 -198 47q-139 0 -213 -79t-74 -208q0 -125 75.5 -207t213.5 -82q125 0 206 54l25 -78q-96 -63 -252 -64q-174 0 -274.5 105.5t-100.5 265.5z" />
<glyph unicode="&#xaa;" horiz-adv-x="708" d="M68 731q0 111 108.5 173.5t302.5 58.5v20q0 16 -5 34.5t-19.5 41t-48 37t-80.5 14.5q-102 0 -174 -53l-33 86q94 68 233 67q260 0 260 -286v-219q0 -78 11 -160h-121l-10 86h-5q-80 -96 -208 -96q-98 0 -154.5 56t-56.5 140zM203 739q0 -49 33.5 -77.5t85.5 -28.5 q94 0 139 76q20 27 20 53v112q-278 8 -278 -135z" />
<glyph unicode="&#xab;" horiz-adv-x="858" d="M59 516l271 377h145l-272 -377l274 -377h-147zM395 516l271 377h145l-272 -377l272 -377h-145z" />
<glyph unicode="&#xac;" horiz-adv-x="1220" d="M82 694v123h1057v-569h-131v446h-926z" />
<glyph unicode="&#xad;" horiz-adv-x="595" d="M61 487v131h506v-131h-506z" />
<glyph unicode="&#xae;" horiz-adv-x="858" d="M84 1063q0 141 101.5 238.5t246.5 97.5q143 0 242.5 -97.5t99.5 -238.5t-100.5 -239.5t-243.5 -98.5q-145 0 -245.5 98.5t-100.5 239.5zM170 1063q0 -113 76 -190.5t186 -77.5q109 -2 182.5 76.5t73.5 189.5q0 113 -74.5 191.5t-185.5 78.5q-109 0 -183.5 -78.5 t-74.5 -189.5zM299 889v336q78 10 129 10q78 0 115 -27q35 -25 35 -71q0 -57 -70 -80v-4q43 -14 59 -82q10 -55 25 -82h-82q-8 10 -27 82q-8 51 -69 51h-37v-133h-78zM379 1077h37q78 0 78 49q0 51 -72 52q-27 0 -43 -4v-97z" />
<glyph unicode="&#xaf;" d="M78 1200v117h461v-117h-461z" />
<glyph unicode="&#xb0;" horiz-adv-x="651" d="M59 1128q0 117 79 197t196 80q121 0 194.5 -79t73.5 -187q0 -121 -82 -198t-192 -77q-117 0 -193 76.5t-76 187.5zM170 1128.5q0 -71.5 45 -119.5t114.5 -48t116 50t46.5 126q0 66 -41 119t-123 53q-74 0 -116 -54.5t-42 -126z" />
<glyph unicode="&#xb1;" horiz-adv-x="1220" d="M82 0v123h1057v-123h-1057zM82 649v123h463v397h131v-397h463v-123h-463v-409h-131v409h-463z" />
<glyph unicode="&#xb2;" horiz-adv-x="636" d="M25 907v76l129 119q139 127 198.5 204.5t59.5 151.5q0 61 -40 101t-116 40q-86 0 -172 -63l-43 94q102 84 252 84q133 0 201.5 -68.5t68.5 -160.5q0 -104 -65.5 -192.5t-206.5 -211.5l-62 -57v-4h349v-113h-553z" />
<glyph unicode="&#xb3;" horiz-adv-x="624" d="M16 952l37 103q86 -53 191 -54q88 0 135 42t45 96q0 74 -63.5 109.5t-153.5 35.5h-55v94h57q70 0 128 33t58 96q0 43 -31.5 73t-97.5 30q-94 0 -174 -56l-35 99q98 63 236 63q125 0 187.5 -55t62.5 -137q0 -63 -42 -111.5t-116 -75.5v-4q84 -12 137 -66.5t53 -131.5 q0 -98 -87 -169t-236 -71q-148 0 -236 57z" />
<glyph unicode="&#xb4;" d="M207 1126l180 293h197l-250 -293h-127z" />
<glyph unicode="&#xb5;" horiz-adv-x="1132" d="M150 -39v1030h180v-585q0 -125 55 -203t168 -78q84 0 146.5 49t88.5 117q16 43 17 94v606h180v-719q0 -84 20.5 -118.5t73.5 -36.5l-14 -131q-31 -8 -64 -9q-154 0 -176 177h-6q-37 -70 -110.5 -121t-173.5 -51q-156 0 -218 108v-121q0 -274 23 -375h-162q-28 86 -28 367 z" />
<glyph unicode="&#xb6;" horiz-adv-x="1048" d="M70 932q0 86 25.5 161.5t86 143.5t176 107.5t275.5 39.5q158 0 239 -16v-1468h-127v1362h-145v-1362h-127v643h-14q-139 0 -263 103.5t-126 285.5z" />
<glyph unicode="&#xb7;" horiz-adv-x="423" d="M90 537q0 57 35 93t88 36t87 -36t34 -93q0 -55 -35 -91t-90 -36q-51 0 -85 37t-34 90z" />
<glyph unicode="&#xb8;" d="M111 -375l30 88q53 -29 111 -28q39 0 64.5 15t23.5 48q0 72 -160 86l96 172h113l-67 -108q59 -6 101 -45t42 -97q0 -86 -60.5 -126t-154.5 -40q-80 0 -139 35z" />
<glyph unicode="&#xb9;" horiz-adv-x="499" d="M45 1614l193 92h124v-799h-143v672h-4l-147 -72z" />
<glyph unicode="&#xba;" horiz-adv-x="727" d="M37 866q0 156 96 250t236 94q145 0 233 -93t88 -240q-2 -166 -99 -254t-229 -88q-139 0 -232 92t-93 239zM174 868q0 -98 56.5 -164.5t134.5 -66.5q82 0 135 65.5t53 169.5q0 90 -49 163t-144 73q-90 0 -138 -73t-48 -167z" />
<glyph unicode="&#xbb;" horiz-adv-x="858" d="M49 139l273 377l-273 377h144l272 -377l-272 -377h-144zM381 893h145l273 -377l-273 -377h-143l272 377z" />
<glyph unicode="&#xbc;" horiz-adv-x="1554" d="M88 1253l193 90h125v-798h-144v674h-4l-147 -72zM283 -23l778 1377h115l-777 -1377h-116zM813 211v80l395 518h150v-498h123v-100h-123v-211h-135v211h-410zM961 313l2 -2h260v242q0 18 6 129h-4q-12 -18 -34 -56t-34 -57z" />
<glyph unicode="&#xbd;" horiz-adv-x="1554" d="M59 1253l193 90h125v-798h-144v674h-4l-147 -72zM244 -23l776 1377h115l-777 -1377h-114zM901 0v76l129 119q141 131 199.5 206.5t58.5 149.5q0 63 -40 103t-115 40q-86 0 -172 -63l-43 94q102 84 251 84q133 0 202 -68.5t69 -160.5q0 -106 -64.5 -192.5t-208.5 -213.5 l-61 -57v-4h348v-113h-553z" />
<glyph unicode="&#xbe;" horiz-adv-x="1554" d="M61 592l37 102q78 -53 191 -53q88 0 135 42t45 95q0 74 -63.5 110t-153.5 34h-55v94h55q70 0 128 32.5t58 96.5q0 43 -32.5 72.5t-98.5 29.5q-92 0 -172 -55l-35 96q94 66 234 66q125 0 188.5 -55.5t63.5 -137.5q0 -63 -41 -111.5t-115 -72.5v-4q84 -12 137.5 -66.5 t53.5 -132.5q0 -100 -87.5 -169.5t-236.5 -69.5q-148 0 -236 57zM358 -23l779 1377h114l-776 -1377h-117zM836 211v80l395 518h149v-498h123v-100h-123v-211h-135v211h-409zM981 313l2 -2h262v242q0 18 6 129h-4q-59 -102 -67 -113z" />
<glyph unicode="&#xbf;" horiz-adv-x="831" d="M113 -127q0 94 44 172t134 184q127 152 115 303l-3 54h158l6 -54q20 -176 -127 -356q-143 -168 -143 -280q0 -80 50 -128.5t145 -48.5q119 0 208 64l48 -129q-121 -82 -293 -82q-166 0 -254 87t-88 214zM365 870q0 57 33.5 93t88.5 36q53 0 86 -35.5t33 -93.5 q0 -55 -32.5 -91t-88.5 -36q-53 0 -86.5 36t-33.5 91z" />
<glyph unicode="&#xc0;" horiz-adv-x="1253" d="M51 0l471 1380h213l471 -1380h-190l-148 434h-489l-143 -434h-185zM330 1694h217l190 -238h-145zM416 573h418l-138 398q-29 84 -71 252h-4q-47 -184 -70 -250z" />
<glyph unicode="&#xc1;" horiz-adv-x="1253" d="M51 0l471 1380h213l471 -1380h-190l-148 434h-489l-143 -434h-185zM416 573h418l-138 398q-29 84 -71 252h-4q-47 -184 -70 -250zM522 1454l191 240h217l-262 -240h-146z" />
<glyph unicode="&#xc2;" horiz-adv-x="1253" d="M51 0l471 1380h213l471 -1380h-190l-148 434h-489l-143 -434h-185zM356 1454l209 234h137l216 -234h-152l-129 141h-4l-131 -141h-146zM416 573h418l-138 398q-29 84 -71 252h-4q-47 -184 -70 -250z" />
<glyph unicode="&#xc3;" horiz-adv-x="1253" d="M51 0l471 1380h213l471 -1380h-190l-148 434h-489l-143 -434h-185zM379 1464q-2 94 36 151.5t103 57.5q45 0 123 -41q66 -37 98 -37q25 0 38.5 16.5t17.5 63.5h94q4 -199 -137 -198q-51 0 -125 39q-78 39 -99 38q-43 0 -53 -90h-96zM416 573h418l-138 398q-29 84 -71 252 h-4q-47 -184 -70 -250z" />
<glyph unicode="&#xc4;" horiz-adv-x="1253" d="M51 0l471 1380h213l471 -1380h-190l-148 434h-489l-143 -434h-185zM344 1577q0 43 28.5 72.5t71.5 29.5t71 -29.5t28 -72.5q0 -45 -28 -74.5t-73 -29.5q-43 0 -70.5 30.5t-27.5 73.5zM416 573h418l-138 398q-29 84 -71 252h-4q-47 -184 -70 -250zM725 1577 q0 43 29.5 72.5t72.5 29.5t71 -29.5t28 -72.5q0 -45 -28 -74.5t-75 -29.5q-43 0 -70.5 30.5t-27.5 73.5z" />
<glyph unicode="&#xc5;" horiz-adv-x="1253" d="M51 0l471 1380h213l471 -1380h-190l-148 434h-489l-143 -434h-185zM416 573h418l-138 398q-29 84 -71 252h-4q-47 -184 -70 -250zM426 1612q0 80 56.5 133t150.5 53q90 0 145.5 -53t55.5 -133q0 -78 -57.5 -129t-145.5 -51q-90 0 -147.5 52t-57.5 128zM530 1612 q0 -41 28 -73t71 -32t70.5 31t27.5 78q0 45 -27.5 76.5t-72.5 31.5t-71 -32.5t-26 -79.5z" />
<glyph unicode="&#xc6;" horiz-adv-x="1613" d="M-2 0l631 1380h864l-2 -149h-586l53 -440h515v-148h-492l61 -493h506l-2 -150h-657l-62 485h-424l-221 -485h-184zM463 631h344l-45 397q-20 164 -25 223h-8q-20 -57 -88 -217z" />
<glyph unicode="&#xc7;" horiz-adv-x="1198" d="M74 678q0 326 199.5 525.5t523.5 199.5q213 0 325 -62l-43 -145q-119 57 -278 57q-246 0 -392.5 -150.5t-146.5 -418.5q0 -258 140.5 -406.5t390.5 -148.5q172 0 292 57l35 -141q-117 -63 -358 -65l-51 -82q61 -12 102 -52.5t41 -99.5q0 -84 -60.5 -125t-150.5 -41 q-82 0 -145 35l28 92q47 -29 113 -29q88 0 88 64q0 68 -160 88l86 156q-262 31 -420.5 210t-158.5 482z" />
<glyph unicode="&#xc8;" horiz-adv-x="1007" d="M154 0v1380h747v-149h-567v-436h534v-148h-534v-497h598v-150h-778zM244 1694h217l190 -238h-145z" />
<glyph unicode="&#xc9;" horiz-adv-x="1007" d="M154 0v1380h747v-149h-567v-436h534v-148h-534v-497h598v-150h-778zM428 1454l190 240h218l-263 -240h-145z" />
<glyph unicode="&#xca;" horiz-adv-x="1007" d="M154 0v1380h747v-149h-567v-436h534v-148h-534v-497h598v-150h-778zM248 1454l209 234h137l215 -234h-152l-129 141h-4l-131 -141h-145z" />
<glyph unicode="&#xcb;" horiz-adv-x="1007" d="M154 0v1380h747v-149h-567v-436h536v-148h-536v-497h600v-150h-780zM233 1581q0 43 29 72.5t72 29.5t70.5 -29.5t27.5 -72.5q0 -45 -27.5 -74.5t-72.5 -29.5q-43 0 -71 30.5t-28 73.5zM612 1581q0 43 30 72.5t73 29.5t70.5 -29.5t27.5 -72.5q0 -45 -27.5 -74.5 t-74.5 -29.5q-43 0 -71 30.5t-28 73.5z" />
<glyph unicode="&#xcc;" horiz-adv-x="489" d="M-51 1694h217l190 -238h-145zM154 0v1380h180v-1380h-180z" />
<glyph unicode="&#xcd;" horiz-adv-x="489" d="M137 1454l191 240h217l-262 -240h-146zM154 0v1380h180v-1380h-180z" />
<glyph unicode="&#xce;" horiz-adv-x="489" d="M-35 1454l209 234h137l215 -234h-151l-129 141h-4l-131 -141h-146zM154 0v1380h180v-1380h-180z" />
<glyph unicode="&#xcf;" horiz-adv-x="489" d="M-43 1581q0 43 28.5 72.5t71.5 29.5t71 -29.5t28 -72.5q0 -45 -28 -74.5t-73 -29.5q-43 0 -70.5 30.5t-27.5 73.5zM154 0v1380h180v-1380h-180zM336 1581q0 43 29.5 72.5t72.5 29.5t71 -29.5t28 -72.5q0 -45 -28 -74.5t-75 -29.5q-43 0 -70.5 30.5t-27.5 73.5z" />
<glyph unicode="&#xd0;" horiz-adv-x="1374" d="M-2 629v143h168v594q180 31 379 31q375 0 557 -172q197 -174 196 -502q0 -336 -198 -539q-203 -199 -611 -198q-166 0 -323 14v629h-168zM344 137q59 -8 178 -8q287 0 437.5 152.5t150.5 439.5q2 254 -139.5 394t-417.5 140q-125 0 -209 -18v-465h369v-143h-369v-492z " />
<glyph unicode="&#xd1;" horiz-adv-x="1347" d="M156 0v1380h196l441 -698q160 -258 245 -449l6 3q-20 231 -20 567v577h168v-1380h-180l-439 700q-172 272 -256 461l-6 -2q12 -209 13 -569v-590h-168zM430 1464q-2 94 36 151.5t103 57.5q43 0 121 -41q66 -37 98 -37q25 0 38.5 16.5t17.5 63.5h94q4 -199 -137 -198 q-47 0 -125 39q-74 39 -96 38q-43 0 -54 -90h-96z" />
<glyph unicode="&#xd2;" horiz-adv-x="1411" d="M74 680q0 326 179 525.5t460 199.5q283 0 452.5 -194.5t169.5 -505.5q0 -342 -182 -535t-459 -193q-274 0 -447 195t-173 508zM262 684q0 -233 120 -397t323 -164q205 0 323.5 164t118.5 409q0 227 -116 395.5t-324 168.5q-211 0 -328 -167t-117 -409zM408 1698h217 l190 -238h-145z" />
<glyph unicode="&#xd3;" horiz-adv-x="1411" d="M74 680q0 326 179 525.5t460 199.5q283 0 452.5 -194.5t169.5 -505.5q0 -342 -182 -535t-459 -193q-274 0 -447 195t-173 508zM262 684q0 -233 120 -397t323 -164q205 0 323.5 164t118.5 409q0 227 -116 395.5t-324 168.5q-211 0 -328 -167t-117 -409zM596 1458l190 240 h218l-263 -240h-145z" />
<glyph unicode="&#xd4;" horiz-adv-x="1411" d="M74 680q0 326 179 525.5t460 199.5q283 0 452.5 -194.5t169.5 -505.5q0 -342 -182 -535t-459 -193q-274 0 -447 195t-173 508zM262 684q0 -233 120 -397t323 -164q205 0 323.5 164t118.5 409q0 227 -116 395.5t-324 168.5q-211 0 -328 -167t-117 -409zM424 1460l209 234 h137l215 -234h-151l-129 142h-5l-131 -142h-145z" />
<glyph unicode="&#xd5;" horiz-adv-x="1411" d="M74 680q0 326 179 525.5t460 199.5q283 0 452.5 -194.5t169.5 -505.5q0 -342 -182 -535t-459 -193q-274 0 -447 195t-173 508zM262 684q0 -233 120 -397t323 -164q205 0 323.5 164t118.5 409q0 227 -116 395.5t-324 168.5q-211 0 -328 -167t-117 -409zM451 1470 q-2 92 35.5 149.5t103.5 57.5q43 0 121 -41q66 -37 98 -37q25 0 38 16.5t17 63.5h94q4 -199 -137 -198q-47 0 -125 39q-74 39 -96 39q-43 0 -53 -89h-96z" />
<glyph unicode="&#xd6;" horiz-adv-x="1411" d="M74 680q0 326 179 525.5t460 199.5q283 0 452.5 -194.5t169.5 -505.5q0 -342 -182 -535t-459 -193q-274 0 -447 195t-173 508zM262 684q0 -233 120 -397t323 -164q205 0 323.5 164t118.5 409q0 227 -116 395.5t-324 168.5q-211 0 -328 -167t-117 -409zM416 1581 q0 43 28.5 72.5t71.5 29.5t70.5 -29.5t27.5 -72.5q0 -45 -27.5 -74.5t-72.5 -29.5q-43 0 -70.5 30.5t-27.5 73.5zM795 1581q0 43 29.5 72.5t72.5 29.5t70.5 -29.5t27.5 -72.5q0 -45 -27.5 -74.5t-74.5 -29.5q-43 0 -70.5 30.5t-27.5 73.5z" />
<glyph unicode="&#xd7;" horiz-adv-x="1220" d="M82 90l438 449l-438 448l90 90l438 -448l439 448l90 -90l-441 -448l441 -449l-90 -90l-439 449l-438 -449z" />
<glyph unicode="&#xd8;" horiz-adv-x="1411" d="M74 684q0 324 180 522.5t457 198.5q197 0 344 -111l121 166l108 -74l-127 -176q178 -195 178 -508q0 -344 -182 -534.5t-446 -190.5q-197 0 -349 111l-129 -176l-100 82l127 178q-182 199 -182 512zM256 692q0 -197 100 -370l4 2l607 841q-113 96 -260 97 q-213 0 -332 -168.5t-119 -401.5zM446 219q104 -98 259 -98q207 0 327.5 166t120.5 409q0 201 -96 361h-6z" />
<glyph unicode="&#xd9;" horiz-adv-x="1325" d="M154 567v813h180v-819q0 -221 88 -329.5t233 -108.5q158 0 247 108.5t89 329.5v819h180v-807q0 -303 -142 -449.5t-380 -146.5q-227 0 -361 142.5t-134 447.5zM375 1694h217l190 -238h-145z" />
<glyph unicode="&#xda;" horiz-adv-x="1325" d="M154 567v813h180v-819q0 -221 88 -329.5t233 -108.5q158 0 247 108.5t89 329.5v819h180v-807q0 -303 -142 -449.5t-380 -146.5q-227 0 -361 142.5t-134 447.5zM561 1454l191 240h217l-262 -240h-146z" />
<glyph unicode="&#xdb;" horiz-adv-x="1325" d="M154 567v813h180v-819q0 -221 88 -329.5t233 -108.5q158 0 247 108.5t89 329.5v819h180v-807q0 -303 -142 -449.5t-380 -146.5q-227 0 -361 142.5t-134 447.5zM395 1454l209 234h137l215 -234h-151l-129 141h-4l-131 -141h-146z" />
<glyph unicode="&#xdc;" horiz-adv-x="1325" d="M154 567v813h180v-819q0 -221 88 -329.5t233 -108.5q158 0 247 108.5t89 329.5v819h180v-807q0 -303 -142 -449.5t-380 -146.5q-227 0 -361 142.5t-134 447.5zM377 1581q0 43 28.5 72.5t71.5 29.5t70.5 -29.5t27.5 -72.5q0 -45 -27.5 -74.5t-72.5 -29.5q-43 0 -70.5 30.5 t-27.5 73.5zM758 1581q0 43 29.5 72.5t72.5 29.5t70.5 -29.5t27.5 -72.5q0 -45 -27.5 -74.5t-74.5 -29.5q-43 0 -70.5 30.5t-27.5 73.5z" />
<glyph unicode="&#xdd;" horiz-adv-x="1107" d="M25 1380h204l195 -381q113 -231 137 -284h4q25 57 140 284l198 381h201l-461 -792v-588h-180v586zM465 1444l190 239h217l-262 -239h-145z" />
<glyph unicode="&#xde;" horiz-adv-x="1087" d="M156 0v1380h176v-268q78 14 196 14q240 0 365 -112q113 -102 113 -266q0 -213 -142.5 -326t-376.5 -113q-84 0 -155 10v-319h-176zM332 465q57 -12 153 -12q164 0 253 73.5t89 200.5q0 129 -85 193.5t-230 64.5q-115 0 -180 -16v-504z" />
<glyph unicode="&#xdf;" horiz-adv-x="1122" d="M150 0v926q0 315 147 446q113 104 299 105q154 0 259.5 -92.5t105.5 -254.5q0 -98 -50 -167q-145 -61 -145 -166q0 -33 14.5 -65t32.5 -52.5t57 -61.5q53 -53 82 -86.5t56.5 -96t27.5 -132.5q0 -145 -99 -235.5t-267 -90.5q-133 0 -217 43l32 138q82 -41 172 -41 q94 0 147.5 49t53.5 123q0 106 -110 211q-80 76 -120 135t-40 137q0 164 184 252q16 39 16 88q0 104 -58 163.5t-155 59.5q-123 0 -184 -94t-61 -307v-934h-180z" />
<glyph unicode="&#xe0;" horiz-adv-x="987" d="M72 262q0 180 154.5 275.5t441.5 93.5v20q0 37 -7.5 71t-29 73t-69.5 61.5t-120 22.5q-152 0 -260 -74l-41 121q137 86 328 86q207 0 292 -115t85 -289v-370q0 -143 14 -238h-162l-14 125h-6q-45 -63 -124 -105.5t-179 -42.5q-143 0 -223 84t-80 201zM195 1419h196 l180 -293h-127zM252 283q0 -84 48 -128t120 -44q92 0 155.5 48t88.5 117q8 27 8 58v172q-420 8 -420 -223z" />
<glyph unicode="&#xe1;" horiz-adv-x="987" d="M72 262q0 180 154.5 275.5t441.5 93.5v20q0 37 -7.5 71t-29 73t-69.5 61.5t-120 22.5q-152 0 -260 -74l-41 121q137 86 328 86q207 0 292 -115t85 -289v-370q0 -143 14 -238h-162l-14 125h-6q-45 -63 -124 -105.5t-179 -42.5q-143 0 -223 84t-80 201zM252 283 q0 -84 48 -128t120 -44q92 0 155.5 48t88.5 117q8 27 8 58v172q-420 8 -420 -223zM385 1126l178 293h199l-250 -293h-127z" />
<glyph unicode="&#xe2;" horiz-adv-x="987" d="M72 262q0 180 154.5 275.5t441.5 93.5v20q0 37 -7.5 71t-29 73t-69.5 61.5t-120 22.5q-152 0 -260 -74l-41 121q137 86 328 86q207 0 292 -115t85 -289v-370q0 -143 14 -238h-162l-14 125h-6q-45 -63 -124 -105.5t-179 -42.5q-143 0 -223 84t-80 201zM227 1126l193 293 h125l196 -293h-137l-119 193h-4l-119 -193h-135zM252 283q0 -84 48 -128t120 -44q92 0 155.5 48t88.5 117q8 27 8 58v172q-420 8 -420 -223z" />
<glyph unicode="&#xe3;" horiz-adv-x="987" d="M72 262q0 180 154.5 275.5t441.5 93.5v20q0 37 -7.5 71t-29 73t-69.5 61.5t-120 22.5q-152 0 -260 -74l-41 121q137 86 328 86q207 0 292 -115t85 -289v-370q0 -143 14 -238h-162l-14 125h-6q-45 -63 -124 -105.5t-179 -42.5q-143 0 -223 84t-80 201zM236 1161 q-2 98 34.5 155.5t104.5 57.5q41 0 127 -45q61 -35 86 -35q51 0 57 86h96q4 -207 -139 -206q-45 0 -127 43q-61 37 -88 36q-47 0 -53 -92h-98zM252 283q0 -84 48 -128t120 -44q92 0 155.5 48t88.5 117q8 27 8 58v172q-420 8 -420 -223z" />
<glyph unicode="&#xe4;" horiz-adv-x="987" d="M72 262q0 180 154.5 275.5t441.5 93.5v20q0 37 -7.5 71t-29 73t-69.5 61.5t-120 22.5q-152 0 -260 -74l-41 121q137 86 328 86q207 0 292 -115t85 -289v-370q0 -143 14 -238h-162l-14 125h-6q-45 -63 -124 -105.5t-179 -42.5q-143 0 -223 84t-80 201zM203 1272 q0 43 29.5 73.5t74.5 30.5q41 0 70 -29.5t29 -74.5q0 -43 -29 -74t-74 -31q-43 0 -71.5 31t-28.5 74zM252 283q0 -84 48 -128t120 -44q92 0 155.5 48t88.5 117q8 27 8 58v172q-420 8 -420 -223zM582 1272q0 43 29.5 73.5t72.5 30.5t71.5 -29.5t28.5 -74.5q0 -43 -28.5 -74 t-73.5 -31q-43 0 -71.5 31t-28.5 74z" />
<glyph unicode="&#xe5;" horiz-adv-x="987" d="M72 262q0 180 154.5 275.5t441.5 93.5v20q0 37 -7.5 71t-29 73t-69.5 61.5t-120 22.5q-152 0 -260 -74l-41 121q137 86 328 86q207 0 292 -115t85 -289v-370q0 -143 14 -238h-162l-14 125h-6q-45 -63 -124 -105.5t-179 -42.5q-143 0 -223 84t-80 201zM252 283 q0 -84 48 -128t120 -44q92 0 155.5 48t88.5 117q8 27 8 58v172q-420 8 -420 -223zM285 1286q0 82 57 137.5t152 55.5q90 0 146 -54.5t56 -138.5q0 -80 -58 -133t-146 -53q-90 0 -148.5 53t-58.5 133zM389 1286q0 -43 28.5 -76.5t74.5 -33.5q47 0 75.5 32.5t28.5 79.5 q0 49 -29.5 82t-77 33t-74 -34t-26.5 -83z" />
<glyph unicode="&#xe6;" horiz-adv-x="1583" d="M74 260q0 174 155.5 268.5t440.5 89.5v41q0 25 -8.5 57t-30 70.5t-71.5 65.5t-120 27q-147 0 -254 -74l-43 117q139 90 310 90q252 0 319 -209h4q49 98 139.5 153.5t206.5 55.5q106 0 187.5 -47t121 -121t59 -145.5t19.5 -141.5q0 -53 -6 -80h-665q-4 -172 84 -266 t233 -94q152 0 270 55l33 -127q-129 -68 -325 -68q-131 0 -232.5 57.5t-144.5 162.5h-6q-47 -102 -143.5 -161t-223.5 -59q-147 0 -228 83t-81 200zM252 274q0 -76 49 -119.5t123 -43.5q92 -2 154.5 47t85.5 123q10 37 10 71v146q-422 7 -422 -224zM838 606h499 q2 57 -17.5 117.5t-75.5 111t-140 50.5q-123 0 -191.5 -88.5t-74.5 -190.5z" />
<glyph unicode="&#xe7;" horiz-adv-x="915" d="M78 485q0 229 146.5 378t385.5 149q152 0 250 -54l-41 -137q-90 47 -209 47q-164 0 -257 -106.5t-93 -267.5q0 -168 97.5 -268.5t246.5 -100.5q119 0 221 47l31 -135q-111 -55 -258 -57l-51 -82q61 -12 102 -51.5t41 -98.5q0 -86 -60.5 -128t-152.5 -42q-84 0 -143 35 l31 92q47 -29 112 -29q88 0 88 66q-2 70 -159 86l86 158q-188 23 -301 158.5t-113 340.5z" />
<glyph unicode="&#xe8;" horiz-adv-x="1026" d="M78 479q0 229 127 381t338 152q115 0 199.5 -46t127.5 -120t62.5 -148.5t19.5 -150.5q0 -53 -6 -84h-696q2 -174 97 -259t243 -85q158 0 274 51l33 -129q-141 -63 -332 -64q-225 0 -356 137.5t-131 364.5zM252 592h526q2 109 -56 200t-194 91q-125 0 -194.5 -89 t-81.5 -202zM276 1419h197l180 -293h-127z" />
<glyph unicode="&#xe9;" horiz-adv-x="1026" d="M78 479q0 229 127 381t338 152q115 0 199.5 -46t127.5 -120t62.5 -148.5t19.5 -150.5q0 -53 -6 -84h-696q2 -174 97 -259t243 -85q158 0 274 51l33 -129q-141 -63 -332 -64q-225 0 -356 137.5t-131 364.5zM252 592h526q2 109 -56 200t-194 91q-125 0 -194.5 -89 t-81.5 -202zM442 1126l181 293h196l-250 -293h-127z" />
<glyph unicode="&#xea;" horiz-adv-x="1026" d="M78 479q0 229 127 381t338 152q115 0 199.5 -46t127.5 -120t62.5 -148.5t19.5 -150.5q0 -53 -6 -84h-696q2 -174 97 -259t243 -85q158 0 274 51l33 -129q-141 -63 -332 -64q-225 0 -356 137.5t-131 364.5zM252 592h526q2 109 -56 200t-194 91q-125 0 -194.5 -89 t-81.5 -202zM281 1126l192 293h125l197 -293h-138l-118 193h-4l-119 -193h-135z" />
<glyph unicode="&#xeb;" horiz-adv-x="1026" d="M78 479q0 229 127 381t338 152q115 0 199.5 -46t127.5 -120t62.5 -148.5t19.5 -150.5q0 -53 -6 -84h-696q2 -174 97 -259t243 -85q158 0 274 51l33 -129q-141 -63 -332 -64q-225 0 -356 137.5t-131 364.5zM252 592h526q2 109 -56 200t-194 91q-125 0 -194.5 -89 t-81.5 -202zM258 1272q0 43 29.5 73.5t74.5 30.5q41 0 70 -29.5t29 -74.5q0 -43 -29 -74t-74 -31q-43 0 -71.5 31t-28.5 74zM637 1272q0 43 29.5 73.5t72.5 30.5t72 -29.5t29 -74.5q0 -43 -29 -74t-74 -31q-43 0 -71.5 31t-28.5 74z" />
<glyph unicode="&#xec;" horiz-adv-x="479" d="M-55 1419h196l181 -293h-127zM150 0v991h180v-991h-180z" />
<glyph unicode="&#xed;" horiz-adv-x="479" d="M139 1126l180 293h197l-250 -293h-127zM150 0v991h180v-991h-180z" />
<glyph unicode="&#xee;" horiz-adv-x="479" d="M-16 1126l192 293h125l197 -293h-138l-118 193h-4l-119 -193h-135zM150 0v991h180v-991h-180z" />
<glyph unicode="&#xef;" horiz-adv-x="479" d="M-51 1272q0 43 29.5 73.5t74.5 30.5q41 0 70 -29.5t29 -74.5q0 -43 -29 -74t-74 -31q-43 0 -71.5 31t-28.5 74zM150 0v991h180v-991h-180zM328 1272q0 43 29.5 73.5t72.5 30.5t71.5 -29.5t28.5 -74.5q0 -43 -28.5 -74t-73.5 -31q-43 0 -71.5 31t-28.5 74z" />
<glyph unicode="&#xf0;" horiz-adv-x="1107" d="M78 483.5q0 229.5 135 367.5t322 140q135 0 231 -88l4 6q-92 150 -242 265l-290 -136l-39 88l237 113q-84 63 -213 123l80 113q150 -66 287 -166l260 125l45 -91l-217 -102q170 -139 260 -326q88 -176 88 -399q0 -137 -41 -243.5t-110.5 -169t-152.5 -94.5t-175 -32 q-205 0 -337 138.5t-132 368zM262 485q0 -158 82 -265t205 -107q133 0 213 107.5t80 277.5q0 188 -70 274q-84 96 -217 96q-145 0 -219 -119t-74 -264z" />
<glyph unicode="&#xf1;" horiz-adv-x="1136" d="M141 991h160l10 -164h4q41 78 127 131.5t201 53.5q57 0 113.5 -19.5t112 -63.5t90 -131t34.5 -208v-590h-180v571q0 131 -55.5 212t-173.5 81q-84 0 -149.5 -53t-92.5 -131q-12 -33 -12 -84v-596h-180v723q-1 159 -9 268zM317 1161q-2 98 35 155.5t105 57.5q41 0 127 -45 q61 -35 86 -35q49 0 55 86h96q4 -207 -139 -206q-47 0 -125 43q-68 37 -88 36q-47 0 -53 -92h-99z" />
<glyph unicode="&#xf2;" horiz-adv-x="1124" d="M78 487q0 240 140 382.5t351 142.5q213 0 345.5 -141.5t132.5 -366.5q0 -256 -147.5 -391.5t-346.5 -135.5q-205 0 -340 140.5t-135 369.5zM262 494q0 -164 84 -272.5t215 -108.5q129 0 215 109.5t86 275.5q0 145 -74.5 262t-222 117t-225.5 -113.5t-78 -269.5zM297 1419 h197l180 -293h-127z" />
<glyph unicode="&#xf3;" horiz-adv-x="1124" d="M78 487q0 240 140 382.5t351 142.5q213 0 345.5 -141.5t132.5 -366.5q0 -256 -147.5 -391.5t-346.5 -135.5q-205 0 -340 140.5t-135 369.5zM262 494q0 -164 84 -272.5t215 -108.5q129 0 215 109.5t86 275.5q0 145 -74.5 262t-222 117t-225.5 -113.5t-78 -269.5zM455 1126 l178 293h198l-249 -293h-127z" />
<glyph unicode="&#xf4;" horiz-adv-x="1124" d="M78 487q0 240 140 382.5t351 142.5q213 0 345.5 -141.5t132.5 -366.5q0 -256 -147.5 -391.5t-346.5 -135.5q-205 0 -340 140.5t-135 369.5zM262 494q0 -164 84 -272.5t215 -108.5q129 0 215 109.5t86 275.5q0 145 -74.5 262t-222 117t-225.5 -113.5t-78 -269.5zM305 1126 l193 293h125l196 -293h-137l-121 193h-4l-117 -193h-135z" />
<glyph unicode="&#xf5;" horiz-adv-x="1124" d="M78 487q0 240 140 382.5t351 142.5q213 0 345.5 -141.5t132.5 -366.5q0 -256 -147.5 -391.5t-346.5 -135.5q-205 0 -340 140.5t-135 369.5zM262 494q0 -164 84 -272.5t215 -108.5q129 0 215 109.5t86 275.5q0 145 -74.5 262t-222 117t-225.5 -113.5t-78 -269.5zM309 1161 q-2 98 35 155.5t105 57.5q39 0 129 -45q61 -35 86 -35q49 0 55 86h96q4 -207 -139 -206q-45 0 -127 43q-61 37 -88 36q-47 0 -53 -92h-99z" />
<glyph unicode="&#xf6;" horiz-adv-x="1124" d="M78 487q0 240 140 382.5t351 142.5q213 0 345.5 -141.5t132.5 -366.5q0 -256 -147.5 -391.5t-346.5 -135.5q-205 0 -340 140.5t-135 369.5zM262 494q0 -164 84 -272.5t215 -108.5q129 0 215 109.5t86 275.5q0 145 -74.5 262t-222 117t-225.5 -113.5t-78 -269.5zM270 1272 q0 43 30 73.5t75 30.5q41 0 69.5 -29.5t28.5 -74.5q0 -43 -28.5 -74t-73.5 -31q-43 0 -72 31t-29 74zM649 1272q0 43 30 73.5t73 30.5t71.5 -29.5t28.5 -74.5q0 -43 -28.5 -74t-73.5 -31q-43 0 -72 31t-29 74z" />
<glyph unicode="&#xf7;" horiz-adv-x="1220" d="M82 485v123h1057v-123h-1057zM502 186q0 51 30.5 83t77.5 32q49 0 79 -31.5t30 -83.5q0 -49 -31 -80.5t-80 -31.5q-47 0 -76.5 31.5t-29.5 80.5zM502 905q0 51 30.5 83t77.5 32q49 0 79 -32t30 -83q0 -49 -31 -80.5t-80 -31.5q-47 0 -76.5 31.5t-29.5 80.5z" />
<glyph unicode="&#xf8;" horiz-adv-x="1124" d="M78 489q0 240 139 381.5t350 141.5q141 0 250 -70l86 123l80 -55l-88 -129q152 -145 152 -379q0 -254 -145.5 -389.5t-338.5 -135.5q-145 0 -252 70l-90 -125l-76 62l86 122q-153 147 -153 383zM254 494q0 -147 72 -248l4 -2l405 573q-70 59 -174 60 q-152 0 -229.5 -115.5t-77.5 -267.5zM391 170q70 -57 166 -57q139 0 226 107.5t87 275.5q0 139 -69 243h-4z" />
<glyph unicode="&#xf9;" horiz-adv-x="1128" d="M143 412v579h181v-547q0 -317 221 -317q84 0 147.5 49t89.5 117q16 39 17 92v606h180v-719q0 -168 8 -272h-160l-10 162h-4q-41 -74 -125 -129.5t-203 -55.5q-63 0 -119.5 20.5t-108.5 67t-83 135.5t-31 212zM287 1419h196l181 -293h-127z" />
<glyph unicode="&#xfa;" horiz-adv-x="1128" d="M143 412v579h181v-547q0 -317 221 -317q84 0 147.5 49t89.5 117q16 39 17 92v606h180v-719q0 -168 8 -272h-160l-10 162h-4q-41 -74 -125 -129.5t-203 -55.5q-63 0 -119.5 20.5t-108.5 67t-83 135.5t-31 212zM477 1126l180 293h197l-250 -293h-127z" />
<glyph unicode="&#xfb;" horiz-adv-x="1128" d="M143 412v579h181v-547q0 -317 221 -317q84 0 147.5 49t89.5 117q16 39 17 92v606h180v-719q0 -168 8 -272h-160l-10 162h-4q-41 -74 -125 -129.5t-203 -55.5q-63 0 -119.5 20.5t-108.5 67t-83 135.5t-31 212zM307 1126l193 293h125l196 -293h-137l-119 193h-4l-119 -193 h-135z" />
<glyph unicode="&#xfc;" horiz-adv-x="1128" d="M143 412v579h181v-547q0 -317 221 -317q84 0 147.5 49t89.5 117q16 39 17 92v606h180v-719q0 -168 8 -272h-160l-10 162h-4q-41 -74 -125 -129.5t-203 -55.5q-63 0 -119.5 20.5t-108.5 67t-83 135.5t-31 212zM279 1272q0 43 29.5 73.5t74.5 30.5q41 0 69.5 -29.5 t28.5 -74.5q0 -43 -28.5 -74t-73.5 -31q-43 0 -71.5 31t-28.5 74zM657 1272q0 43 30 73.5t73 30.5t71.5 -29.5t28.5 -74.5q0 -43 -28.5 -74t-73.5 -31q-43 0 -72 31t-29 74z" />
<glyph unicode="&#xfd;" horiz-adv-x="964" d="M18 991h197l215 -585q37 -96 66 -203h4q2 6 25.5 85t37.5 122l197 581h190l-270 -706q-100 -262 -175 -401.5t-165 -219.5q-113 -94 -221 -115l-45 150q86 27 157 88q92 72 152 201q14 33 14 43q0 16 -14 47zM406 1126l178 293h198l-250 -293h-126z" />
<glyph unicode="&#xfe;" horiz-adv-x="1165" d="M150 -406v1776h178v-536h4q111 178 338 178q178 2 299 -138.5t121 -365.5q0 -256 -134.5 -393.5t-318.5 -137.5q-205 0 -305 156h-4v-539h-178zM328 391q0 -53 18 -90q31 -84 102.5 -133t161.5 -49q135 0 216 104.5t81 280.5q0 154 -78.5 259t-214.5 105 q-88 0 -161.5 -53t-104.5 -141q-20 -57 -20 -101v-182z" />
<glyph unicode="&#xff;" horiz-adv-x="964" d="M18 991h197l215 -585q37 -96 66 -203h4q2 6 25.5 85t37.5 122l197 581h190l-270 -706q-100 -262 -175 -401.5t-165 -219.5q-113 -94 -221 -115l-45 150q86 27 157 88q92 72 152 201q14 33 14 43q0 16 -14 47zM215 1272q0 43 29.5 73.5t74.5 30.5q41 0 70 -29.5t29 -74.5 q0 -43 -29 -74t-74 -31q-43 0 -71.5 31t-28.5 74zM594 1272q0 43 29.5 73.5t72.5 30.5t72 -29.5t29 -74.5q0 -43 -29 -74t-74 -31q-43 0 -71.5 31t-28.5 74z" />
<glyph unicode="&#x100;" horiz-adv-x="1253" d="M51 0l471 1380h213l471 -1380h-190l-148 434h-489l-143 -434h-185zM379 1501v113h491v-113h-491zM416 573h418l-138 398q-29 84 -71 252h-4q-47 -184 -70 -250z" />
<glyph unicode="&#x101;" horiz-adv-x="987" d="M72 262q0 180 154.5 275.5t441.5 93.5v20q0 37 -7.5 71t-29 73t-69.5 61.5t-120 22.5q-152 0 -260 -74l-41 121q137 86 328 86q207 0 292 -115t85 -289v-370q0 -143 14 -238h-162l-14 125h-6q-45 -63 -124 -105.5t-179 -42.5q-143 0 -223 84t-80 201zM252 283 q0 -84 48 -128t120 -44q92 0 155.5 48t88.5 117q8 27 8 58v172q-420 8 -420 -223zM264 1200v117h461v-117h-461z" />
<glyph unicode="&#x102;" horiz-adv-x="1253" d="M51 0l471 1380h213l471 -1380h-190l-148 434h-489l-143 -434h-185zM371 1673h106q23 -100 148 -100q131 0 149 100h105q-4 -96 -67.5 -156.5t-188.5 -60.5t-186.5 59.5t-65.5 157.5zM416 573h418l-138 398q-29 84 -71 252h-4q-47 -184 -70 -250z" />
<glyph unicode="&#x103;" horiz-adv-x="987" d="M72 262q0 180 154.5 275.5t441.5 93.5v20q0 37 -7.5 71t-29 73t-69.5 61.5t-120 22.5q-152 0 -260 -74l-41 121q137 86 328 86q207 0 292 -115t85 -289v-370q0 -143 14 -238h-162l-14 125h-6q-45 -63 -124 -105.5t-179 -42.5q-143 0 -223 84t-80 201zM240 1397h106 q10 -63 48 -102.5t98 -39.5q70 0 106.5 41t42.5 101h107q0 -115 -70 -185.5t-184 -70.5q-127 0 -190.5 75t-63.5 181zM252 283q0 -84 48 -128t120 -44q92 0 155.5 48t88.5 117q8 27 8 58v172q-420 8 -420 -223z" />
<glyph unicode="&#x104;" horiz-adv-x="1253" d="M51 0l471 1380h213l473 -1380l-75 -4q-109 -109 -109 -191q0 -49 29.5 -77.5t74.5 -28.5q51 0 93 20l28 -92q-66 -49 -164 -49q-88 0 -140 46t-52 132q0 111 121 252l-146 426h-489l-141 -434h-187zM416 573h418l-138 398q-29 84 -71 252h-4q-47 -184 -70 -250z" />
<glyph unicode="&#x105;" horiz-adv-x="987" d="M72 262q0 180 154.5 275.5t441.5 93.5v20q0 37 -7.5 71t-29 73t-69.5 61.5t-120 22.5q-152 0 -260 -74l-41 121q137 86 328 86q207 0 292 -115t85 -289v-370q0 -150 16 -238h-51q-80 -106 -80 -197q0 -102 98 -102q49 0 95 20l28 -94q-70 -49 -170 -49q-80 0 -131 46 t-51 128q0 109 98 254l-14 119h-6q-45 -63 -124 -105.5t-179 -42.5q-143 0 -223 84t-80 201zM252 283q0 -84 48 -128t120 -44q92 0 155.5 48t88.5 117q8 25 8 58v172q-420 8 -420 -223z" />
<glyph unicode="&#x106;" horiz-adv-x="1187" d="M74 678q0 326 199.5 525.5t521.5 199.5q209 0 327 -62l-45 -145q-115 57 -276 57q-246 0 -392.5 -150.5t-146.5 -418.5q0 -256 140.5 -405.5t388.5 -149.5q174 0 292 57l35 -143q-127 -66 -364 -66q-301 0 -490.5 184.5t-189.5 516.5zM629 1458l190 240h217l-262 -240 h-145z" />
<glyph unicode="&#x107;" horiz-adv-x="917" d="M78 483q0 231 146.5 380t385.5 149q152 0 250 -54l-41 -137q-90 47 -209 47q-164 0 -257 -107.5t-93 -266.5q0 -170 97.5 -270.5t246.5 -100.5q115 0 221 47l31 -135q-121 -57 -285 -58q-223 0 -358 139.5t-135 366.5zM438 1126l180 293h197l-250 -293h-127z" />
<glyph unicode="&#x108;" horiz-adv-x="1187" d="M74 678q0 326 199.5 525.5t521.5 199.5q209 0 327 -62l-45 -145q-115 57 -276 57q-246 0 -392.5 -150.5t-146.5 -418.5q0 -256 140.5 -405.5t388.5 -149.5q174 0 292 57l35 -143q-127 -66 -364 -66q-301 0 -490.5 184.5t-189.5 516.5zM434 1462l209 234h137l215 -234 h-151l-129 142h-4l-131 -142h-146z" />
<glyph unicode="&#x109;" horiz-adv-x="917" d="M78 483q0 231 146.5 380t385.5 149q152 0 250 -54l-41 -137q-90 47 -209 47q-164 0 -257 -107.5t-93 -266.5q0 -170 97.5 -270.5t246.5 -100.5q115 0 221 47l31 -135q-121 -57 -285 -58q-223 0 -358 139.5t-135 366.5zM276 1126l193 293h125l197 -293h-138l-121 193h-4 l-116 -193h-136z" />
<glyph unicode="&#x10a;" horiz-adv-x="1187" d="M74 678q0 326 199.5 525.5t521.5 199.5q209 0 327 -62l-45 -145q-115 57 -276 57q-246 0 -392.5 -150.5t-146.5 -418.5q0 -256 140.5 -405.5t388.5 -149.5q174 0 292 57l35 -143q-127 -66 -364 -66q-301 0 -490.5 184.5t-189.5 516.5zM612 1577q0 41 30 71.5t73 30.5 q41 0 69.5 -30.5t28.5 -71.5q0 -43 -28.5 -73.5t-71.5 -30.5t-72 30.5t-29 73.5z" />
<glyph unicode="&#x10b;" horiz-adv-x="917" d="M78 483q0 231 146.5 380t385.5 149q152 0 250 -54l-41 -137q-90 47 -209 47q-164 0 -257 -107.5t-93 -266.5q0 -170 97.5 -270.5t246.5 -100.5q115 0 221 47l31 -135q-121 -57 -285 -58q-223 0 -358 139.5t-135 366.5zM438 1272q0 45 31 75.5t74 30.5t71.5 -30.5 t28.5 -75.5q0 -43 -28.5 -74t-73.5 -31q-43 0 -73 31t-30 74z" />
<glyph unicode="&#x10c;" horiz-adv-x="1187" d="M74 678q0 326 199.5 525.5t521.5 199.5q209 0 327 -62l-45 -145q-115 57 -276 57q-246 0 -392.5 -150.5t-146.5 -418.5q0 -256 140.5 -405.5t388.5 -149.5q174 0 292 57l35 -143q-127 -66 -364 -66q-301 0 -490.5 184.5t-189.5 516.5zM440 1694h152l131 -142h4l129 142 h145l-208 -234h-138z" />
<glyph unicode="&#x10d;" horiz-adv-x="917" d="M78 483q0 231 146.5 380t385.5 149q152 0 250 -54l-41 -137q-90 47 -209 47q-164 0 -257 -107.5t-93 -266.5q0 -170 97.5 -270.5t246.5 -100.5q115 0 221 47l31 -135q-121 -57 -285 -58q-223 0 -358 139.5t-135 366.5zM276 1419h138l121 -194h4l120 194h136l-193 -293 h-129z" />
<glyph unicode="&#x10e;" horiz-adv-x="1363" d="M156 4v1356q180 31 379 31q371 0 559 -172q197 -178 196 -496q0 -338 -198 -537q-203 -199 -613 -198q-180 0 -323 16zM334 139q59 -8 180 -8q285 0 436.5 152.5t151.5 433.5q2 250 -140.5 391t-418.5 141q-125 0 -209 -18v-1092zM348 1692h152l131 -142h4l129 142h145 l-209 -234h-137z" />
<glyph unicode="&#x10f;" horiz-adv-x="1175" d="M78 481q-2 240 128 385.5t316 145.5q109 0 185.5 -43t113.5 -107h4v592h179v-1198q0 -121 8 -256h-160l-8 172h-6q-41 -86 -129 -140.5t-205 -54.5q-182 0 -304 140.5t-122 363.5zM260 489q0 -158 77 -262t216 -104q92 0 166 58.5t98 156.5q8 33 8 78v172q0 45 -8 76 q-20 88 -91 147t-169 59q-137 0 -217 -107.5t-80 -273.5zM1096 1128q74 84 73 183q0 78 -63 133l129 29q29 -18 51.5 -59.5t22.5 -90.5q0 -145 -138 -256z" />
<glyph unicode="&#x110;" horiz-adv-x="1374" d="M-2 629v143h168v594q180 31 379 31q375 0 557 -172q197 -174 196 -502q0 -336 -198 -539q-203 -199 -611 -198q-166 0 -323 14v629h-168zM344 137q59 -8 178 -8q287 0 437.5 152.5t150.5 439.5q2 254 -139.5 394t-417.5 140q-125 0 -209 -18v-465h369v-143h-369v-492z " />
<glyph unicode="&#x111;" horiz-adv-x="1155" d="M78 481q-2 240 128 385.5t316 145.5q109 0 185.5 -43t113.5 -107h4v268h-403v113h403v211h179v-211h159v-113h-159v-874q0 -121 8 -256h-160l-8 172h-6q-41 -86 -129 -140.5t-205 -54.5q-182 0 -304 140.5t-122 363.5zM260 489q0 -158 77 -262t216 -104q92 0 166 58.5 t98 156.5q8 33 8 78v172q0 45 -8 76q-20 88 -91 147t-169 59q-137 0 -217 -107.5t-80 -273.5z" />
<glyph unicode="&#x112;" horiz-adv-x="1007" d="M154 0v1380h747v-149h-567v-436h534v-148h-534v-497h598v-150h-778zM285 1501v113h491v-113h-491z" />
<glyph unicode="&#x113;" horiz-adv-x="1026" d="M78 479q0 229 127 381t338 152q115 0 199.5 -46t127.5 -120t62.5 -148.5t19.5 -150.5q0 -53 -6 -84h-696q2 -174 97 -259t243 -85q158 0 274 51l33 -129q-141 -63 -332 -64q-225 0 -356 137.5t-131 364.5zM252 592h526q2 109 -56 200t-194 91q-125 0 -194.5 -89 t-81.5 -202zM289 1200v117h461v-117h-461z" />
<glyph unicode="&#x114;" horiz-adv-x="1007" d="M154 0v1380h747v-149h-567v-436h534v-148h-534v-497h598v-150h-778zM266 1690h107q23 -100 147 -101q131 0 150 101h104q-4 -96 -67.5 -156.5t-188.5 -60.5t-186.5 59.5t-65.5 157.5z" />
<glyph unicode="&#x115;" horiz-adv-x="1026" d="M78 479q0 229 127 381t338 152q115 0 199.5 -46t127.5 -120t62.5 -148.5t19.5 -150.5q0 -53 -6 -84h-696q2 -174 97 -259t243 -85q158 0 274 51l33 -129q-141 -63 -332 -64q-225 0 -356 137.5t-131 364.5zM252 592h526q2 109 -56 200t-194 91q-125 0 -194.5 -89 t-81.5 -202zM264 1397h107q10 -63 48 -102.5t97 -39.5q70 0 106.5 41t43.5 101h106q0 -115 -69.5 -185.5t-184.5 -70.5q-127 0 -190.5 75t-63.5 181z" />
<glyph unicode="&#x116;" horiz-adv-x="1007" d="M154 0v1380h747v-149h-567v-436h534v-148h-534v-497h598v-150h-778zM412 1581q0 41 29.5 71.5t72.5 30.5q41 0 69.5 -30.5t28.5 -71.5q0 -43 -28.5 -73.5t-71.5 -30.5t-71.5 30.5t-28.5 73.5z" />
<glyph unicode="&#x117;" horiz-adv-x="1026" d="M78 479q0 229 127 381t338 152q115 0 199.5 -46t127.5 -120t62.5 -148.5t19.5 -150.5q0 -53 -6 -84h-696q2 -174 97 -259t243 -85q158 0 274 51l33 -129q-141 -63 -332 -64q-225 0 -356 137.5t-131 364.5zM252 592h526q2 109 -56 200t-194 91q-125 0 -194.5 -89 t-81.5 -202zM418 1272q0 45 30.5 75.5t73.5 30.5t72 -30.5t29 -75.5q0 -43 -29 -74t-74 -31q-43 0 -72.5 31t-29.5 74z" />
<glyph unicode="&#x118;" horiz-adv-x="1007" d="M154 0v1380h747v-149h-567v-436h534v-148h-534v-497h598v-150q-4 0 -15.5 -1t-17.5 -1q-70 -43 -119 -102.5t-49 -112.5q0 -39 25.5 -60.5t66.5 -21.5q49 0 90 16l29 -96q-70 -43 -166 -43q-88 0 -138 43t-50 123q0 76 50 144.5t116 111.5h-600z" />
<glyph unicode="&#x119;" horiz-adv-x="1026" d="M78 479q0 229 127 381t338 152q115 0 199.5 -46t127.5 -120t62.5 -148.5t19.5 -150.5q0 -55 -6 -84h-696q2 -174 97 -259t243 -85q154 0 274 51l31 -129q-2 -2 -92 -35q-68 -29 -131.5 -94.5t-63.5 -124.5q0 -41 24.5 -63.5t59.5 -22.5q55 0 96 20l29 -92 q-68 -49 -166 -49q-84 0 -133 42t-49 118q0 70 45 134.5t102 102.5v3q-8 0 -26.5 -1.5t-28.5 -1.5q-223 2 -353 139.5t-130 362.5zM254 592h524q0 47 -10 94t-36.5 93t-78 75t-123.5 29q-125 0 -194.5 -89t-81.5 -202z" />
<glyph unicode="&#x11a;" horiz-adv-x="1007" d="M154 0v1380h747v-149h-567v-436h534v-148h-534v-497h598v-150h-778zM244 1688h151l131 -142h4l129 142h146l-209 -234h-137z" />
<glyph unicode="&#x11b;" horiz-adv-x="1026" d="M78 479q0 229 127 381t338 152q115 0 199.5 -46t127.5 -120t62.5 -148.5t19.5 -150.5q0 -53 -6 -84h-696q2 -174 97 -259t243 -85q158 0 274 51l33 -129q-141 -63 -332 -64q-225 0 -356 137.5t-131 364.5zM252 592h526q2 109 -56 200t-194 91q-125 0 -194.5 -89 t-81.5 -202zM258 1419h137l121 -194h4l121 194h135l-192 -293h-129z" />
<glyph unicode="&#x11c;" horiz-adv-x="1323" d="M74 682q0 313 202.5 513t544.5 200q215 0 346 -64l-45 -145q-125 59 -305 59q-254 0 -404.5 -148.5t-150.5 -406.5q0 -260 144.5 -408.5t388.5 -148.5q164 0 237 37v412h-278v143h454v-664q-197 -76 -426 -75q-326 0 -516 182q-192 186 -192 514zM459 1460l209 234h137 l215 -234h-152l-129 142h-4l-131 -142h-145z" />
<glyph unicode="&#x11d;" horiz-adv-x="1144" d="M78 487q0 240 133 382.5t315 142.5q215 0 310 -170h4l6 149h160q-8 -92 -9 -270v-576q0 -322 -141 -454q-133 -119 -362 -119q-207 0 -330 82l45 139q121 -80 291 -80q147 0 233 84t86 264v109h-4q-43 -74 -124 -120t-191 -46q-182 0 -302 138t-120 345zM260 498 q0 -154 77 -255.5t216 -101.5q86 0 154.5 49.5t95.5 135.5q14 43 14 96v178q0 51 -10 80q-27 84 -91.5 138t-160.5 54q-131 0 -213 -102t-82 -272zM315 1133l193 292h125l196 -292h-137l-119 192h-4l-118 -192h-136z" />
<glyph unicode="&#x11e;" horiz-adv-x="1323" d="M74 682q0 313 202.5 513t544.5 200q215 0 346 -64l-45 -145q-125 59 -305 59q-254 0 -404.5 -148.5t-150.5 -406.5q0 -260 144.5 -408.5t388.5 -148.5q164 0 237 37v412h-278v143h454v-664q-197 -76 -426 -75q-326 0 -516 182q-192 186 -192 514zM473 1694h107 q23 -100 147 -101q129 0 147 101h105q-4 -96 -67.5 -156.5t-188.5 -60.5q-123 0 -184.5 59.5t-65.5 157.5z" />
<glyph unicode="&#x11f;" horiz-adv-x="1144" d="M78 487q0 240 133 382.5t315 142.5q215 0 310 -170h4l6 149h160q-8 -92 -9 -270v-576q0 -322 -141 -454q-133 -119 -362 -119q-207 0 -330 82l45 139q121 -80 291 -80q147 0 233 84t86 264v109h-4q-43 -74 -124 -120t-191 -46q-182 0 -302 138t-120 345zM260 498 q0 -154 77 -255.5t216 -101.5q86 0 154.5 49.5t95.5 135.5q14 43 14 96v178q0 51 -10 80q-27 84 -91.5 138t-160.5 54q-131 0 -213 -102t-82 -272zM303 1397h107q10 -63 48 -102.5t97 -39.5q70 0 106.5 41t43.5 101h106q0 -115 -69.5 -185.5t-184.5 -70.5q-127 0 -190.5 75 t-63.5 181z" />
<glyph unicode="&#x120;" horiz-adv-x="1323" d="M74 682q0 313 202.5 513t544.5 200q215 0 346 -64l-45 -145q-125 59 -305 59q-254 0 -404.5 -148.5t-150.5 -406.5q0 -260 144.5 -408.5t388.5 -148.5q164 0 237 37v412h-278v143h454v-664q-197 -76 -426 -75q-326 0 -516 182q-192 186 -192 514zM639 1577 q0 41 29.5 71.5t72.5 30.5q41 0 70 -30.5t29 -71.5q0 -43 -29 -73.5t-72 -30.5t-71.5 30.5t-28.5 73.5z" />
<glyph unicode="&#x121;" horiz-adv-x="1144" d="M78 487q0 240 133 382.5t315 142.5q215 0 310 -170h4l6 149h160q-8 -92 -9 -270v-576q0 -322 -141 -454q-133 -119 -362 -119q-207 0 -330 82l45 139q121 -80 291 -80q147 0 233 84t86 264v109h-4q-43 -74 -124 -120t-191 -46q-182 0 -302 138t-120 345zM260 498 q0 -154 77 -255.5t216 -101.5q86 0 154.5 49.5t95.5 135.5q14 43 14 96v178q0 51 -10 80q-27 84 -91.5 138t-160.5 54q-131 0 -213 -102t-82 -272zM467 1280q0 43 30.5 73.5t73.5 30.5t72 -30.5t29 -73.5q0 -45 -29 -75.5t-74 -30.5q-43 0 -72.5 31.5t-29.5 74.5z" />
<glyph unicode="&#x122;" horiz-adv-x="1323" d="M74 682q0 313 202.5 513t544.5 200q215 0 346 -64l-45 -145q-125 59 -305 59q-254 0 -404.5 -148.5t-150.5 -406.5q0 -260 144.5 -408.5t388.5 -148.5q164 0 237 37v412h-278v143h454v-664q-197 -76 -426 -75q-326 0 -516 182q-192 186 -192 514zM575 -371 q154 25 154 133q0 68 -70 125l134 29q82 -53 81 -152q0 -104 -77.5 -158.5t-186.5 -60.5z" />
<glyph unicode="&#x123;" horiz-adv-x="1144" d="M78 487q0 240 133 382.5t315 142.5q215 0 310 -170h4l6 149h160q-8 -92 -9 -270v-576q0 -322 -141 -454q-133 -119 -362 -119q-207 0 -330 82l45 139q121 -80 291 -80q147 0 233 84t86 264v109h-4q-43 -74 -124 -120t-191 -46q-182 0 -302 138t-120 345zM260 498 q0 -154 77 -255.5t216 -101.5q86 0 154.5 49.5t95.5 135.5q14 43 14 96v178q0 51 -10 80q-27 84 -91.5 138t-160.5 54q-131 0 -213 -102t-82 -272zM428 1241q0 100 78 152.5t188 58.5l33 -76q-160 -23 -160 -133q0 -68 72 -121l-131 -26q-33 20 -56.5 59t-23.5 86z" />
<glyph unicode="&#x124;" horiz-adv-x="1335" d="M154 0v1380h180v-577h667v577h181v-1380h-181v647h-667v-647h-180zM389 1454l209 234h137l215 -234h-151l-129 141h-4l-131 -141h-146z" />
<glyph unicode="&#x125;" horiz-adv-x="1136" d="M-33 1493l209 233h137l215 -233h-151l-129 141h-4l-131 -141h-146zM150 0v1454h180v-620h4q47 84 129 129q86 49 184 49q43 0 87 -11.5t92 -40t84 -74.5t59.5 -122t23.5 -174v-590h-180v569q0 131 -55.5 212t-173.5 81q-84 0 -149.5 -51t-92.5 -127q-12 -33 -12 -86v-598 h-180z" />
<glyph unicode="&#x126;" horiz-adv-x="1345" d="M43 981v119h117v280h180v-280h666v280h180v-280h117v-119h-117v-981h-180v616h-666v-616h-180v981h-117zM340 772h666v209h-666v-209z" />
<glyph unicode="&#x127;" horiz-adv-x="1136" d="M-8 1130v113h158v211h180v-211h397v-113h-397v-296h4q47 84 129 129q86 49 184 49q43 0 87 -11.5t92 -40t84 -74.5t59.5 -122t23.5 -174v-590h-180v569q0 131 -55.5 212t-173.5 81q-84 0 -149.5 -51t-92.5 -127q-12 -33 -12 -86v-598h-180v1130h-158z" />
<glyph unicode="&#x128;" horiz-adv-x="489" d="M-8 1464q-2 94 36 151.5t103 57.5q43 0 121 -41q66 -37 98 -37q25 0 38 16.5t18 63.5h94q4 -199 -138 -198q-47 0 -124 39q-74 39 -97 38q-43 0 -53 -90h-96zM154 0v1380h180v-1380h-180z" />
<glyph unicode="&#x129;" horiz-adv-x="479" d="M-12 1161q-2 98 34.5 155.5t104.5 57.5q41 0 127 -45q61 -35 88 -35q49 0 55 86h97q4 -207 -140 -206q-47 0 -127 45q-63 35 -88 34q-47 0 -53 -92h-98zM150 0v991h180v-991h-180z" />
<glyph unicode="&#x12a;" horiz-adv-x="489" d="M0 1501v113h492v-113h-492zM154 0v1380h180v-1380h-180z" />
<glyph unicode="&#x12b;" horiz-adv-x="479" d="M10 1200v117h461v-117h-461zM150 0v991h180v-991h-180z" />
<glyph unicode="&#x12c;" horiz-adv-x="489" d="M-8 1686h106q23 -100 148 -101q129 0 147 101h105q-4 -96 -67.5 -157t-188.5 -61q-123 0 -184.5 60t-65.5 158zM154 0v1380h180v-1380h-180z" />
<glyph unicode="&#x12d;" horiz-adv-x="479" d="M-8 1397h106q10 -63 48 -102.5t98 -39.5q70 0 106.5 41t42.5 101h107q0 -115 -70 -185.5t-184 -70.5q-127 0 -190.5 75t-63.5 181zM150 0v991h180v-991h-180z" />
<glyph unicode="&#x12e;" horiz-adv-x="489" d="M57 -252q0 98 97 252v1380h180v-1380h-62q-84 -117 -84 -201q0 -51 29 -78.5t76 -27.5q51 0 92 18l29 -94q-66 -47 -166 -47q-86 0 -138.5 46t-52.5 132z" />
<glyph unicode="&#x12f;" horiz-adv-x="479" d="M51 -252q0 104 99 252v991h180v-991h-64q-84 -117 -84 -201q0 -51 29 -78.5t76 -27.5q51 0 92 18l29 -94q-66 -47 -166 -47q-86 0 -138.5 46t-52.5 132zM125 1282q0 49 32.5 82t82 33t81 -33t31.5 -82q0 -47 -31.5 -80t-84.5 -33q-49 0 -80 33t-31 80z" />
<glyph unicode="&#x130;" horiz-adv-x="489" d="M145 1581q0 41 30 71.5t73 30.5q41 0 69.5 -30.5t28.5 -71.5q0 -43 -28.5 -73.5t-71.5 -30.5t-72 30.5t-29 73.5zM154 0v1380h180v-1380h-180z" />
<glyph unicode="&#x131;" horiz-adv-x="479" d="M150 0v991h180v-991h-180z" />
<glyph unicode="&#x132;" horiz-adv-x="1247" d="M154 0v1380h180v-1380h-180zM498 10l26 146q68 -27 152 -27q129 0 190.5 75t61.5 269v907h180v-923q0 -479 -418 -480q-112 0 -192 33z" />
<glyph unicode="&#x133;" horiz-adv-x="976" d="M127 1270q0 47 31.5 79.5t81 32.5t80 -31.5t30.5 -80.5q0 -47 -30.5 -79t-83.5 -32q-49 0 -79 32t-30 79zM150 0v991h180v-991h-180zM385 -291q137 10 197 76q39 45 54 123t15 250v833h180v-903q0 -287 -118 -407q-55 -55 -141.5 -84t-168.5 -29zM629 1270 q0 47 31.5 79.5t81 32.5t80 -32.5t30.5 -79.5t-30.5 -79t-84.5 -32q-47 0 -77.5 33t-30.5 78z" />
<glyph unicode="&#x134;" horiz-adv-x="757" d="M8 10l25 146q68 -27 151 -27q127 0 189.5 75t62.5 267v909h180v-923q0 -479 -417 -480q-115 0 -191 33zM240 1454l209 234h137l215 -234h-152l-129 141h-4l-131 -141h-145z" />
<glyph unicode="&#x135;" horiz-adv-x="497" d="M-94 -291q137 10 196 78q39 43 54.5 121t15.5 250v833h180v-903q0 -287 -119 -407q-55 -55 -141 -84t-166 -29zM-8 1112l192 293h125l197 -293h-137l-119 193h-4l-119 -193h-135z" />
<glyph unicode="&#x136;" horiz-adv-x="1110" d="M156 0v1380h178v-665h6q47 68 109 147l421 518h222l-500 -585l538 -795h-210l-453 678l-133 -152v-526h-178zM406 -367q154 25 153 134q0 68 -70 124l134 29q82 -53 82 -151q0 -104 -78 -158.5t-187 -61.5z" />
<glyph unicode="&#x137;" horiz-adv-x="960" d="M150 0v1454h178v-917h4q41 57 86 112l293 342h215l-381 -407l436 -584h-221l-340 475l-92 -102v-373h-178zM328 -371q154 25 153 133q0 72 -69 125l133 29q82 -53 82 -152q0 -104 -78 -158.5t-187 -60.5z" />
<glyph unicode="&#x138;" horiz-adv-x="960" d="M150 0v991h178v-454h4q41 57 86 112l293 342h215l-381 -407l436 -584h-221l-340 475l-92 -102v-373h-178z" />
<glyph unicode="&#x139;" horiz-adv-x="966" d="M154 0v1380h180v-1230h590v-150h-770zM176 1454l191 240h217l-262 -240h-146z" />
<glyph unicode="&#x13a;" horiz-adv-x="483" d="M125 1513l190 240h217l-262 -240h-145zM150 0v1454h180v-1454h-180z" />
<glyph unicode="&#x13b;" horiz-adv-x="966" d="M154 0v1380h180v-1230h590v-150h-770zM348 -371q154 25 154 133q0 68 -70 125l133 29q82 -53 82 -152q0 -104 -77.5 -158.5t-186.5 -60.5z" />
<glyph unicode="&#x13c;" horiz-adv-x="483" d="M72 -371q154 25 153 133q0 72 -69 125l133 29q82 -53 82 -152q0 -104 -78 -158.5t-187 -60.5zM150 0v1454h180v-1454h-180z" />
<glyph unicode="&#x13d;" horiz-adv-x="966" d="M154 0v1380h180v-1230h590v-150h-770zM498 1116q154 25 153 133q0 68 -69 125l133 29q82 -53 82 -152q0 -104 -78 -158.5t-187 -60.5z" />
<glyph unicode="&#x13e;" horiz-adv-x="499" d="M150 0v1454h180v-1454h-180zM412 1128q72 90 71 183q0 76 -61 133l127 29q31 -18 52.5 -60.5t21.5 -93.5q0 -25 -3.5 -47.5t-10.5 -42t-14 -35.5t-18.5 -32.5t-18.5 -27t-20.5 -22.5t-18.5 -17t-17 -16l-13 -10z" />
<glyph unicode="&#x13f;" horiz-adv-x="966" d="M154 0v1380h180v-1230h590v-150h-770zM596 762q0 41 29.5 71.5t72.5 30.5q41 0 70 -30.5t29 -71.5q0 -43 -29 -74t-72 -31t-71.5 31t-28.5 74z" />
<glyph unicode="&#x140;" horiz-adv-x="557" d="M150 0v1454h180v-1454h-180zM420 801q0 41 28.5 71.5t69.5 30.5q39 0 66.5 -29.5t27.5 -72.5t-26.5 -73t-69.5 -30q-41 0 -68.5 30t-27.5 73z" />
<glyph unicode="&#x141;" horiz-adv-x="974" d="M-10 426v137l172 125v692h180v-569l274 199v-140l-274 -198v-522h590v-150h-770v551z" />
<glyph unicode="&#x142;" horiz-adv-x="495" d="M18 471v141l140 119v723h180v-584l145 125v-143l-145 -125v-727h-180v590z" />
<glyph unicode="&#x143;" horiz-adv-x="1347" d="M156 0v1380h196l441 -698q160 -258 245 -449l6 3q-20 231 -20 567v577h168v-1380h-180l-439 700q-172 272 -256 461l-6 -2q12 -209 13 -569v-590h-168zM569 1454l189 240h219l-262 -240h-146z" />
<glyph unicode="&#x144;" horiz-adv-x="1136" d="M141 991h160l10 -164h4q41 78 127 131.5t201 53.5q57 0 113.5 -19.5t112 -63.5t90 -131t34.5 -208v-590h-180v571q0 131 -55.5 212t-173.5 81q-84 0 -149.5 -53t-92.5 -131q-12 -33 -12 -84v-596h-180v723q-1 159 -9 268zM471 1126l180 293h197l-250 -293h-127z" />
<glyph unicode="&#x145;" horiz-adv-x="1347" d="M156 0v1380h196l441 -698q160 -258 245 -449l6 3q-20 231 -20 567v577h168v-1380h-180l-439 700q-172 272 -256 461l-6 -2q12 -209 13 -569v-590h-168zM518 -369q154 25 154 133q0 68 -70 125l133 29q82 -53 82 -151q0 -104 -77.5 -158.5t-186.5 -61.5z" />
<glyph unicode="&#x146;" horiz-adv-x="1136" d="M141 991h160l10 -164h4q41 78 127 131.5t201 53.5q57 0 113.5 -19.5t112 -63.5t90 -131t34.5 -208v-590h-180v571q0 131 -55.5 212t-173.5 81q-84 0 -149.5 -53t-92.5 -131q-12 -33 -12 -84v-596h-180v723q-1 159 -9 268zM418 -367q154 25 153 134q0 72 -69 124l133 29 q82 -53 82 -151q0 -104 -78 -158.5t-186 -61.5z" />
<glyph unicode="&#x147;" horiz-adv-x="1347" d="M156 0v1380h196l441 -698q160 -258 245 -449l6 3q-20 231 -20 567v577h168v-1380h-180l-439 700q-172 272 -256 461l-6 -2q12 -209 13 -569v-590h-168zM395 1677h152l131 -141h4l129 141h145l-211 -233h-135z" />
<glyph unicode="&#x148;" horiz-adv-x="1136" d="M141 991h160l10 -164h4q41 78 127 131.5t201 53.5q57 0 113.5 -19.5t112 -63.5t90 -131t34.5 -208v-590h-180v571q0 131 -55.5 212t-173.5 81q-84 0 -149.5 -53t-92.5 -131q-12 -33 -12 -84v-596h-180v723q-1 159 -9 268zM309 1419h137l121 -194h4l121 194h135l-192 -293 h-129z" />
<glyph unicode="&#x149;" horiz-adv-x="1136" d="M37 1157q76 84 76 168q0 68 -64 121l131 35q29 -18 50.5 -58.5t21.5 -89.5q0 -133 -137 -235zM141 991h160l10 -164h4q41 78 127 131.5t201 53.5q57 0 113.5 -19.5t112 -63.5t90 -131t34.5 -208v-590h-180v571q0 131 -55.5 212t-173.5 81q-84 0 -149.5 -53t-92.5 -131 q-12 -33 -12 -84v-596h-180v723q-1 159 -9 268z" />
<glyph unicode="&#x14a;" horiz-adv-x="1347" d="M156 0v1380h196l441 -698q160 -258 245 -449l6 3q-20 231 -20 567v577h168v-1302q0 -426 -395 -486l-37 140q123 25 186.5 86t73.5 170l-447 712q-172 272 -256 461l-6 -2q12 -209 13 -569v-590h-168z" />
<glyph unicode="&#x14b;" horiz-adv-x="1136" d="M141 991h160l10 -164h4q41 78 127 131.5t201 53.5q57 0 113.5 -19.5t112 -63.5t90 -131t34.5 -208v-469q0 -223 -106.5 -343t-282.5 -145l-35 144q244 49 244 327v467q0 131 -55.5 212t-173.5 81q-84 0 -149.5 -53t-92.5 -131q-12 -33 -12 -84v-596h-180v723 q-1 159 -9 268z" />
<glyph unicode="&#x14c;" horiz-adv-x="1411" d="M74 680q0 326 179 525.5t460 199.5q283 0 452.5 -194.5t169.5 -505.5q0 -342 -182 -535t-459 -193q-274 0 -447 195t-173 508zM262 684q0 -233 120 -397t323 -164q205 0 323.5 164t118.5 409q0 227 -116 395.5t-324 168.5q-211 0 -328 -167t-117 -409zM461 1513v113h491 v-113h-491z" />
<glyph unicode="&#x14d;" horiz-adv-x="1124" d="M78 487q0 240 140 382.5t351 142.5q213 0 345.5 -141.5t132.5 -366.5q0 -256 -147.5 -391.5t-346.5 -135.5q-205 0 -340 140.5t-135 369.5zM262 494q0 -164 84 -272.5t215 -108.5q129 0 215 109.5t86 275.5q0 145 -74.5 262t-222 117t-225.5 -113.5t-78 -269.5zM332 1200 v117h461v-117h-461z" />
<glyph unicode="&#x14e;" horiz-adv-x="1411" d="M74 680q0 326 179 525.5t460 199.5q283 0 452.5 -194.5t169.5 -505.5q0 -342 -182 -535t-459 -193q-274 0 -447 195t-173 508zM262 684q0 -233 120 -397t323 -164q205 0 323.5 164t118.5 409q0 227 -116 395.5t-324 168.5q-211 0 -328 -167t-117 -409zM451 1700h106 q23 -100 148 -101q129 0 147 101h104q-4 -96 -67.5 -156.5t-188.5 -60.5q-123 0 -184 59.5t-65 157.5z" />
<glyph unicode="&#x14f;" horiz-adv-x="1124" d="M78 487q0 240 140 382.5t351 142.5q213 0 345.5 -141.5t132.5 -366.5q0 -256 -147.5 -391.5t-346.5 -135.5q-205 0 -340 140.5t-135 369.5zM262 494q0 -164 84 -272.5t215 -108.5q129 0 215 109.5t86 275.5q0 145 -74.5 262t-222 117t-225.5 -113.5t-78 -269.5zM307 1397 h107q10 -63 48 -102.5t97 -39.5q70 0 106.5 41t43.5 101h106q0 -115 -69.5 -185.5t-184.5 -70.5q-127 0 -190.5 75t-63.5 181z" />
<glyph unicode="&#x150;" horiz-adv-x="1411" d="M74 680q0 326 179 525.5t460 199.5q283 0 452.5 -194.5t169.5 -505.5q0 -342 -182 -535t-459 -193q-274 0 -447 195t-173 508zM262 684q0 -233 120 -397t323 -164q205 0 323.5 164t118.5 409q0 227 -116 395.5t-324 168.5q-211 0 -328 -167t-117 -409zM489 1470l164 230 h195l-227 -230h-132zM791 1470l163 230h195l-227 -230h-131z" />
<glyph unicode="&#x151;" horiz-adv-x="1124" d="M78 487q0 240 140 382.5t351 142.5q213 0 345.5 -141.5t132.5 -366.5q0 -256 -147.5 -391.5t-346.5 -135.5q-205 0 -340 140.5t-135 369.5zM262 494q0 -164 84 -272.5t215 -108.5q129 0 215 109.5t86 275.5q0 145 -74.5 262t-222 117t-225.5 -113.5t-78 -269.5zM326 1141 l161 278h177l-226 -278h-112zM621 1141l161 278h176l-225 -278h-112z" />
<glyph unicode="&#x152;" horiz-adv-x="1830" d="M74 680q0 336 188.5 530.5t491.5 194.5q78 0 180 -12.5t131 -12.5h659v-149h-567v-438h535v-148h-535v-495h598v-150h-706q-37 0 -136 -12q-127 -10 -170 -11q-313 0 -491 198t-178 505zM262 688q0 -256 137.5 -410.5t376.5 -154.5q127 0 201 27v1079q-88 31 -219 31 q-227 0 -361.5 -158t-134.5 -414z" />
<glyph unicode="&#x153;" horiz-adv-x="1767" d="M78 489q0 236 135 379.5t340 143.5q127 0 227.5 -62.5t145.5 -173.5h4q53 115 148.5 175.5t213.5 60.5q90 0 163 -32t116 -81t71.5 -112.5t39 -122t10.5 -115.5q0 -47 -4 -84h-674q0 -164 91 -255t238 -91q137 0 265 55l34 -129q-119 -68 -321 -68q-281 0 -393 234h-4 q-53 -115 -157.5 -174.5t-225.5 -59.5q-201 0 -332 140.5t-131 371.5zM262 494q0 -162 83 -271.5t210 -109.5q131 0 211 106.5t80 276.5q0 158 -74 269.5t-219 111.5q-147 0 -219 -116.5t-72 -266.5zM1012 594h508q0 47 -10.5 93t-35 92t-75.5 75t-121 29q-121 0 -188.5 -89 t-77.5 -200z" />
<glyph unicode="&#x154;" horiz-adv-x="1101" d="M156 0v1362q158 29 342 29q274 0 399 -113q109 -98 109 -264q0 -129 -72 -220.5t-186 -129.5v-7q150 -53 200 -278q76 -319 107 -379h-185q-33 57 -90 330q-31 143 -94 203.5t-184 64.5h-168v-598h-178zM334 733h182q141 0 226 72t85 190q0 129 -85 192.5t-232 63.5 q-123 0 -176 -14v-504zM428 1458l190 240h218l-263 -240h-145z" />
<glyph unicode="&#x155;" horiz-adv-x="669" d="M141 991h158l8 -196h6q33 98 109 157.5t168 59.5q16 0 49 -4v-170q-18 4 -61 4q-94 0 -159 -63.5t-83 -166.5q-6 -37 -6 -84v-528h-180v682q-1 186 -9 309zM264 1126l180 293h197l-250 -293h-127z" />
<glyph unicode="&#x156;" horiz-adv-x="1101" d="M156 0v1362q158 29 342 29q274 0 399 -113q109 -98 109 -264q0 -129 -72 -220.5t-186 -129.5v-7q150 -53 200 -278q76 -319 107 -379h-185q-33 57 -90 330q-31 143 -94 203.5t-184 64.5h-168v-598h-178zM334 733h182q141 0 226 72t85 190q0 129 -85 192.5t-232 63.5 q-123 0 -176 -14v-504zM399 -356q154 25 154 133q0 68 -70 125l133 28q82 -53 82 -151q0 -104 -77.5 -158.5t-186.5 -60.5z" />
<glyph unicode="&#x157;" horiz-adv-x="669" d="M88 -371q154 25 154 133q0 72 -70 125l133 29q82 -53 82 -152q0 -104 -78 -158.5t-186 -60.5zM141 991h158l8 -196h6q33 98 109 157.5t168 59.5q16 0 49 -4v-170q-18 4 -61 4q-94 0 -159 -63.5t-83 -166.5q-6 -37 -6 -84v-528h-180v682q-1 186 -9 309z" />
<glyph unicode="&#x158;" horiz-adv-x="1101" d="M156 0v1362q158 29 342 29q274 0 399 -113q109 -98 109 -264q0 -129 -72 -220.5t-186 -129.5v-7q150 -53 200 -278q76 -319 107 -379h-185q-33 57 -90 330q-31 143 -94 203.5t-184 64.5h-168v-598h-178zM258 1694h152l131 -142h4l129 142h145l-209 -234h-137zM334 733 h182q141 0 226 72t85 190q0 129 -85 192.5t-232 63.5q-123 0 -176 -14v-504z" />
<glyph unicode="&#x159;" horiz-adv-x="669" d="M113 1419h137l121 -194h4l121 194h135l-193 -293h-129zM141 991h158l8 -196h6q33 98 109 157.5t168 59.5q16 0 49 -4v-170q-18 4 -61 4q-94 0 -159 -63.5t-83 -166.5q-6 -37 -6 -84v-528h-180v682q-1 186 -9 309z" />
<glyph unicode="&#x15a;" horiz-adv-x="1009" d="M86 68l47 149q141 -90 318 -90q135 0 211.5 64.5t76.5 170.5q0 94 -60.5 157t-199.5 116q-365 133 -364 393q0 164 123.5 269.5t322.5 105.5q188 0 303 -68l-49 -145q-106 66 -260 65q-129 0 -194.5 -62.5t-65.5 -143.5q0 -94 62.5 -151.5t211.5 -115.5 q180 -70 265.5 -164t85.5 -241q0 -170 -124 -285t-358 -115q-98 0 -196.5 26t-155.5 65zM422 1458l188 240h219l-262 -240h-145z" />
<glyph unicode="&#x15b;" horiz-adv-x="811" d="M82 47l43 135q117 -70 240 -69q92 0 141 41t49 106q0 63 -41 103t-141 77q-264 96 -264 281q0 123 94 207t248 84q147 0 241 -62l-43 -131q-94 59 -203 60q-78 0 -120.5 -39t-42.5 -97q0 -59 42 -94t144 -76q131 -49 195.5 -119.5t64.5 -177.5q0 -135 -98.5 -217 t-270.5 -82q-159 0 -278 70zM322 1126l178 293h198l-249 -293h-127z" />
<glyph unicode="&#x15c;" horiz-adv-x="1009" d="M86 68l47 149q141 -90 318 -90q135 0 211.5 64.5t76.5 170.5q0 94 -60.5 157t-199.5 116q-365 133 -364 393q0 164 123.5 269.5t322.5 105.5q188 0 303 -68l-49 -145q-106 66 -260 65q-129 0 -194.5 -62.5t-65.5 -143.5q0 -94 62.5 -151.5t211.5 -115.5 q180 -70 265.5 -164t85.5 -241q0 -170 -124 -285t-358 -115q-98 0 -196.5 26t-155.5 65zM227 1460l211 234h135l215 -234h-151l-129 142h-4l-131 -142h-146z" />
<glyph unicode="&#x15d;" horiz-adv-x="811" d="M82 47l43 135q117 -70 240 -69q92 0 141 41t49 106q0 63 -41 103t-141 77q-264 96 -264 281q0 123 94 207t248 84q147 0 241 -62l-43 -131q-94 59 -203 60q-78 0 -120.5 -39t-42.5 -97q0 -59 42 -94t144 -76q131 -49 195.5 -119.5t64.5 -177.5q0 -135 -98.5 -217 t-270.5 -82q-159 0 -278 70zM154 1126l192 293h125l197 -293h-138l-120 193h-4l-117 -193h-135z" />
<glyph unicode="&#x15e;" horiz-adv-x="1009" d="M86 68l47 149q141 -90 318 -90q135 0 211.5 64.5t76.5 170.5q0 94 -60.5 157t-199.5 116q-365 133 -364 393q0 164 123.5 269.5t322.5 105.5q188 0 303 -68l-49 -145q-106 66 -260 65q-129 0 -194.5 -62.5t-65.5 -143.5q0 -94 62.5 -151.5t211.5 -115.5 q180 -70 265.5 -164t85.5 -241q0 -143 -91.5 -251t-265.5 -138l-57 -90q61 -10 102 -49t41 -95q0 -82 -60.5 -123t-150.5 -41q-86 0 -141 35l29 88q57 -29 112 -28q84 0 84 63q0 70 -157 86l81 143h-14q-90 0 -189.5 26t-156.5 65z" />
<glyph unicode="&#x15f;" horiz-adv-x="811" d="M82 47l43 135q117 -70 240 -69q92 0 141 41t49 106q0 63 -41 103t-141 77q-264 96 -264 281q0 123 94 207t248 84q147 0 241 -62l-43 -129q-98 57 -203 58q-78 0 -120.5 -39t-42.5 -97q0 -59 42 -94t144 -76q131 -49 195.5 -119.5t64.5 -177.5q0 -111 -69.5 -187.5 t-194.5 -98.5l-55 -92q59 -8 101 -46t42 -96q0 -86 -60.5 -126t-154.5 -40q-80 0 -139 35l30 88q53 -29 111 -28q39 0 64.5 15t23.5 48q0 72 -160 86l82 146h-6q-143 -1 -262 67z" />
<glyph unicode="&#x160;" horiz-adv-x="1009" d="M86 68l47 149q141 -90 318 -90q135 0 211.5 64.5t76.5 170.5q0 94 -60.5 157t-199.5 116q-365 133 -364 393q0 164 123.5 269.5t322.5 105.5q188 0 303 -68l-49 -145q-106 66 -260 65q-129 0 -194.5 -62.5t-65.5 -143.5q0 -94 62.5 -151.5t211.5 -115.5 q180 -70 265.5 -164t85.5 -241q0 -170 -124 -285t-358 -115q-98 0 -196.5 26t-155.5 65zM246 1694h151l131 -142h4l130 142h145l-209 -234h-137z" />
<glyph unicode="&#x161;" horiz-adv-x="811" d="M82 47l43 135q117 -70 240 -69q92 0 141 41t49 106q0 63 -41 103t-141 77q-264 96 -264 281q0 123 94 207t248 84q147 0 241 -62l-43 -131q-94 59 -203 60q-78 0 -120.5 -39t-42.5 -97q0 -59 42 -94t144 -76q131 -49 195.5 -119.5t64.5 -177.5q0 -135 -98.5 -217 t-270.5 -82q-159 0 -278 70zM156 1419h137l121 -194h4l121 194h135l-193 -293h-129z" />
<glyph unicode="&#x162;" horiz-adv-x="1017" d="M-2 1229v151h1022v-151h-422v-1229h-180v1229h-420zM334 -371q154 25 153 133q0 68 -69 125l133 29q82 -53 82 -152q0 -104 -78 -158.5t-186 -60.5z" />
<glyph unicode="&#x163;" horiz-adv-x="677" d="M37 854v137h153v185l177 53v-238h258v-137h-258v-535q0 -193 135 -192q63 0 104 12l8 -137q-70 -25 -159 -25q-125 0 -195 76q-70 78 -70 260v541h-153zM215 -381q154 25 154 133q0 72 -70 125l133 29q82 -53 82 -152q0 -104 -78 -158.5t-186 -60.5z" />
<glyph unicode="&#x164;" horiz-adv-x="1017" d="M-2 1229v151h1022v-151h-422v-1229h-180v1229h-420zM227 1688h152l131 -142h4l129 142h145l-208 -234h-138z" />
<glyph unicode="&#x165;" horiz-adv-x="694" d="M37 854v137h153v183l177 55v-238h260v-137h-260v-535q0 -96 31.5 -144t105.5 -48q61 0 104 12l8 -137q-70 -25 -161 -25q-125 0 -195 76q-70 78 -70 260v541h-153zM514 1180q78 55 78 153q0 68 -62 119l132 27q72 -47 71 -142q0 -92 -54 -149.5t-112 -79.5z" />
<glyph unicode="&#x166;" horiz-adv-x="1017" d="M-2 1229v151h1022v-151h-422v-455h254v-119h-254v-655h-180v655h-256v119h256v455h-420z" />
<glyph unicode="&#x167;" horiz-adv-x="677" d="M37 854v137h153v185l177 53v-238h258v-137h-258v-236h200v-110h-200v-197q0 -184 135 -184q63 0 104 12l8 -137q-70 -25 -159 -25q-125 0 -195 76q-70 78 -70 260v195h-135v110h135v236h-153z" />
<glyph unicode="&#x168;" horiz-adv-x="1325" d="M154 567v813h180v-819q0 -221 88 -329.5t233 -108.5q158 0 247 108.5t89 329.5v819h180v-807q0 -303 -142 -449.5t-380 -146.5q-227 0 -361 142.5t-134 447.5zM408 1464q-2 94 35.5 151.5t103.5 57.5q41 0 123 -41q66 -37 98 -37q25 0 38 16.5t17 63.5h95 q4 -199 -138 -198q-45 0 -127 39q-74 39 -96 38q-43 0 -53 -90h-96z" />
<glyph unicode="&#x169;" horiz-adv-x="1128" d="M143 412v579h181v-547q0 -317 221 -317q84 0 147.5 49t89.5 117q16 39 17 92v606h180v-719q0 -168 8 -272h-160l-10 162h-4q-41 -74 -125 -129.5t-203 -55.5q-63 0 -119.5 20.5t-108.5 67t-83 135.5t-31 212zM311 1161q-2 98 35 155.5t105 57.5q39 0 129 -45 q61 -35 86 -35q49 0 55 86h96q4 -207 -139 -206q-47 0 -127 45q-63 35 -88 34q-47 0 -53 -92h-99z" />
<glyph unicode="&#x16a;" horiz-adv-x="1325" d="M154 567v813h180v-819q0 -221 88 -329.5t233 -108.5q158 0 247 108.5t89 329.5v819h180v-807q0 -303 -142 -449.5t-380 -146.5q-227 0 -361 142.5t-134 447.5zM416 1501v113h491v-113h-491z" />
<glyph unicode="&#x16b;" horiz-adv-x="1128" d="M143 412v579h181v-547q0 -317 221 -317q84 0 147.5 49t89.5 117q16 39 17 92v606h180v-719q0 -168 8 -272h-160l-10 162h-4q-41 -74 -125 -129.5t-203 -55.5q-63 0 -119.5 20.5t-108.5 67t-83 135.5t-31 212zM334 1200v117h461v-117h-461z" />
<glyph unicode="&#x16c;" horiz-adv-x="1325" d="M154 567v813h180v-819q0 -221 88 -329.5t233 -108.5q158 0 247 108.5t89 329.5v819h180v-807q0 -303 -142 -449.5t-380 -146.5q-227 0 -361 142.5t-134 447.5zM408 1694h106q23 -100 148 -101q131 0 149 101h104q-4 -96 -67.5 -156.5t-188 -60.5t-186 59.5t-65.5 157.5z " />
<glyph unicode="&#x16d;" horiz-adv-x="1128" d="M143 412v579h181v-547q0 -317 221 -317q84 0 147.5 49t89.5 117q16 39 17 92v606h180v-719q0 -168 8 -272h-160l-10 162h-4q-41 -74 -125 -129.5t-203 -55.5q-63 0 -119.5 20.5t-108.5 67t-83 135.5t-31 212zM309 1397h107q10 -63 48 -102.5t97 -39.5q70 0 107 41t43 101 h106q0 -115 -69.5 -185.5t-184.5 -70.5q-127 0 -190.5 75t-63.5 181z" />
<glyph unicode="&#x16e;" horiz-adv-x="1325" d="M154 567v813h180v-819q0 -221 88 -329.5t233 -108.5q158 0 247 108.5t89 329.5v819h180v-807q0 -303 -142 -449.5t-380 -146.5q-227 0 -361 142.5t-134 447.5zM459 1599q0 80 56 133.5t151 53.5q90 0 145 -53.5t55 -133.5q0 -78 -57 -129t-145 -51q-90 0 -147.5 52 t-57.5 128zM563 1599q0 -41 27.5 -72.5t71 -31.5t71 30.5t27.5 78.5q0 45 -27.5 76.5t-73 31.5t-71 -33t-25.5 -80z" />
<glyph unicode="&#x16f;" horiz-adv-x="1128" d="M143 412v579h181v-547q0 -317 221 -317q84 0 147.5 49t89.5 117q16 39 17 92v606h180v-719q0 -168 8 -272h-160l-10 162h-4q-41 -74 -125 -129.5t-203 -55.5q-63 0 -119.5 20.5t-108.5 67t-83 135.5t-31 212zM356 1286q0 84 58.5 138.5t152.5 54.5q90 0 146.5 -54.5 t56.5 -138.5q0 -80 -58.5 -133t-146.5 -53q-92 0 -150.5 53t-58.5 133zM461 1286q0 -43 28.5 -76.5t73.5 -33.5q47 0 77 32.5t30 79.5q0 49 -30 82t-79 33q-45 0 -72.5 -34t-27.5 -83z" />
<glyph unicode="&#x170;" horiz-adv-x="1325" d="M154 567v813h180v-819q0 -221 88 -329.5t233 -108.5q158 0 247 108.5t89 329.5v819h180v-807q0 -303 -142 -449.5t-380 -146.5q-227 0 -361 142.5t-134 447.5zM416 1464l164 230h194l-227 -230h-131zM717 1464l164 230h194l-227 -230h-131z" />
<glyph unicode="&#x171;" horiz-adv-x="1128" d="M143 412v579h181v-547q0 -317 221 -317q84 0 147.5 49t89.5 117q16 39 17 92v606h180v-719q0 -168 8 -272h-160l-10 162h-4q-41 -74 -125 -129.5t-203 -55.5q-63 0 -119.5 20.5t-108.5 67t-83 135.5t-31 212zM342 1141l162 278h176l-225 -278h-113zM637 1141l162 278h176 l-225 -278h-113z" />
<glyph unicode="&#x172;" horiz-adv-x="1325" d="M154 567v813h180v-819q0 -221 88 -329.5t233 -108.5q160 0 248 108.5t88 329.5v819h180v-807q0 -252 -102 -396t-278 -181q-125 -111 -125 -205q0 -88 92 -88q47 0 92 21l29 -93q-70 -49 -168 -49q-84 0 -134.5 44t-50.5 120q0 106 117 231h-12q-219 6 -348 147.5 t-129 442.5z" />
<glyph unicode="&#x173;" horiz-adv-x="1128" d="M143 412v579h181v-547q0 -317 221 -317q84 0 147.5 49t89.5 117q16 39 17 92v606h180v-719q0 -172 8 -272l-43 6q-84 -117 -84 -201q0 -51 29 -78.5t76 -27.5q51 0 92 18l28 -94q-66 -47 -165 -47q-86 0 -138.5 46t-52.5 132q0 104 98 252l-10 156h-4 q-41 -74 -125 -129.5t-203 -55.5q-63 0 -119.5 20.5t-108.5 67t-83 135.5t-31 212z" />
<glyph unicode="&#x174;" horiz-adv-x="1732" d="M31 1380h188l164 -698q63 -268 102 -477h4q23 139 113 479l184 696h187l168 -700q74 -307 96 -473h4q27 143 111 477l182 696h182l-391 -1380h-186l-174 719q-66 272 -91 450h-4q-31 -186 -106 -450l-197 -719h-186zM590 1454l209 234h137l215 -234h-152l-129 141h-4 l-131 -141h-145z" />
<glyph unicode="&#x175;" horiz-adv-x="1507" d="M37 991h184l133 -504q59 -246 72 -315h6q23 100 88 313l162 506h152l153 -495q55 -180 88 -324h6q20 123 76 322l141 497h179l-320 -991h-164l-151 473q-59 186 -88 326h-4q-29 -141 -91 -328l-159 -471h-164zM496 1126l194 293h123l197 -293h-138l-118 193h-4l-119 -193 h-135z" />
<glyph unicode="&#x176;" horiz-adv-x="1107" d="M25 1380h204l195 -381q113 -231 137 -284h4q25 57 140 284l198 381h201l-461 -792v-588h-180v586zM274 1454l209 234h138l215 -234h-152l-129 141h-4l-131 -141h-146z" />
<glyph unicode="&#x177;" horiz-adv-x="964" d="M18 991h197l215 -585q37 -96 66 -203h4q2 6 25.5 85t37.5 122l197 581h190l-270 -706q-100 -262 -175 -401.5t-165 -219.5q-113 -94 -221 -115l-45 150q86 27 157 88q92 72 152 201q14 33 14 43q0 16 -14 47zM229 1126l193 293h125l196 -293h-137l-119 193h-4l-118 -193 h-136z" />
<glyph unicode="&#x178;" horiz-adv-x="1107" d="M25 1380h204l195 -381q113 -231 137 -284h4q25 57 140 284l198 381h201l-461 -792v-588h-180v586zM283 1567q0 43 28.5 72.5t71.5 29.5t70.5 -29.5t27.5 -72.5q0 -45 -27.5 -75t-72.5 -30q-43 0 -70.5 31t-27.5 74zM662 1567q0 43 29.5 72.5t72.5 29.5t70.5 -29.5 t27.5 -72.5q0 -45 -27.5 -75t-74.5 -30q-43 0 -70.5 31t-27.5 74z" />
<glyph unicode="&#x179;" horiz-adv-x="1132" d="M61 0v104l764 1121v6h-698v149h932v-108l-762 -1116v-6h772v-150h-1008zM475 1454l191 240h217l-262 -240h-146z" />
<glyph unicode="&#x17a;" horiz-adv-x="876" d="M37 0v104l446 584q16 20 131 156v4h-536v143h753v-112l-442 -576q-88 -113 -127 -156v-4h578v-143h-803zM354 1126l178 293h199l-250 -293h-127z" />
<glyph unicode="&#x17b;" horiz-adv-x="1132" d="M61 0v104l764 1121v6h-698v149h932v-108l-762 -1116v-6h772v-150h-1008zM473 1579q0 41 29.5 71.5t72.5 30.5q41 0 70 -30.5t29 -71.5q0 -43 -29 -73.5t-72 -30.5t-71.5 30.5t-28.5 73.5z" />
<glyph unicode="&#x17c;" horiz-adv-x="876" d="M37 0v104l446 584q16 20 131 156v4h-536v143h753v-112l-442 -576q-88 -113 -127 -156v-4h578v-143h-803zM340 1272q0 45 30.5 75.5t73.5 30.5t72 -30.5t29 -75.5q0 -43 -29 -74t-74 -31q-43 0 -72.5 31t-29.5 74z" />
<glyph unicode="&#x17d;" horiz-adv-x="1132" d="M61 0v104l764 1121v6h-698v149h932v-108l-762 -1116v-6h772v-150h-1008zM305 1688h152l131 -142h4l129 142h145l-211 -234h-135z" />
<glyph unicode="&#x17e;" horiz-adv-x="876" d="M37 0v104l446 584q16 20 131 156v4h-536v143h753v-112l-442 -576q-88 -113 -127 -156v-4h578v-143h-803zM205 1419h137l121 -194h4l121 194h135l-193 -293h-129z" />
<glyph unicode="&#x192;" horiz-adv-x="1050" d="M23 -137l32 127q47 -23 115 -23q90 0 134 78t65 244l47 403h-189v131h203l12 95q10 84 34 154.5t67 137t117.5 105.5t173.5 39q90 -2 139 -31l-33 -131q-51 20 -106 20q-98 0 -150.5 -79.5t-67.5 -204.5l-12 -105h246v-131h-262l-49 -418q-27 -217 -107 -331.5 t-250 -114.5q-100 0 -159 35z" />
<glyph unicode="&#x1a0;" horiz-adv-x="1411" d="M74 680q0 326 179 525.5t460 199.5q119 0 215 -37q20 -6 68 -26.5t89 -34t70 -13.5q92 0 92 92q0 68 -35 132l140 26q39 -86 39 -168q0 -90 -54.5 -141t-160.5 -43q160 -180 159 -487q0 -342 -182 -535t-459 -193q-274 0 -447 195t-173 508zM262 684q0 -231 120 -396 t323 -165q205 0 323.5 164t118.5 409q0 227 -116 395.5t-324 168.5q-211 0 -328 -168t-117 -408z" />
<glyph unicode="&#x1a1;" horiz-adv-x="1132" d="M78 487q0 240 140 382.5t351 142.5q80 0 170 -27q16 -4 50 -19.5t65 -24.5t59 -9q80 0 84 82q0 59 -34 119l137 24q35 -70 35 -149q0 -84 -49.5 -132.5t-141.5 -44.5q102 -131 103 -327q0 -256 -147.5 -391.5t-346.5 -135.5q-205 0 -340 140.5t-135 369.5zM262 494 q0 -164 84 -272.5t215 -108.5q129 0 215 109.5t88 277.5q0 66 -17.5 130t-51 121.5t-93 91.5t-137.5 34q-147 0 -225 -113.5t-78 -269.5z" />
<glyph unicode="&#x1af;" horiz-adv-x="1386" d="M154 567v813h180v-819q0 -221 88 -329.5t233 -108.5q158 0 247 108.5t89 329.5v819h162q51 0 72.5 18.5t21.5 59.5q0 59 -33 119l138 25q35 -76 34.5 -154t-47.5 -125t-137 -49l-31 -2v-699q0 -303 -142 -449.5t-380 -146.5q-227 0 -361 142.5t-134 447.5z" />
<glyph unicode="&#x1b0;" horiz-adv-x="1128" d="M143 412v579h181v-549q0 -315 221 -315q84 0 147.5 49t89.5 117q16 39 17 92v606h143q96 0 96 82q0 57 -37 117l138 24q37 -70 37 -147q0 -76 -49.5 -123t-125.5 -51h-22v-623q0 -166 8 -270h-160l-10 162h-4q-41 -74 -125 -129.5t-203 -55.5q-63 0 -119.5 20.5 t-108.5 67t-83 135.5t-31 212z" />
<glyph unicode="&#x1fa;" horiz-adv-x="1253" d="M51 0l469 1380h217l471 -1380h-190l-148 434h-491l-143 -434h-185zM416 573h418l-138 398q-29 84 -71 252h-4q-47 -184 -70 -250zM453 1574.5q0 67.5 51 115t137 47.5q84 0 133 -46t49 -116t-50 -114t-134 -44q-86 0 -136 45t-50 112.5zM530 1774l220 176h233l-293 -176 h-160zM547 1575q0 -35 25.5 -58.5t64.5 -23.5q41 0 66.5 22.5t25.5 61.5q0 37 -25.5 61.5t-68.5 24.5q-41 0 -64.5 -25.5t-23.5 -62.5z" />
<glyph unicode="&#x1fb;" horiz-adv-x="987" d="M72 262q0 180 154.5 275.5t441.5 93.5v20q0 37 -7.5 71t-29 73t-69.5 61.5t-120 22.5q-150 0 -258 -74l-41 121q137 86 326 86q207 0 292 -115t85 -289v-370q0 -143 14 -238h-162l-16 125h-6q-43 -63 -122 -105.5t-179 -42.5q-143 0 -223 84t-80 201zM252 283 q0 -84 48 -128t122 -44q90 0 153.5 48t88.5 117q8 25 8 58l-2 172q-418 8 -418 -223zM287 1251q0 84 57 138.5t152 54.5q90 0 146 -54.5t56 -138.5q0 -80 -59 -133t-145 -53q-90 0 -148.5 53t-58.5 133zM389 1491l219 217h199l-291 -217h-127zM391 1251q0 -43 29 -76.5 t72 -33.5q47 0 76.5 32.5t29.5 79.5q0 49 -29.5 82t-79.5 33q-45 0 -71.5 -34t-26.5 -83z" />
<glyph unicode="&#x1fc;" horiz-adv-x="1613" d="M-2 0l631 1380h864l-2 -149h-586l53 -440h515v-148h-492l61 -493h506l-2 -150h-657l-62 485h-424l-221 -485h-184zM463 631h344l-45 397q-20 164 -25 223h-8q-20 -57 -88 -217zM811 1454l188 240h220l-263 -240h-145z" />
<glyph unicode="&#x1fd;" horiz-adv-x="1583" d="M74 260q0 174 155.5 268.5t440.5 89.5v41q0 25 -8.5 57t-30 70.5t-71.5 65.5t-120 27q-147 0 -254 -74l-43 117q139 90 310 90q252 0 319 -209h4q49 98 139.5 153.5t206.5 55.5q106 0 187.5 -47t121 -121t59 -145.5t19.5 -141.5q0 -53 -6 -80h-665q-4 -172 84 -266 t233 -94q152 0 270 55l33 -127q-129 -68 -325 -68q-131 0 -232.5 57.5t-144.5 162.5h-6q-47 -102 -143.5 -161t-223.5 -59q-147 0 -228 83t-81 200zM252 274q0 -76 49 -119.5t123 -43.5q92 -2 154.5 47t85.5 123q10 37 10 71v146q-422 7 -422 -224zM698 1126l179 293h198 l-250 -293h-127zM838 606h499q2 57 -17.5 117.5t-75.5 111t-140 50.5q-123 0 -191.5 -88.5t-74.5 -190.5z" />
<glyph unicode="&#x1fe;" horiz-adv-x="1411" d="M74 684q0 324 180 522.5t457 198.5q197 0 344 -111l121 166l108 -74l-127 -176q178 -195 178 -508q0 -344 -182 -534.5t-446 -190.5q-197 0 -349 111l-129 -176l-100 82l127 178q-182 199 -182 512zM256 692q0 -197 100 -370l4 2l607 841q-113 96 -260 97 q-213 0 -332 -168.5t-119 -401.5zM446 219q104 -98 259 -98q207 0 327.5 166t120.5 409q0 201 -96 361h-6zM612 1470l191 240h217l-262 -240h-146z" />
<glyph unicode="&#x1ff;" horiz-adv-x="1124" d="M78 489q0 240 139 381.5t350 141.5q141 0 250 -70l86 123l80 -55l-88 -129q152 -145 152 -379q0 -254 -145.5 -389.5t-338.5 -135.5q-145 0 -252 70l-90 -125l-76 62l86 122q-153 147 -153 383zM254 494q0 -147 72 -248l4 -2l405 573q-70 59 -174 60 q-152 0 -229.5 -115.5t-77.5 -267.5zM391 170q70 -57 166 -57q139 0 226 107.5t87 275.5q0 139 -69 243h-4zM465 1126l180 293h197l-250 -293h-127z" />
<glyph unicode="&#x218;" horiz-adv-x="1009" d="M86 68l47 149q141 -90 318 -90q135 0 211.5 64.5t76.5 170.5q0 94 -60.5 157t-199.5 116q-365 133 -364 393q0 164 123.5 269.5t322.5 105.5q188 0 303 -68l-49 -145q-106 66 -260 65q-129 0 -194.5 -62.5t-65.5 -143.5q0 -94 62.5 -151.5t211.5 -115.5 q180 -70 265.5 -164t85.5 -241q0 -170 -124 -285t-358 -115q-98 0 -196.5 26t-155.5 65zM344 -371q154 25 154 133q0 68 -70 125l133 29q82 -53 82 -152q0 -102 -78 -157.5t-184 -61.5z" />
<glyph unicode="&#x219;" horiz-adv-x="811" d="M82 47l43 135q117 -70 240 -69q92 0 141 41t49 106q0 63 -41 103t-141 77q-264 96 -264 281q0 123 94 207t248 84q147 0 241 -62l-43 -131q-94 59 -203 60q-78 0 -120.5 -39t-42.5 -97q0 -59 42 -94t144 -76q131 -49 195.5 -119.5t64.5 -177.5q0 -135 -98.5 -217 t-270.5 -82q-159 0 -278 70zM244 -371q154 25 153 133q0 72 -69 125l133 29q82 -53 82 -152q0 -104 -78 -158.5t-186 -60.5z" />
<glyph unicode="&#x21a;" horiz-adv-x="1017" d="M-2 1229v151h1022v-151h-422v-1229h-180v1229h-420zM334 -371q154 25 153 133q0 68 -69 125l133 29q82 -53 82 -152q0 -104 -78 -158.5t-186 -60.5z" />
<glyph unicode="&#x21b;" horiz-adv-x="677" d="M37 854v137h153v185l177 53v-238h258v-137h-258v-535q0 -193 135 -192q63 0 104 12l8 -137q-70 -25 -159 -25q-125 0 -195 76q-70 78 -70 260v541h-153zM215 -381q154 25 154 133q0 72 -70 125l133 29q82 -53 82 -152q0 -104 -78 -158.5t-186 -60.5z" />
<glyph unicode="&#x21c;" horiz-adv-x="983" d="M63 1309q57 37 156.5 66.5t196.5 29.5q166 0 269 -84t103 -219q0 -111 -70.5 -198t-180.5 -138v-6q160 -14 263 -114.5t103 -262.5q0 -236 -211 -407t-563 -212l-23 142q256 37 432.5 165t176.5 302q0 117 -81 193.5t-220 74.5q-84 0 -193 -35l-24 127q180 39 295.5 131 t115.5 209q0 84 -63.5 135.5t-163.5 53.5q-139 0 -281 -74z" />
<glyph unicode="&#x21d;" horiz-adv-x="874" d="M39 911q156 100 334 101q156 0 251 -77t95 -204q0 -98 -58.5 -173t-158.5 -116v-4q143 -16 230 -102t87 -219q0 -209 -193.5 -362.5t-537.5 -182.5l-16 139q39 2 90 11.5t140 36t158.5 66.5t122 110.5t52.5 160.5q0 96 -67.5 159.5t-196.5 63.5q-72 0 -181 -30l-24 127 q377 88 377 282q0 82 -57.5 127t-155.5 45q-109 0 -252 -77z" />
<glyph unicode="&#x232;" horiz-adv-x="1107" d="M25 1380h204l195 -381q113 -231 137 -284h4q25 57 140 284l198 381h201l-461 -792v-588h-180v586zM309 1501v113h492v-113h-492z" />
<glyph unicode="&#x233;" horiz-adv-x="964" d="M18 991h197l215 -585q37 -96 66 -203h4q2 6 25.5 85t37.5 122l197 581h190l-270 -706q-100 -262 -175 -401.5t-165 -219.5q-113 -94 -221 -115l-45 150q86 27 157 88q92 72 152 201q14 33 14 43q0 16 -14 47zM254 1200v117h461v-117h-461z" />
<glyph unicode="&#x2c6;" d="M51 1126l193 293h125l196 -293h-137l-119 193h-4l-119 -193h-135z" />
<glyph unicode="&#x2c7;" d="M49 1419h137l121 -194h4l121 194h135l-192 -293h-129z" />
<glyph unicode="&#x2c9;" d="M78 1200v117h461v-117h-461z" />
<glyph unicode="&#x2d8;" d="M53 1397h107q10 -63 48 -102.5t97 -39.5q70 0 107 41t43 101h106q0 -115 -69.5 -185.5t-184.5 -70.5q-127 0 -190.5 75t-63.5 181z" />
<glyph unicode="&#x2d9;" d="M182 1272q0 45 31 75.5t74 30.5t71.5 -30.5t28.5 -75.5q0 -43 -28.5 -74t-73.5 -31q-43 0 -73 31t-30 74z" />
<glyph unicode="&#x2da;" d="M84 1286q0 82 57.5 137.5t151.5 55.5q90 0 146.5 -54.5t56.5 -138.5q0 -80 -58.5 -133t-146.5 -53q-90 0 -148.5 53t-58.5 133zM188 1286q0 -43 29 -76.5t74 -33.5q47 0 75.5 32.5t28.5 79.5q0 49 -29.5 82t-76.5 33t-74 -34t-27 -83z" />
<glyph unicode="&#x2db;" d="M129 -244q0 119 123 252h117q-109 -137 -109 -205q0 -47 27.5 -74.5t74.5 -27.5q53 0 95 20l28 -94q-66 -47 -163 -47q-88 0 -140.5 46t-52.5 130z" />
<glyph unicode="&#x2dc;" d="M55 1161q-2 98 35 155.5t105 57.5q41 0 127 -45q61 -35 88 -35q49 0 55 86h96q4 -207 -139 -206q-45 0 -127 43q-61 37 -88 36q-47 0 -53 -92h-99z" />
<glyph unicode="&#x2dd;" d="M90 1141l162 278h176l-225 -278h-113zM385 1141l162 278h176l-225 -278h-113z" />
<glyph unicode="&#x37e;" horiz-adv-x="444" d="M61 -252q76 268 95 485l198 11q-25 -113 -76 -257.5t-90 -224.5zM117 797q0 59 35.5 97t93 38t92.5 -38t35 -97q0 -57 -36 -96t-95 -39q-55 0 -90 39t-35 96z" />
<glyph unicode="&#x384;" horiz-adv-x="616" d="M172 1128l109 293h182l-170 -293h-121z" />
<glyph unicode="&#x385;" horiz-adv-x="708" d="M8 1270q0 41 29 69.5t69 28.5q39 0 66 -28.5t27 -69.5q0 -39 -28 -67.5t-69 -28.5t-67.5 28.5t-26.5 67.5zM268 1133l43 321h156l-100 -321h-99zM504 1270q0 41 27.5 69.5t68.5 28.5q39 0 66.5 -28.5t27.5 -69.5q0 -39 -27.5 -67.5t-70.5 -28.5q-39 0 -65.5 28.5 t-26.5 67.5z" />
<glyph unicode="&#x386;" horiz-adv-x="1259" d="M59 0l469 1380h215l471 -1380h-190l-150 434h-487l-143 -434h-185zM129 1063l14 317h162l-69 -317h-107zM422 573h418l-138 398q-37 115 -71 252h-4q-49 -193 -68 -250z" />
<glyph unicode="&#x387;" horiz-adv-x="444" d="M90 651q0 61 37 101.5t94 40.5q59 0 95 -39t36 -103q0 -59 -36.5 -98t-96.5 -39q-55 0 -92 40t-37 97z" />
<glyph unicode="&#x388;" horiz-adv-x="1148" d="M0 1063l14 317h164l-72 -317h-106zM297 0v1380h747v-149h-567v-436h535v-148h-535v-497h598v-150h-778z" />
<glyph unicode="&#x389;" horiz-adv-x="1478" d="M0 1063l14 317h162l-70 -317h-106zM297 0v1380h178v-577h668v577h180v-1380h-180v647h-668v-647h-178z" />
<glyph unicode="&#x38a;" horiz-adv-x="632" d="M0 1063l14 317h164l-72 -317h-106zM297 0v1380h180v-1380h-180z" />
<glyph unicode="&#x38c;" horiz-adv-x="1490" d="M0 1063l14 317h164l-72 -317h-106zM156 680q0 326 179 525.5t460 199.5q283 0 452.5 -194.5t169.5 -505.5q0 -342 -182 -535t-459 -193q-274 0 -447 195t-173 508zM344 684q0 -231 120 -396t322 -165q205 0 324 164t119 409q0 227 -116 395.5t-325 168.5 q-211 0 -327.5 -168t-116.5 -408z" />
<glyph unicode="&#x38e;" horiz-adv-x="1447" d="M0 1063l14 317h162l-70 -317h-106zM262 1247l31 146q78 -6 174 -57.5t164 -129.5q174 -195 213 -506h8q43 289 240 502q72 76 157.5 128t155.5 63l31 -146q-135 -51 -272.5 -208.5t-200.5 -401.5q-37 -147 -37 -283v-354h-181v356q0 147 -28 279q-57 264 -183.5 421.5 t-271.5 190.5z" />
<glyph unicode="&#x38f;" horiz-adv-x="1519" d="M0 1063l14 317h164l-72 -317h-106zM135 0v141h299v6q-117 96 -193.5 247t-76.5 337q0 295 183 484.5t460 189.5q281 0 452 -187.5t171 -467.5q0 -199 -78 -353.5t-195 -249.5v-6h299v-141h-518v113q135 90 221 246.5t86 359.5q0 209 -118.5 375t-323.5 166 q-207 0 -330 -162t-123 -381q0 -193 89 -358.5t216 -245.5v-113h-520z" />
<glyph unicode="&#x390;" horiz-adv-x="483" d="M-84 1243q0 39 28.5 66.5t67.5 27.5t64.5 -26.5t25.5 -67.5q0 -39 -26.5 -67.5t-67.5 -28.5q-39 0 -65.5 28.5t-26.5 67.5zM152 221v770h178v-751q0 -70 19.5 -96.5t76.5 -24.5l-12 -131q-31 -10 -78 -11q-88 0 -136 53.5t-48 190.5zM176 1106l43 319h154l-101 -319h-96z M412 1243q0 39 27.5 66.5t66.5 27.5t65.5 -26.5t26.5 -67.5q0 -39 -26.5 -67.5t-69.5 -28.5q-37 0 -63.5 28.5t-26.5 67.5z" />
<glyph unicode="&#x391;" horiz-adv-x="1253" d="M51 0l471 1380h213l471 -1380h-190l-148 434h-489l-143 -434h-185zM416 573h418l-138 398q-29 84 -71 252h-4q-47 -184 -70 -250z" />
<glyph unicode="&#x392;" horiz-adv-x="1110" d="M156 4v1356q129 31 325 31q256 0 377 -101q117 -86 117 -243q0 -100 -62.5 -182.5t-171.5 -121.5v-6q115 -27 200 -114.5t85 -229.5q0 -168 -119 -276q-137 -129 -475 -129q-157 0 -276 16zM334 135q49 -8 149 -8q154 0 254.5 64.5t100.5 203.5q0 133 -100.5 200 t-256.5 67h-147v-527zM334 795h162q137 0 217 65.5t80 167.5q0 225 -301 225q-100 0 -158 -12v-446z" />
<glyph unicode="&#x393;" horiz-adv-x="923" d="M154 0v1380h741v-149h-561v-1231h-180z" />
<glyph unicode="&#x394;" horiz-adv-x="1269" d="M53 0v102l479 1278h203l475 -1278v-102h-1157zM244 150h768l-281 759q-74 203 -102 308h-6q-18 -72 -91 -281z" />
<glyph unicode="&#x395;" horiz-adv-x="1007" d="M154 0v1380h747v-149h-567v-436h534v-148h-534v-497h598v-150h-778z" />
<glyph unicode="&#x396;" horiz-adv-x="1132" d="M61 0v104l764 1121v6h-698v149h932v-108l-762 -1116v-6h772v-150h-1008z" />
<glyph unicode="&#x397;" horiz-adv-x="1335" d="M154 0v1380h180v-577h667v577h181v-1380h-181v647h-667v-647h-180z" />
<glyph unicode="&#x398;" horiz-adv-x="1411" d="M74 678q0 326 180 526.5t460.5 200.5t451.5 -194.5t171 -508.5q0 -340 -182 -532.5t-458.5 -192.5t-449.5 194t-173 507zM262 682q0 -229 121 -394t324 -165q205 0 323.5 164t118.5 409q0 227 -115.5 395.5t-324.5 168.5q-213 0 -330 -168t-117 -410zM428 637v147h555 v-147h-555z" />
<glyph unicode="&#x399;" horiz-adv-x="489" d="M154 0v1380h180v-1380h-180z" />
<glyph unicode="&#x39a;" horiz-adv-x="1110" d="M156 0v1380h178v-665h6q47 68 109 147l421 518h222l-500 -585l538 -795h-210l-453 678l-133 -152v-526h-178z" />
<glyph unicode="&#x39b;" horiz-adv-x="1247" d="M51 0l471 1380h211l475 -1380h-192l-320 950q-33 102 -71 262h-7q-25 -115 -67 -260l-313 -952h-187z" />
<glyph unicode="&#x39c;" horiz-adv-x="1646" d="M119 0l96 1380h227l236 -667q82 -246 139 -465h4q49 188 148 465l245 667h228l86 -1380h-176l-33 606q-23 424 -23 596h-4q-94 -303 -174 -524l-244 -670h-135l-225 658q-104 315 -158 536h-4q-6 -264 -26 -610l-37 -592h-170z" />
<glyph unicode="&#x39d;" horiz-adv-x="1347" d="M156 0v1380h196l441 -698q160 -258 245 -449l6 3q-20 231 -20 567v577h168v-1380h-180l-439 700q-172 272 -256 461l-6 -2q12 -209 13 -569v-590h-168z" />
<glyph unicode="&#x39e;" horiz-adv-x="1105" d="M88 0v150h946v-150h-946zM111 1233v147h901v-147h-901zM178 641v147h766v-147h-766z" />
<glyph unicode="&#x39f;" horiz-adv-x="1411" d="M74 680q0 326 179 525.5t460 199.5q283 0 452.5 -194.5t169.5 -505.5q0 -342 -182 -535t-459 -193q-274 0 -447 195t-173 508zM262 684q0 -231 120 -396t323 -165q205 0 323.5 164t118.5 409q0 227 -116 395.5t-324 168.5q-211 0 -328 -168t-117 -408z" />
<glyph unicode="&#x3a0;" horiz-adv-x="1298" d="M154 0v1380h989v-1380h-180v1229h-629v-1229h-180z" />
<glyph unicode="&#x3a1;" horiz-adv-x="1089" d="M156 0v1364q160 27 342 27q260 0 387 -115q121 -106 121 -289q0 -184 -107 -295q-145 -152 -422 -151q-94 0 -143 12v-553h-178zM334 698q55 -14 147 -14q162 0 254 77t92 216q0 135 -87 203.5t-238 68.5q-115 0 -168 -14v-537z" />
<glyph unicode="&#x3a3;" horiz-adv-x="1130" d="M53 0v106l479 580l-454 576v118h930v-147h-699v-8l422 -533l-444 -536v-6h786v-150h-1020z" />
<glyph unicode="&#x3a4;" horiz-adv-x="1017" d="M-2 1229v151h1022v-151h-422v-1229h-180v1229h-420z" />
<glyph unicode="&#x3a5;" horiz-adv-x="1204" d="M23 1247l30 146q78 -6 174.5 -57.5t163.5 -129.5q174 -195 213 -506h8q43 289 240 502q72 76 158 128t155 63l31 -146q-135 -51 -272.5 -208.5t-200.5 -401.5q-37 -147 -37 -283v-354h-180v356q0 147 -29 279q-57 264 -183 421.5t-271 190.5z" />
<glyph unicode="&#x3a6;" horiz-adv-x="1470" d="M74 682q0 152 52 276.5t138 201.5t185.5 120t201.5 51v103h172v-103q233 -16 403.5 -184t170.5 -455q0 -147 -49.5 -268t-132 -197.5t-184 -121t-212.5 -52.5v-106h-172v106q-236 20 -404.5 181t-168.5 448zM258 686q0 -215 114.5 -349t276.5 -155v1022 q-150 -12 -270.5 -149.5t-120.5 -368.5zM821 182q160 14 275.5 148.5t115.5 357.5q0 231 -115.5 366.5t-275.5 149.5v-1022z" />
<glyph unicode="&#x3a7;" horiz-adv-x="1169" d="M51 0l422 698l-405 682h206l183 -323q86 -150 127 -234h6q49 102 125 234l186 323h207l-420 -671l430 -709h-207l-178 305q-90 145 -158 273h-4q-61 -125 -149 -275l-166 -303h-205z" />
<glyph unicode="&#x3a8;" horiz-adv-x="1402" d="M96 930v450h174v-419q0 -379 346 -398v817h170v-819q152 8 249.5 112.5t97.5 325.5v381h174v-399q0 -260 -141.5 -403.5t-379.5 -155.5v-422h-170v422q-104 4 -194 33.5t-165 88t-118 157t-43 229.5z" />
<glyph unicode="&#x3a9;" horiz-adv-x="1443" d="M61 0v141h299v6q-115 96 -192.5 249t-79.5 337q0 295 183.5 483.5t459.5 188.5q281 0 452 -186.5t171 -466.5q0 -197 -78 -350.5t-195 -254.5v-6h301v-141h-518v113q133 90 219 250.5t86 359.5q0 209 -118.5 373t-323.5 164q-207 0 -330 -162t-123 -379q0 -186 90.5 -356 t217.5 -250v-113h-521z" />
<glyph unicode="&#x3aa;" horiz-adv-x="489" d="M-45 1559q0 41 29.5 71.5t72.5 30.5q41 0 70 -29.5t29 -72.5t-28 -73t-73 -30q-43 0 -71.5 30t-28.5 73zM154 0v1380h180v-1380h-180zM332 1559q0 43 29.5 72.5t72.5 29.5q41 0 69.5 -29.5t28.5 -72.5t-27.5 -73t-74.5 -30q-43 0 -70.5 30t-27.5 73z" />
<glyph unicode="&#x3ab;" horiz-adv-x="1204" d="M23 1247l30 146q78 -6 174.5 -57.5t163.5 -129.5q174 -195 213 -506h8q43 289 240 502q72 76 158 128t155 63l31 -146q-135 -51 -272.5 -208.5t-200.5 -401.5q-37 -147 -37 -283v-354h-180v356q0 147 -29 279q-57 264 -183 421.5t-271 190.5zM322 1530q0 41 29.5 71.5 t72.5 30.5q41 0 69.5 -29.5t28.5 -72.5t-27.5 -73t-72.5 -30q-43 0 -71.5 30t-28.5 73zM698 1530q0 43 30 72.5t73 29.5q41 0 69.5 -29.5t28.5 -72.5t-27.5 -73t-74.5 -30q-43 0 -71 30t-28 73z" />
<glyph unicode="&#x3ac;" horiz-adv-x="1128" d="M78 475q0 236 132 386.5t310 150.5q219 0 305 -195h9q6 98 18 174h149q-27 -272 -26 -710q0 -88 22.5 -126t75.5 -40l-14 -129q-18 -8 -62 -9q-156 0 -170 209h-6q-113 -209 -338 -209q-178 0 -291.5 137.5t-113.5 360.5zM260 477q0 -145 73 -250.5t195 -105.5 q90 0 165 74.5t100 175.5q12 53 12 139q0 74 -8 108q-18 104 -89 178t-165 74q-123 0 -203 -110.5t-80 -278.5v-4zM475 1112l111 293h180l-170 -293h-121z" />
<glyph unicode="&#x3ad;" horiz-adv-x="901" d="M80 279q0 90 68.5 159.5t177.5 87.5v9q-193 43 -197 210q0 106 104.5 186.5t290.5 80.5q188 0 301 -76l-39 -119q-35 25 -106.5 44.5t-140.5 19.5q-104 0 -167 -41t-63 -107q0 -72 76 -107.5t201 -35.5h121v-127h-127q-141 0 -226.5 -42t-85.5 -128q0 -84 77 -131 t192 -47q76 0 158.5 22.5t131.5 50.5l33 -120q-57 -39 -158.5 -65t-203.5 -26q-172 0 -295 74t-123 228zM416 1112l110 293h181l-170 -293h-121z" />
<glyph unicode="&#x3ae;" horiz-adv-x="1136" d="M121 991h162q29 -57 28 -164h4q41 78 127 131.5t201 53.5q57 0 113.5 -19.5t112 -63.5t90 -131t34.5 -208v-627q0 -279 23 -369h-172q-31 78 -31 363v614q0 131 -55.5 212t-173.5 81q-84 0 -149.5 -53t-92.5 -131q-12 -31 -12 -82v-598h-180v723q0 182 -29 268zM508 1112 l108 293h183l-172 -293h-119z" />
<glyph unicode="&#x3af;" horiz-adv-x="483" d="M150 221v770h180v-751q0 -70 19.5 -96.5t76.5 -24.5l-10 -131q-31 -10 -80 -11q-88 0 -137 53.5t-49 190.5zM164 1112l108 293h185l-172 -293h-121z" />
<glyph unicode="&#x3b0;" horiz-adv-x="1073" d="M115 991h172q29 -33 28 -184v-404q0 -139 67 -207.5t159 -68.5q127 0 194.5 122t67.5 339q0 125 -22.5 240.5t-45.5 162.5h170q29 -53 51.5 -162.5t22.5 -224.5q0 -119 -21.5 -222t-69.5 -198.5t-140.5 -151t-221.5 -55.5q-172 0 -280.5 102.5t-108.5 299.5v278 q1 266 -22 334zM193 1241q0 39 27.5 66.5t68.5 27.5q39 0 64.5 -26.5t25.5 -67.5q0 -39 -26.5 -66.5t-67.5 -27.5q-39 0 -65.5 27.5t-26.5 66.5zM453 1104l43 319h153l-100 -319h-96zM690 1241q0 41 27.5 67.5t66.5 26.5t66 -26.5t27 -67.5q0 -39 -27 -66.5t-70 -27.5 q-39 0 -64.5 27.5t-25.5 66.5z" />
<glyph unicode="&#x3b1;" horiz-adv-x="1128" d="M78 475q0 236 132 386.5t310 150.5q219 0 305 -195h9q6 98 18 174h149q-27 -272 -26 -710q0 -88 22.5 -126t75.5 -40l-14 -129q-18 -8 -62 -9q-156 0 -170 209h-6q-113 -209 -338 -209q-178 0 -291.5 137.5t-113.5 360.5zM260 477q0 -145 73 -250.5t195 -105.5 q90 0 165 74.5t100 175.5q12 53 12 139q0 74 -8 108q-18 104 -89 178t-165 74q-123 0 -203 -110.5t-80 -278.5v-4z" />
<glyph unicode="&#x3b2;" horiz-adv-x="1146" d="M145 -57v942q0 334 154 483q113 109 291 109q156 0 258 -99.5t102 -257.5q0 -113 -54 -197.5t-130 -121.5v-10q127 -25 215 -127.5t88 -262.5q0 -197 -126 -310.5t-300 -113.5q-199 0 -319 125h-5v-137q0 -270 25 -371h-168q-31 83 -31 349zM319 281q39 -66 115 -115 t174 -49q123 0 202 79.5t79 202.5q0 143 -88 222t-232 84h-55v122q25 0 35 2q111 8 172 84t61 179q0 109 -58 175t-151 66q-254 0 -254 -428v-624z" />
<glyph unicode="&#x3b3;" horiz-adv-x="950" d="M-10 991h203q76 -115 167 -337t134 -433h6q233 424 233 703v67h170q4 -16 4 -67q0 -340 -350 -871q-10 -16 -10 -49q0 -6 6 -410h-178q12 377 -35 582q-51 223 -154.5 449.5t-195.5 365.5z" />
<glyph unicode="&#x3b4;" horiz-adv-x="1118" d="M78 477q0 176 104.5 307t270.5 209v11l-45 36q-127 104 -127 205q0 90 91 161t255 71q100 0 190 -30t137 -69l-53 -121q-39 29 -116.5 56.5t-153.5 27.5q-80 0 -124 -26.5t-44 -65.5q0 -27 20.5 -54.5t44 -47t82.5 -64.5l168 -133q262 -203 262 -467q0 -225 -138 -365.5 t-343 -140.5q-201 0 -341 134.5t-140 365.5zM260 477q0 -166 92 -265t217 -99q123 0 207 97t84 261q0 205 -190 352l-111 86q-299 -158 -299 -432z" />
<glyph unicode="&#x3b5;" horiz-adv-x="901" d="M80 279q0 92 68.5 161.5t177.5 85.5v9q-94 20 -144.5 77.5t-52.5 132.5q0 106 104.5 186.5t290.5 80.5q188 0 301 -74l-39 -121q-35 25 -106.5 44.5t-140.5 19.5q-104 0 -167 -41t-63 -107q0 -72 76 -107.5t201 -35.5h121v-127h-127q-141 0 -226.5 -42t-85.5 -128 q0 -84 77 -131t192 -47q78 0 160.5 22.5t129.5 52.5l33 -122q-57 -39 -158.5 -65t-203.5 -26q-172 0 -295 74t-123 228z" />
<glyph unicode="&#x3b6;" horiz-adv-x="837" d="M80 477q0 217 134 445.5t368 388.5v6h-146q-164 0 -239 22l18 119q66 -8 250 -8h342l27 -125q-246 -125 -409 -357.5t-163 -457.5q0 -156 64.5 -235.5t189.5 -124.5q100 -37 287 -62q18 -4 18 -22q0 -84 -39 -193t-84 -166l-118 35q20 35 42.5 109.5t24.5 115.5 q-141 20 -241 56q-326 106 -326 454z" />
<glyph unicode="&#x3b7;" horiz-adv-x="1136" d="M121 991h162q29 -57 28 -164h4q41 78 127 131.5t201 53.5q57 0 113.5 -19.5t112 -63.5t90 -131t34.5 -208v-627q0 -279 23 -369h-172q-31 78 -31 363v614q0 131 -55.5 212t-173.5 81q-84 0 -149.5 -53t-92.5 -131q-12 -31 -12 -82v-598h-180v723q0 182 -29 268z" />
<glyph unicode="&#x3b8;" horiz-adv-x="1093" d="M78 739q0 326 126 532t353 206q229 0 344 -198t115 -540q0 -356 -117 -559t-350 -203q-223 0 -347 194.5t-124 567.5zM256 684q0 -268 82 -420.5t217 -152.5q139 0 212 155.5t73 417.5h-584zM256 817h582q0 231 -74 378.5t-217 147.5q-131 0 -211 -153.5t-80 -372.5z" />
<glyph unicode="&#x3b9;" horiz-adv-x="483" d="M150 221v770h180v-751q0 -70 19.5 -96.5t76.5 -24.5l-10 -131q-31 -10 -80 -11q-88 0 -137 53.5t-49 190.5z" />
<glyph unicode="&#x3ba;" horiz-adv-x="1009" d="M129 991h172q29 -35 29 -168v-272h8q104 100 260 261t174 179h211v-8q-90 -84 -471 -446v-7q111 -25 305 -282l180 -248h-209l-155 211q-174 227 -285 229h-18v-440h-178v776q0 160 -23 215z" />
<glyph unicode="&#x3bb;" horiz-adv-x="966" d="M14 0l359 918q10 29 10 47q0 25 -12 53q-55 150 -114.5 230.5t-143.5 80.5q-23 0 -35 -2l16 139q23 8 70 9q133 0 216 -112t177 -355l379 -1008h-191l-200 567q-31 84 -68 215h-8q-12 -53 -63 -209l-205 -573h-187z" />
<glyph unicode="&#x3bc;" horiz-adv-x="1132" d="M150 -39v1030h180v-585q0 -125 55 -203t168 -78q84 0 146.5 49t88.5 117q16 43 17 94v606h180v-719q0 -84 20.5 -118.5t73.5 -36.5l-14 -131q-31 -8 -64 -9q-154 0 -176 177h-6q-37 -70 -110.5 -121t-173.5 -51q-156 0 -218 108v-121q0 -274 23 -375h-162q-28 86 -28 367 z" />
<glyph unicode="&#x3bd;" horiz-adv-x="960" d="M8 991h191l190 -555q23 -63 84 -260h8q256 500 256 723q0 63 -2 92h168q6 -31 6 -71q0 -190 -97 -410.5t-271 -509.5h-170z" />
<glyph unicode="&#x3be;" horiz-adv-x="886" d="M80 434q0 143 91 252t228 145v11q-227 74 -227 288q0 139 112.5 243t315.5 104q154 0 250 -56l-39 -125q-82 47 -201 47q-123 0 -190.5 -65.5t-67.5 -157.5q0 -104 81 -164.5t208 -64.5q14 0 47 -1t51 -1v-129h-55q-205 -2 -311.5 -88t-106.5 -221q0 -121 79 -196 t237 -118q119 -31 270 -49q20 0 20 -22q0 -78 -38.5 -191t-83.5 -168l-117 35q20 35 41.5 110.5t23.5 114.5q-96 14 -169.5 30.5t-164 51.5t-147.5 82t-97 125t-40 178z" />
<glyph unicode="&#x3bf;" horiz-adv-x="1124" d="M78 487q0 240 140 382.5t351 142.5q213 0 345.5 -141.5t132.5 -366.5q0 -256 -147.5 -391.5t-346.5 -135.5q-205 0 -340 140.5t-135 369.5zM262 494q0 -164 84 -272.5t215 -108.5q129 0 215 109.5t86 275.5q0 145 -74.5 262t-222 117t-225.5 -113.5t-78 -269.5z" />
<glyph unicode="&#x3c0;" horiz-adv-x="1136" d="M29 940q76 51 284 51h770l-18 -139h-137v-557q0 -201 26 -295h-172q-33 55 -32 276v576h-324q-6 -211 -47 -473t-92 -379h-170q53 141 93 393t44 459q-123 0 -201 -18z" />
<glyph unicode="&#x3c1;" horiz-adv-x="1153" d="M139 -45v459q0 301 144 452q135 145 340 146q207 0 330.5 -139.5t123.5 -362.5q0 -250 -133 -391.5t-321 -141.5q-207 0 -301 146h-5v-160q0 -274 17 -369h-172q-23 85 -23 361zM317 389q0 -41 9 -72q25 -86 99.5 -142t168.5 -56q139 0 220 107.5t81 277.5q0 154 -77 257 t-210 103q-119 0 -205 -100t-86 -293v-82z" />
<glyph unicode="&#x3c2;" horiz-adv-x="854" d="M78 479q0 213 144.5 373t389.5 160q139 0 224 -45l-41 -131q-84 37 -183 36q-158 0 -255 -110.5t-97 -267.5q0 -266 279 -351q106 -31 266 -55q18 -2 18 -29q0 -80 -37.5 -190.5t-78.5 -163.5l-121 37q20 33 41.5 108.5t25.5 114.5q-104 16 -202 43q-168 47 -270.5 165 t-102.5 306z" />
<glyph unicode="&#x3c3;" horiz-adv-x="1134" d="M78 485q0 244 141 385.5t369 141.5h190h109q205 0 223 2l-6 -137q-115 0 -260 6v-6q86 -61 135 -162t49 -213q0 -254 -143.5 -389.5t-331.5 -135.5q-205 0 -340 139.5t-135 368.5zM262 494q0 -164 84 -272.5t213 -108.5q123 0 207 110.5t84 278.5q0 143 -75 259t-216 116 q-143 0 -220 -114.5t-77 -268.5z" />
<glyph unicode="&#x3c4;" horiz-adv-x="845" d="M-10 940q68 51 268 51h571l-22 -139h-305v-563q0 -168 112 -168q33 0 43 2l-8 -127q-27 -18 -98 -19q-119 0 -174 75t-55 233v567h-109q-115 0 -201 -16z" />
<glyph unicode="&#x3c5;" horiz-adv-x="1073" d="M115 991h172q29 -33 28 -184v-404q0 -139 67 -207.5t159 -68.5q127 0 194.5 122t67.5 339q0 125 -22.5 240.5t-45.5 162.5h170q29 -53 51.5 -162.5t22.5 -224.5q0 -119 -21.5 -222t-69.5 -198.5t-140.5 -151t-221.5 -55.5q-172 0 -280.5 102.5t-108.5 299.5v278 q1 266 -22 334z" />
<glyph unicode="&#x3c6;" horiz-adv-x="1314" d="M78 502q0 195 106.5 330t233.5 188l69 -100q-231 -147 -231 -414q0 -156 83 -263.5t239 -131.5v600q0 152 71.5 226.5t181.5 72.5q156 -2 280 -138.5t124 -351.5q0 -240 -143.5 -380t-348.5 -160v-386h-165v386q-207 16 -353.5 146t-146.5 376zM743 109 q147 20 233.5 128.5t86.5 280.5q0 147 -72.5 254t-161.5 107q-86 0 -86 -140v-630z" />
<glyph unicode="&#x3c7;" horiz-adv-x="935" d="M23 -389l354 708l-340 672h192l252 -534h8q23 51 103 219l149 315h174l-348 -669l361 -713l-168 -45l-295 608l-8 -2q-2 -6 -37 -85t-58 -126l-186 -395z" />
<glyph unicode="&#x3c8;" horiz-adv-x="1341" d="M121 991h164q27 -37 26 -184v-299q0 -203 81 -297t212 -102v1142h166v-1142q135 6 220 136t85 341q0 139 -24.5 252.5t-49.5 152.5h166q80 -123 80 -391q0 -117 -25.5 -220.5t-80 -193.5t-149.5 -146t-222 -63v-383h-166v383q-215 14 -341 131t-126 386v268 q0 163 -16 229z" />
<glyph unicode="&#x3c9;" horiz-adv-x="1421" d="M78 506q0 158 51 293t121 205h168v-5q-72 -80 -118 -208.5t-46 -280.5q0 -190 64.5 -286.5t146.5 -96.5q70 0 118 65.5t46 157.5l-4 393h170l-4 -391q-2 -96 47 -160.5t123 -64.5q84 0 145 104.5t61 294.5q0 143 -46 273.5t-117 199.5v5h170q72 -59 120.5 -189.5 t48.5 -292.5q0 -262 -110.5 -403.5t-263.5 -141.5q-90 0 -159 47.5t-99 127.5h-9q-78 -174 -262 -175q-145 0 -253.5 133.5t-108.5 395.5z" />
<glyph unicode="&#x3ca;" horiz-adv-x="483" d="M-43 1245q0 41 29.5 72t72.5 31q41 0 70 -30t29 -73t-28 -73.5t-73 -30.5q-43 0 -71.5 30.5t-28.5 73.5zM150 223v768h180v-751q0 -70 19.5 -96.5t76.5 -24.5l-10 -131q-31 -10 -80 -11q-90 0 -138 53.5t-48 192.5zM334 1245q0 43 29.5 73t72.5 30q41 0 70 -30t29 -73 t-29 -73.5t-74 -30.5q-43 0 -70.5 30.5t-27.5 73.5z" />
<glyph unicode="&#x3cb;" horiz-adv-x="1073" d="M115 991h172q29 -33 28 -184v-404q0 -139 67 -207.5t159 -68.5q127 0 194.5 122t67.5 339q0 123 -21.5 238.5t-44.5 164.5h168q29 -53 51.5 -162.5t22.5 -224.5q0 -119 -21.5 -222t-69.5 -198.5t-140.5 -151t-221.5 -55.5q-172 0 -280.5 102.5t-108.5 299.5v278 q1 266 -22 334zM238 1245q0 41 29.5 72t72.5 31q41 0 69.5 -30t28.5 -73t-27.5 -73.5t-72.5 -30.5q-43 0 -71.5 30.5t-28.5 73.5zM614 1245q0 43 30 73t73 30q41 0 69.5 -30t28.5 -73t-28.5 -73.5t-73.5 -30.5q-43 0 -71 30.5t-28 73.5z" />
<glyph unicode="&#x3cc;" horiz-adv-x="1124" d="M78 487q0 240 140 382.5t351 142.5q213 0 345.5 -141.5t132.5 -366.5q0 -256 -147.5 -391.5t-346.5 -135.5q-205 0 -340 140.5t-135 369.5zM262 494q0 -164 84 -272.5t215 -108.5q129 0 215 109.5t86 275.5q0 145 -74.5 262t-222 117t-225.5 -113.5t-78 -269.5zM483 1112 l109 293h180l-170 -293h-119z" />
<glyph unicode="&#x3cd;" horiz-adv-x="1073" d="M115 991h172q29 -33 28 -184v-404q0 -139 67 -207.5t159 -68.5q127 0 194.5 122t67.5 339q0 125 -22.5 240.5t-45.5 162.5h170q29 -53 51.5 -162.5t22.5 -224.5q0 -119 -21.5 -222t-69.5 -198.5t-140.5 -151t-221.5 -55.5q-172 0 -280.5 102.5t-108.5 299.5v278 q1 266 -22 334zM446 1112l111 293h182l-170 -293h-123z" />
<glyph unicode="&#x3ce;" horiz-adv-x="1421" d="M78 506q0 158 51 293t121 205h168v-5q-72 -80 -118 -208.5t-46 -280.5q0 -190 64.5 -286.5t146.5 -96.5q70 0 118 65.5t46 157.5l-4 393h170l-4 -391q-2 -96 47 -160.5t123 -64.5q84 0 145 104.5t61 294.5q0 143 -46 273.5t-117 199.5v5h170q72 -59 120.5 -189.5 t48.5 -292.5q0 -262 -110.5 -403.5t-263.5 -141.5q-90 0 -159 47.5t-99 127.5h-9q-78 -174 -262 -175q-145 0 -253.5 133.5t-108.5 395.5zM629 1112l108 293h183l-172 -293h-119z" />
<glyph unicode="&#x401;" horiz-adv-x="1007" d="M154 0v1380h747v-149h-567v-436h534v-148h-534v-497h598v-150h-778zM233 1581q0 43 29 72.5t72 29.5t70.5 -29.5t27.5 -72.5q0 -45 -27.5 -74.5t-72.5 -29.5q-43 0 -71 30.5t-28 73.5zM612 1581q0 43 30 72.5t73 29.5t70.5 -29.5t27.5 -72.5q0 -45 -27.5 -74.5 t-74.5 -29.5q-43 0 -71 30.5t-28 73.5z" />
<glyph unicode="&#x402;" horiz-adv-x="1361" d="M-2 1231v149h1061v-149h-500v-393h6q127 84 277 84q213 0 332 -172q106 -145 106 -385q0 -332 -190 -494q-115 -129 -287 -156l-31 140q147 37 225 143q96 127 97 350q0 195 -72 299q-80 125 -229 125q-125 0 -234 -80v-692h-180v1231h-381z" />
<glyph unicode="&#x403;" horiz-adv-x="886" d="M154 0v1380h735v-149h-555v-1231h-180zM389 1454l191 240h217l-262 -240h-146z" />
<glyph unicode="&#x404;" horiz-adv-x="1179" d="M76 688q0 303 195.5 509t521.5 206q201 0 321 -66l-43 -139q-115 57 -272 57q-227 0 -368.5 -135t-164.5 -344h709v-141h-707q6 -217 149.5 -362.5t375.5 -145.5q158 0 288 55l31 -137q-131 -68 -352 -68q-301 0 -492.5 191.5t-191.5 519.5z" />
<glyph unicode="&#x405;" horiz-adv-x="1009" d="M86 68l47 149q141 -90 318 -90q135 0 211.5 64.5t76.5 170.5q0 94 -60.5 157t-199.5 116q-365 133 -364 393q0 164 123.5 269.5t322.5 105.5q188 0 303 -68l-49 -145q-106 66 -260 65q-129 0 -194.5 -62.5t-65.5 -143.5q0 -94 62.5 -151.5t211.5 -115.5 q180 -70 265.5 -164t85.5 -241q0 -170 -124 -285t-358 -115q-98 0 -196.5 26t-155.5 65z" />
<glyph unicode="&#x406;" horiz-adv-x="489" d="M154 0v1380h180v-1380h-180z" />
<glyph unicode="&#x407;" horiz-adv-x="489" d="M-43 1581q0 43 28.5 72.5t71.5 29.5t71 -29.5t28 -72.5q0 -45 -28 -74.5t-73 -29.5q-43 0 -70.5 30.5t-27.5 73.5zM154 0v1380h180v-1380h-180zM336 1581q0 43 29.5 72.5t72.5 29.5t71 -29.5t28 -72.5q0 -45 -28 -74.5t-75 -29.5q-43 0 -70.5 30.5t-27.5 73.5z" />
<glyph unicode="&#x408;" horiz-adv-x="757" d="M8 10l25 146q68 -27 151 -27q127 0 189.5 75t62.5 267v909h180v-923q0 -479 -417 -480q-115 0 -191 33z" />
<glyph unicode="&#x409;" horiz-adv-x="1804" d="M-12 127q88 16 147 76q119 117 119 598v579h772v-520q72 10 168 10q227 0 378.5 -107.5t151.5 -320.5q0 -182 -114 -301q-156 -154 -486 -153q-137 0 -276 14v1229h-420v-418q0 -135 -6 -231.5t-24.5 -210t-62.5 -194.5t-114 -128q-102 -66 -207 -65zM1026 135 q43 -8 143 -8q158 0 263.5 80t105.5 229q0 152 -104.5 223.5t-266.5 71.5q-51 0 -141 -8v-588z" />
<glyph unicode="&#x40a;" horiz-adv-x="1837" d="M154 0v1380h180v-551h547v551h178v-538q72 10 190 10q139 0 251 -41t184.5 -137t72.5 -236q0 -184 -115 -299q-154 -152 -481 -151q-162 0 -280 16v674h-547v-678h-180zM1059 137q53 -10 145 -10q158 0 262.5 77t104.5 228q0 143 -101.5 212t-257.5 69q-76 0 -153 -8 v-568z" />
<glyph unicode="&#x40b;" horiz-adv-x="1382" d="M-2 1231v149h1038v-149h-481v-395h4q156 94 313 94q162 0 254 -96q109 -111 109 -322v-512h-178v489q0 152 -66 226q-68 68 -176 67q-143 0 -260 -88v-694h-180v1231h-377z" />
<glyph unicode="&#x40c;" horiz-adv-x="1110" d="M156 0v1380h178v-612h55l473 612h213l-522 -632q160 -20 244 -108.5t143 -248.5q14 -41 46 -128t55.5 -147.5t50.5 -115.5h-191q-31 55 -127 326q-53 154 -137 230.5t-246 76.5h-57v-633h-178zM463 1444l190 239h217l-262 -239h-145z" />
<glyph unicode="&#x40e;" horiz-adv-x="1067" d="M4 1380h203l274 -592q57 -133 99 -241h6q25 70 84 248l217 585h188l-291 -712q-156 -391 -258 -523q-133 -170 -311 -170q-68 0 -100 13l16 145q25 -6 68 -6q162 0 270 235q16 37 -6 84zM272 1673h138q8 -59 33.5 -93t91 -34t91 34t33.5 93h138q-16 -221 -267 -221 q-242 0 -258 221z" />
<glyph unicode="&#x40f;" horiz-adv-x="1300" d="M154 0v1380h180v-1230h635v1230h180v-1380h-408l-14 -358h-149l-15 358h-409z" />
<glyph unicode="&#x410;" horiz-adv-x="1253" d="M51 0l471 1380h213l471 -1380h-190l-148 434h-489l-143 -434h-185zM416 573h418l-138 398q-29 84 -71 252h-4q-47 -184 -70 -250z" />
<glyph unicode="&#x411;" horiz-adv-x="1118" d="M156 4v1376h774v-149h-596v-371q72 10 170 10q217 0 356 -92q176 -115 176 -336q0 -182 -114 -301q-156 -154 -488 -153q-159 0 -278 16zM334 137q51 -10 149 -10q190 0 291 106q76 80 76 203q0 147 -113 226q-98 70 -262 69q-51 0 -141 -8v-586z" />
<glyph unicode="&#x412;" horiz-adv-x="1110" d="M156 4v1356q129 31 325 31q256 0 377 -101q117 -86 117 -243q0 -100 -62.5 -182.5t-171.5 -121.5v-6q115 -27 200 -114.5t85 -229.5q0 -168 -119 -276q-137 -129 -475 -129q-157 0 -276 16zM334 135q49 -8 149 -8q154 0 254.5 64.5t100.5 203.5q0 133 -100.5 200 t-256.5 67h-147v-527zM334 795h162q137 0 217 65.5t80 167.5q0 225 -301 225q-100 0 -158 -12v-446z" />
<glyph unicode="&#x413;" horiz-adv-x="886" d="M154 0v1380h735v-149h-555v-1231h-180z" />
<glyph unicode="&#x414;" horiz-adv-x="1290" d="M25 141l102 4q98 180 135 304q66 223 66 581v350h772v-1235l121 -4l-13 -473h-139l-12 332h-871l-12 -332h-139zM311 147h611v1086h-428v-260q0 -342 -70 -563q-33 -113 -113 -263z" />
<glyph unicode="&#x415;" horiz-adv-x="1007" d="M154 0v1380h747v-149h-567v-436h534v-148h-534v-497h598v-150h-778z" />
<glyph unicode="&#x416;" horiz-adv-x="1640" d="M23 0q27 57 49 120.5t48.5 146.5t41.5 122q57 164 139 251t231 105l-487 635h207l428 -612h55v612h172v-612h56l428 612h206l-489 -635q152 -14 233.5 -101t141.5 -253q14 -43 39.5 -124t48 -145.5t47.5 -121.5h-182q-20 41 -40 95.5t-42.5 128t-30.5 100.5 q-55 162 -128 235.5t-226 73.5h-62v-633h-172v633h-63q-154 0 -226.5 -74t-128.5 -235q-2 -6 -44 -137.5t-68 -186.5h-182z" />
<glyph unicode="&#x417;" horiz-adv-x="1007" d="M63 68l48 139q147 -84 311 -84q147 0 231 72.5t84 189.5q0 141 -109.5 203.5t-265.5 62.5h-81v135h79q137 0 231.5 74t94.5 180q0 104 -67.5 162t-180.5 58q-143 0 -288 -91l-48 131q160 104 365 105q182 0 293.5 -90t111.5 -248q0 -125 -80.5 -217t-203.5 -121v-4 q147 -16 241.5 -108.5t96.5 -237.5q0 -201 -146.5 -301.5t-355.5 -100t-361 90.5z" />
<glyph unicode="&#x418;" horiz-adv-x="1347" d="M156 0v1380h168v-581q0 -338 -17 -584l6 -2q86 182 254 457l447 710h178v-1380h-168v588q0 362 16 561l-6 2q-80 -180 -256 -463l-432 -688h-190z" />
<glyph unicode="&#x419;" horiz-adv-x="1347" d="M156 0v1380h168v-581q0 -338 -17 -584l6 -2q86 182 254 457l447 710h178v-1380h-168v588q0 362 16 561l-6 2q-80 -180 -256 -463l-432 -688h-190zM412 1669h137q8 -59 33.5 -93t91 -34t91.5 34t34 93h137q-16 -221 -266 -221q-242 0 -258 221z" />
<glyph unicode="&#x41a;" horiz-adv-x="1110" d="M156 0v1380h178v-612h55l473 612h213l-522 -632q160 -20 244 -108.5t143 -248.5q14 -41 46 -128t55.5 -147.5t50.5 -115.5h-191q-31 55 -127 326q-53 154 -137 230.5t-246 76.5h-57v-633h-178z" />
<glyph unicode="&#x41b;" horiz-adv-x="1216" d="M-14 127q84 12 145 74q121 117 121 598v581h811v-1380h-180v1231h-455v-418q0 -135 -6 -231.5t-24.5 -210t-62.5 -194.5t-114 -128q-102 -66 -213 -65z" />
<glyph unicode="&#x41c;" horiz-adv-x="1646" d="M119 0l96 1380h227l236 -667q82 -246 139 -465h4q49 188 148 465l245 667h228l86 -1380h-176l-33 606q-23 424 -23 596h-4q-94 -303 -174 -524l-244 -670h-135l-225 658q-104 315 -158 536h-4q-6 -264 -26 -610l-37 -592h-170z" />
<glyph unicode="&#x41d;" horiz-adv-x="1335" d="M154 0v1380h180v-577h667v577h181v-1380h-181v647h-667v-647h-180z" />
<glyph unicode="&#x41e;" horiz-adv-x="1411" d="M74 680q0 326 179 525.5t460 199.5q283 0 452.5 -194.5t169.5 -505.5q0 -342 -182 -535t-459 -193q-274 0 -447 195t-173 508zM262 684q0 -233 120 -397t323 -164q205 0 323.5 164t118.5 409q0 227 -116 395.5t-324 168.5q-211 0 -328 -167t-117 -409z" />
<glyph unicode="&#x41f;" horiz-adv-x="1308" d="M154 0v1380h1001v-1380h-180v1231h-641v-1231h-180z" />
<glyph unicode="&#x420;" horiz-adv-x="1089" d="M156 0v1364q160 27 342 27q260 0 387 -115q121 -106 121 -289q0 -184 -107 -295q-145 -152 -422 -151q-94 0 -143 12v-553h-178zM334 698q55 -14 147 -14q162 0 254 77t92 216q0 135 -87 203.5t-238 68.5q-115 0 -168 -14v-537z" />
<glyph unicode="&#x421;" horiz-adv-x="1187" d="M74 678q0 326 199.5 525.5t521.5 199.5q209 0 327 -62l-45 -145q-115 57 -276 57q-246 0 -392.5 -150.5t-146.5 -418.5q0 -256 140.5 -405.5t388.5 -149.5q174 0 292 57l35 -143q-127 -66 -364 -66q-301 0 -490.5 184.5t-189.5 516.5z" />
<glyph unicode="&#x422;" horiz-adv-x="1017" d="M-2 1229v151h1022v-151h-422v-1229h-180v1229h-420z" />
<glyph unicode="&#x423;" horiz-adv-x="1067" d="M4 1380h203l274 -592q57 -133 99 -241h6q25 70 84 248l217 585h188l-291 -712q-156 -391 -258 -523q-133 -170 -311 -170q-68 0 -100 13l16 145q25 -6 68 -6q162 0 270 235q16 37 -6 84z" />
<glyph unicode="&#x424;" horiz-adv-x="1484" d="M74 682q0 131 35.5 237.5t93 176t135.5 118t156.5 71t162.5 26.5v125h172v-125q113 -4 213.5 -42t184.5 -110t133 -192.5t49 -276.5q0 -158 -49 -277.5t-134 -189t-184.5 -106.5t-216.5 -45v-127h-172v127q-115 8 -213 44t-183 104.5t-134 186t-49 275.5zM258 688 q0 -229 113.5 -350t283.5 -137v983q-160 -8 -278.5 -129t-118.5 -367zM827 201q168 12 283 132t115 357q0 246 -115 365t-283 129v-983z" />
<glyph unicode="&#x425;" horiz-adv-x="1169" d="M51 0l422 698l-405 682h206l183 -323q86 -150 127 -234h6q49 102 125 234l186 323h207l-420 -671l430 -709h-207l-178 305q-90 145 -158 273h-4q-47 -96 -149 -275l-166 -303h-205z" />
<glyph unicode="&#x426;" horiz-adv-x="1335" d="M154 0v1380h180v-1230h633v1230h180v-1235l121 -4l-13 -475h-139l-12 334h-950z" />
<glyph unicode="&#x427;" horiz-adv-x="1222" d="M145 909v471h179v-442q0 -143 73.5 -220t216.5 -77q154 0 275 80v659h178v-1388h-178v590h-4q-150 -86 -332 -86q-76 0 -142.5 18t-129 61t-99.5 129t-37 205z" />
<glyph unicode="&#x428;" horiz-adv-x="1734" d="M156 0v1380h176v-1230h448v1230h176v-1230h449v1230h176v-1380h-1425z" />
<glyph unicode="&#x429;" horiz-adv-x="1769" d="M156 0v1380h176v-1230h448v1230h176v-1230h449v1230h176v-1235l121 -4l-12 -475h-140l-12 334h-1382z" />
<glyph unicode="&#x42a;" horiz-adv-x="1292" d="M-4 1233v147h532v-516q68 10 166 10q217 0 367.5 -109.5t150.5 -322.5q0 -180 -106 -292q-152 -162 -481 -162q-156 0 -275 16v1229h-354zM528 137q49 -10 142 -10q158 0 257 79t99 230q0 150 -102.5 222.5t-251.5 72.5q-57 0 -144 -8v-586z" />
<glyph unicode="&#x42b;" horiz-adv-x="1527" d="M156 4v1376h178v-518q61 12 166 12q229 0 379.5 -107.5t150.5 -324.5q0 -180 -106 -292q-154 -162 -492 -162q-157 0 -276 16zM334 137q47 -10 143 -10q158 0 262.5 80t104.5 229.5t-106.5 222t-262.5 72.5q-51 0 -141 -8v-586zM1184 0v1380h180v-1380h-180z" />
<glyph unicode="&#x42c;" horiz-adv-x="1116" d="M156 4v1376h178v-516q68 10 170 10q231 0 381.5 -107.5t150.5 -322.5q0 -182 -106 -294q-154 -162 -496 -162q-159 0 -278 16zM334 137q51 -10 147 -10q160 0 264.5 78t104.5 229.5t-104.5 224t-266.5 72.5q-55 0 -145 -8v-586z" />
<glyph unicode="&#x42d;" horiz-adv-x="1163" d="M61 47l39 143q137 -63 299 -63q221 0 354.5 143.5t143.5 364.5h-643v143h641q-18 211 -141 344t-330 133q-135 0 -297 -67l-43 135q174 80 350 80q313 0 483 -199.5t170 -513.5q0 -330 -189 -521.5t-476 -191.5q-201 0 -361 70z" />
<glyph unicode="&#x42e;" horiz-adv-x="1775" d="M156 0v1380h178v-594h205q27 289 184.5 454t402.5 165q266 0 421 -193.5t155 -506.5q0 -346 -168 -537t-426 -191q-252 0 -407.5 178.5t-165.5 479.5h-201v-635h-178zM711 684q0 -233 108.5 -398t297 -165t296 165t107.5 410q0 227 -104.5 396.5t-297.5 169.5 q-195 0 -301 -169t-106 -409z" />
<glyph unicode="&#x42f;" horiz-adv-x="1112" d="M29 0q29 49 57 125q14 41 40 121t44 130t51 111.5t72 100.5q49 49 117 71v5q-133 23 -219.5 112.5t-86.5 227.5q0 176 127 280q131 106 396 107q190 0 329 -29v-1362h-178v598h-133q-129 0 -196 -68q-43 -43 -75 -114.5t-63.5 -178t-44.5 -137.5q-25 -57 -45 -100h-192z M285 995q0 -121 95 -191.5t247 -70.5q117 0 151 4v498q-61 16 -170 16q-143 0 -233 -61.5t-90 -194.5z" />
<glyph unicode="&#x430;" horiz-adv-x="987" d="M72 262q0 180 154.5 275.5t441.5 93.5v20q0 37 -7.5 71t-29 73t-69.5 61.5t-120 22.5q-152 0 -260 -74l-41 121q137 86 328 86q207 0 292 -115t85 -289v-370q0 -143 14 -238h-162l-14 125h-6q-45 -63 -124 -105.5t-179 -42.5q-143 0 -223 84t-80 201zM252 283 q0 -84 48 -128t120 -44q92 0 155.5 48t88.5 117q8 27 8 58v172q-420 8 -420 -223z" />
<glyph unicode="&#x431;" horiz-adv-x="1081" d="M82 641q0 350 154 549q68 100 170 153.5t256 79.5q180 31 245 54l-8 -150q-57 -23 -207 -45q-252 -39 -354 -186q-88 -123 -109 -328h7q47 106 142 164.5t204 58.5q188 0 305 -129t117 -360q0 -244 -121 -385.5t-338 -141.5q-125 0 -218.5 56.5t-144.5 154t-75.5 211 t-24.5 244.5zM270 512q0 -90 27 -177t93.5 -155.5t158.5 -68.5q139 0 205.5 110.5t66.5 267.5q0 90 -22.5 168t-88 139.5t-165.5 61.5q-152 0 -226 -135q-49 -88 -49 -211z" />
<glyph unicode="&#x432;" horiz-adv-x="1024" d="M143 0v979q131 23 316 22q442 0 442 -247q0 -88 -58.5 -146.5t-148.5 -79.5v-4q115 -16 183.5 -77.5t68.5 -165.5q0 -293 -522 -293q-121 0 -281 12zM315 117q78 -6 144 -6q121 0 212 37.5t91 134.5q0 98 -84 136t-232 38h-131v-340zM317 573h136q115 0 192.5 38 t77.5 120q0 145 -266 146q-57 0 -140 -9v-295z" />
<glyph unicode="&#x433;" horiz-adv-x="788" d="M145 0v991h609v-143h-430v-848h-179z" />
<glyph unicode="&#x434;" horiz-adv-x="1085" d="M16 131l84 4q63 94 99 203q57 180 57 395v258h662v-856l102 -2l-10 -446h-142l-8 313h-686l-10 -313h-139zM285 137h456v717h-327v-162q0 -209 -52 -370q-28 -99 -77 -185z" />
<glyph unicode="&#x435;" horiz-adv-x="1026" d="M78 479q0 229 127 381t338 152q115 0 199.5 -46t127.5 -120t62.5 -148.5t19.5 -150.5q0 -53 -6 -84h-696q2 -174 97 -259t243 -85q158 0 274 51l33 -129q-141 -63 -332 -64q-225 0 -356 137.5t-131 364.5zM252 592h526q2 109 -56 200t-194 91q-125 0 -194.5 -89 t-81.5 -202z" />
<glyph unicode="&#x436;" horiz-adv-x="1366" d="M12 0q20 39 111 276q47 123 117.5 187.5t179.5 77.5l-391 450h204l330 -432h35v432h172v-432h35l328 432h206l-391 -450q207 -23 297 -262q84 -231 109 -279h-180q-37 66 -91 227q-45 117 -112.5 164t-169.5 47h-31v-438h-172v438h-31q-109 0 -175 -47t-111 -166 q-70 -184 -93 -225h-176z" />
<glyph unicode="&#x437;" horiz-adv-x="882" d="M57 59l47 123q121 -70 263 -69q111 0 177 47t66 123q0 170 -288 170h-89l-2 122h86q113 0 183.5 46.5t70.5 115.5q0 66 -53 106t-139 40q-123 0 -240 -72l-45 111q147 90 330 90q82 0 154.5 -23.5t127 -85t54.5 -151.5q0 -86 -66.5 -146.5t-156.5 -79.5v-4 q117 -12 193.5 -77.5t76.5 -170.5q0 -147 -126 -220.5t-302 -73.5q-179 -1 -322 79z" />
<glyph unicode="&#x438;" horiz-adv-x="1134" d="M143 0v991h172v-418q0 -184 -12 -397l6 -2q113 223 162 305l309 512h211v-991h-172v420q0 166 12 407h-4q-104 -205 -165 -309q-53 -88 -165 -275.5t-145 -242.5h-209z" />
<glyph unicode="&#x439;" horiz-adv-x="1134" d="M143 0v991h172v-418q0 -184 -12 -397l6 -2q113 223 162 305l309 512h211v-991h-172v420q0 166 12 407h-4q-104 -205 -165 -309q-53 -88 -165 -275.5t-145 -242.5h-209zM301 1395h131q4 -70 38 -113t93 -43q121 0 139 156h129q-8 -123 -79.5 -188.5t-192.5 -65.5 q-127 0 -189.5 69.5t-68.5 184.5z" />
<glyph unicode="&#x43a;" horiz-adv-x="980" d="M150 0v991h178v-430h43l370 430h220l-431 -446q115 -14 194 -89t140 -214q82 -203 105 -242h-189q-31 51 -92 203q-51 123 -127 178t-199 55h-34v-436h-178z" />
<glyph unicode="&#x43b;" horiz-adv-x="1038" d="M4 127q61 10 98 41q63 47 83 143.5t20 284.5v395h690v-991h-180v850h-340v-254q0 -229 -33 -359.5t-123 -189.5q-78 -61 -196 -61z" />
<glyph unicode="&#x43c;" horiz-adv-x="1308" d="M86 0l76 991h221l178 -499q57 -158 90 -273h4q35 119 119 340l158 432h223l70 -991h-172l-23 473q-2 49 -8 169t-8 185h-6q-25 -80 -111 -321l-190 -500h-129l-177 492q-51 145 -100 327h-8q-10 -270 -14 -356l-27 -469h-166z" />
<glyph unicode="&#x43d;" horiz-adv-x="1118" d="M143 0v991h181v-399h469v399h180v-991h-180v449h-469v-449h-181z" />
<glyph unicode="&#x43e;" horiz-adv-x="1124" d="M78 487q0 240 140 382.5t351 142.5q213 0 345.5 -141.5t132.5 -366.5q0 -256 -147.5 -391.5t-346.5 -135.5q-205 0 -340 140.5t-135 369.5zM262 494q0 -164 84 -272.5t215 -108.5q129 0 215 109.5t86 275.5q0 145 -74.5 262t-222 117t-225.5 -113.5t-78 -269.5z" />
<glyph unicode="&#x43f;" horiz-adv-x="1107" d="M143 0v991h822v-991h-181v850h-460v-850h-181z" />
<glyph unicode="&#x440;" horiz-adv-x="1165" d="M141 991h160l10 -170h4q113 190 353 191q182 0 302 -139.5t120 -362.5q0 -254 -132.5 -393.5t-320.5 -139.5q-98 0 -179 41t-126 115h-4v-539h-178v1074q-1 135 -9 323zM328 403q0 -43 8 -73q25 -94 99.5 -152.5t170.5 -58.5q141 0 221 104.5t80 278.5q0 156 -78.5 261 t-216.5 105q-94 0 -170.5 -60t-101.5 -161q-12 -45 -12 -72v-172z" />
<glyph unicode="&#x441;" horiz-adv-x="917" d="M78 483q0 231 146.5 380t385.5 149q152 0 250 -54l-41 -137q-90 47 -209 47q-164 0 -257 -107.5t-93 -266.5q0 -170 97.5 -270.5t246.5 -100.5q115 0 221 47l31 -135q-121 -57 -285 -58q-223 0 -358 139.5t-135 366.5z" />
<glyph unicode="&#x442;" horiz-adv-x="841" d="M20 850v141h799v-141h-309v-850h-180v850h-310z" />
<glyph unicode="&#x443;" horiz-adv-x="964" d="M18 991h197l215 -585q37 -96 66 -203h4q2 6 25.5 85t37.5 122l197 581h190l-270 -706q-100 -262 -175 -401.5t-165 -219.5q-113 -94 -221 -115l-45 150q86 27 157 88q92 72 152 201q14 33 14 43q0 16 -14 47z" />
<glyph unicode="&#x444;" horiz-adv-x="1312" d="M78 487q0 233 139 367.5t358 153.5l-2 442h168l-2 -440q223 -16 360.5 -151.5t137.5 -360.5q0 -236 -139.5 -369t-358.5 -147l2 -388h-168l2 386q-221 14 -359 148t-138 359zM256 492q0 -154 87 -261.5t232 -126.5v781q-147 -18 -233 -127.5t-86 -265.5zM739 102 q147 20 233.5 130t86.5 265.5t-86 261t-234 126.5v-783z" />
<glyph unicode="&#x445;" horiz-adv-x="948" d="M16 0l353 506l-336 485h200l142 -213q49 -70 102 -160h4q37 66 101 162l137 211h196l-337 -479l346 -512h-203l-148 223q-41 61 -106 172h-4q-45 -80 -105 -172l-143 -223h-199z" />
<glyph unicode="&#x446;" horiz-adv-x="1126" d="M143 0v991h181v-850h456v850h178v-856l103 -2l-10 -446h-142l-8 313h-758z" />
<glyph unicode="&#x447;" horiz-adv-x="1054" d="M133 635v356h180v-334q0 -102 46.5 -156.5t158.5 -54.5q121 0 213 68v477h178v-1003h-178v399h-2q-117 -74 -270 -74q-147 0 -236.5 80t-89.5 242z" />
<glyph unicode="&#x448;" horiz-adv-x="1511" d="M143 0v991h179v-850h344v850h178v-850h344v850h178v-991h-1223z" />
<glyph unicode="&#x449;" horiz-adv-x="1533" d="M143 0v991h179v-850h346v850h178v-850h344v850h176v-856l102 -2l-10 -446h-141l-6 313h-1168z" />
<glyph unicode="&#x44a;" horiz-adv-x="1185" d="M29 850v141h473v-334q78 10 170 11q113 0 207 -29t163.5 -107.5t69.5 -199.5q0 -141 -104 -230q-133 -113 -420 -112q-133 0 -266 14v846h-293zM500 127q74 -8 135 -8q127 0 212 49t85 158q0 80 -49 130t-112.5 66.5t-143.5 16.5q-61 0 -127 -13v-399z" />
<glyph unicode="&#x44b;" horiz-adv-x="1361" d="M143 4v987h181v-336q74 12 159 13q180 0 305 -82t125 -252q0 -141 -104 -230q-135 -115 -399 -114q-134 0 -267 14zM322 127q49 -8 124 -8q119 0 203 51t84 160q0 111 -81 160t-197 49q-78 0 -133 -13v-399zM1038 0v991h179v-991h-179z" />
<glyph unicode="&#x44c;" horiz-adv-x="1019" d="M143 4v987h181v-334q72 10 163 11q90 0 167 -16.5t145.5 -52.5t107.5 -104.5t39 -162.5q0 -139 -104 -228q-135 -115 -432 -114q-134 0 -267 14zM322 127q49 -8 135 -8q123 0 216 49t93 160q0 80 -53.5 130t-119 65.5t-142.5 15.5q-66 0 -129 -13v-399z" />
<glyph unicode="&#x44d;" horiz-adv-x="950" d="M57 47l37 127q123 -53 246 -53q150 0 244 87t104 234h-495v125h497q-12 135 -98 220t-244 85q-121 0 -235 -55l-39 119q133 76 305 76q225 0 358 -140q135 -141 135 -380q0 -223 -140 -367.5t-384 -144.5q-166 -1 -291 67z" />
<glyph unicode="&#x44e;" horiz-adv-x="1443" d="M145 0v991h177v-418h170q23 199 142.5 319t295.5 120q195 0 315.5 -139.5t120.5 -368.5q0 -236 -127 -381.5t-319 -145.5q-180 0 -299 124t-134 335h-165v-436h-177zM659 489q0 -156 70 -267t195 -111q127 0 194.5 116.5t67.5 272.5q0 152 -67.5 264.5t-192.5 112.5 t-196 -114t-71 -274z" />
<glyph unicode="&#x44f;" horiz-adv-x="1015" d="M23 0q35 51 61 113q10 20 36.5 95t53.5 123t66 81q49 43 112 57v4q-106 12 -184 75.5t-78 172.5q0 141 131 215q113 68 334 68q174 0 317 -21v-983h-178v416h-133q-106 0 -164 -58q-27 -20 -49 -56t-34.5 -65.5t-31 -81t-26.5 -73.5q-14 -37 -41 -82h-192zM276 711 q0 -86 84 -130t181 -44h153v335q-76 10 -149 11q-68 0 -124 -13.5t-100.5 -54.5t-44.5 -104z" />
<glyph unicode="&#x451;" horiz-adv-x="1026" d="M78 479q0 229 127 381t338 152q115 0 199.5 -46t127.5 -120t62.5 -148.5t19.5 -150.5q0 -53 -6 -84h-696q2 -174 97 -259t243 -85q158 0 274 51l33 -129q-141 -63 -332 -64q-225 0 -356 137.5t-131 364.5zM252 592h526q2 109 -56 200t-194 91q-125 0 -194.5 -89 t-81.5 -202zM258 1272q0 43 29.5 73.5t74.5 30.5q41 0 70 -29.5t29 -74.5q0 -43 -29 -74t-74 -31q-43 0 -71.5 31t-28.5 74zM637 1272q0 43 29.5 73.5t72.5 30.5t72 -29.5t29 -74.5q0 -43 -29 -74t-74 -31q-43 0 -71.5 31t-28.5 74z" />
<glyph unicode="&#x452;" horiz-adv-x="1140" d="M14 1151v129h168v174h180v-174h463v-129h-463v-291h5q127 141 301 141q182 0 282 -161q109 -160 109 -432q0 -418 -203 -588q-117 -100 -256 -113l-33 139q121 25 191 103q121 137 121 446q0 219 -78 348q-68 113 -188.5 113t-219.5 -119q-31 -43 -31 -112v-625h-180 v1151h-168z" />
<glyph unicode="&#x453;" horiz-adv-x="788" d="M145 0v991h609v-143h-430v-848h-179zM332 1126l180 293h197l-250 -293h-127z" />
<glyph unicode="&#x454;" horiz-adv-x="942" d="M78 487q0 236 151.5 380.5t388.5 144.5q156 0 267 -66l-43 -129q-115 55 -226 55q-156 0 -246.5 -86t-107.5 -219h502v-125h-500q10 -147 106.5 -235t241.5 -88q115 0 238 51l35 -129q-127 -63 -301 -64q-233 0 -369.5 143.5t-136.5 366.5z" />
<glyph unicode="&#x455;" horiz-adv-x="811" d="M82 47l43 135q117 -70 240 -69q92 0 141 41t49 106q0 63 -41 103t-141 77q-264 96 -264 281q0 123 94 207t248 84q147 0 241 -62l-43 -131q-94 59 -203 60q-78 0 -120.5 -39t-42.5 -97q0 -59 42 -94t144 -76q131 -49 195.5 -119.5t64.5 -177.5q0 -135 -98.5 -217 t-270.5 -82q-159 0 -278 70z" />
<glyph unicode="&#x456;" horiz-adv-x="479" d="M127 1270q0 47 31.5 79.5t81 32.5t80 -31.5t30.5 -80.5q0 -47 -30.5 -79t-83.5 -32q-49 0 -79 32t-30 79zM150 0v991h180v-991h-180z" />
<glyph unicode="&#x457;" horiz-adv-x="479" d="M-51 1272q0 43 29.5 73.5t74.5 30.5q41 0 70 -29.5t29 -74.5q0 -43 -29 -74t-74 -31q-43 0 -71.5 31t-28.5 74zM150 0v991h180v-991h-180zM328 1272q0 43 29.5 73.5t72.5 30.5t71.5 -29.5t28.5 -74.5q0 -43 -28.5 -74t-73.5 -31q-43 0 -71.5 31t-28.5 74z" />
<glyph unicode="&#x458;" horiz-adv-x="497" d="M-94 -291q137 10 196 78q39 43 54.5 121t15.5 250v833h180v-903q0 -287 -119 -407q-55 -55 -141 -84t-166 -29zM150 1270q0 47 31.5 79.5t80.5 32.5t80 -32.5t31 -79.5t-31 -79t-84 -32q-47 0 -77.5 33t-30.5 78z" />
<glyph unicode="&#x459;" horiz-adv-x="1587" d="M4 129q61 10 98 39q66 45 89.5 147.5t23.5 282.5v393h680v-338q72 10 162 11q88 0 164.5 -16.5t145.5 -53.5t107.5 -104.5t38.5 -159.5q0 -139 -98 -224q-135 -117 -432 -116q-135 0 -268 14v846h-332v-252q0 -223 -37 -356t-131 -193q-72 -61 -195 -61zM893 127 q49 -8 133 -8q123 0 215 48t92 159q0 115 -89 163t-208 48q-78 0 -143 -13v-397z" />
<glyph unicode="&#x45a;" horiz-adv-x="1601" d="M143 0v991h181v-368h417v368h181v-346q68 10 168 10q176 0 307 -79.5t131 -247.5q0 -139 -101 -226q-129 -113 -417 -112q-117 0 -269 12v481h-417v-483h-181zM920 125q104 -6 135 -6q117 0 205 47t88 156q0 113 -85 159.5t-208 46.5q-68 0 -135 -10v-393z" />
<glyph unicode="&#x45b;" horiz-adv-x="1169" d="M14 1151v129h168v174h180v-174h414v-129h-414v-322h5q51 78 122 121q86 51 191 51q160 0 253 -109.5t93 -311.5v-580h-180v559q0 131 -55.5 212t-174.5 81q-86 0 -150.5 -52t-90.5 -126q-12 -39 -13 -94v-580h-180v1151h-168z" />
<glyph unicode="&#x45c;" horiz-adv-x="980" d="M150 0v991h178v-430h43l370 430h220l-431 -446q115 -14 194 -89t140 -214q82 -203 105 -242h-189q-31 51 -92 203q-51 123 -127 178t-199 55h-34v-436h-178zM395 1126l178 293h199l-250 -293h-127z" />
<glyph unicode="&#x45e;" horiz-adv-x="964" d="M18 991h197l215 -585q37 -96 66 -203h4q2 6 25.5 85t37.5 122l197 581h190l-270 -706q-100 -262 -175 -401.5t-165 -219.5q-113 -94 -221 -115l-45 150q86 27 157 88q92 72 152 201q14 33 14 43q0 16 -14 47zM217 1395h131q4 -70 38 -113t93 -43q121 0 139 156h130 q-8 -123 -80 -188.5t-193 -65.5q-127 0 -189.5 69.5t-68.5 184.5z" />
<glyph unicode="&#x45f;" horiz-adv-x="1101" d="M143 0v991h181v-850h454v850h180v-991h-321l-12 -322h-144l-14 322h-324z" />
<glyph unicode="&#x490;" horiz-adv-x="915" d="M156 0v1380h596l32 252h134l-23 -401h-561v-1231h-178z" />
<glyph unicode="&#x491;" horiz-adv-x="802" d="M145 0v991h469l25 223h129l-12 -366h-432v-848h-179z" />
<glyph unicode="&#x4d9;" horiz-adv-x="671" d="M72 442q0 57 6 84h696q-2 174 -95 259t-242.5 85t-276.5 -51l-33 127q150 66 334 66q225 0 355 -137.5t130 -364.5q0 -229 -127 -379.5t-338 -150.5q-115 0 -199.5 46t-127.5 119.5t-62.5 147t-19.5 149.5zM246 397q-2 -109 56 -198.5t194 -89.5q127 0 195.5 88t80.5 200 h-526z" />
<glyph unicode="&#x1e80;" horiz-adv-x="1732" d="M31 1380h188l164 -698q63 -268 102 -477h4q23 139 113 479l184 696h187l168 -700q74 -307 96 -473h4q27 143 111 477l182 696h182l-391 -1380h-186l-174 719q-66 272 -91 450h-4q-31 -186 -106 -450l-197 -719h-186zM559 1694h217l191 -238h-146z" />
<glyph unicode="&#x1e81;" horiz-adv-x="1507" d="M37 991h184l133 -504q59 -246 72 -315h6q23 100 88 313l162 506h152l153 -495q55 -180 88 -324h6q20 123 76 322l141 497h179l-320 -991h-164l-151 473q-59 186 -88 326h-4q-29 -141 -91 -328l-159 -471h-164zM485 1419h197l180 -293h-127z" />
<glyph unicode="&#x1e82;" horiz-adv-x="1732" d="M31 1380h188l164 -698q63 -268 102 -477h4q23 139 113 479l184 696h187l168 -700q74 -307 96 -473h4q27 143 111 477l182 696h182l-391 -1380h-186l-174 719q-66 272 -91 450h-4q-31 -186 -106 -450l-197 -719h-186zM786 1454l191 240h217l-262 -240h-146z" />
<glyph unicode="&#x1e83;" horiz-adv-x="1507" d="M37 991h184l133 -504q59 -246 72 -315h6q23 100 88 313l162 506h152l153 -495q55 -180 88 -324h6q20 123 76 322l141 497h179l-320 -991h-164l-151 473q-59 186 -88 326h-4q-29 -141 -91 -328l-159 -471h-164zM662 1126l180 293h196l-250 -293h-126z" />
<glyph unicode="&#x1e84;" horiz-adv-x="1732" d="M31 1380h188l164 -698q63 -268 102 -477h4q23 139 113 479l184 696h187l168 -700q74 -307 96 -473h4q27 143 111 477l182 696h182l-391 -1380h-186l-174 719q-66 272 -91 450h-4q-31 -186 -106 -450l-197 -719h-186zM584 1581q0 43 28.5 72.5t71.5 29.5t70.5 -29.5 t27.5 -72.5q0 -45 -27.5 -74.5t-72.5 -29.5q-43 0 -70.5 30.5t-27.5 73.5zM963 1581q0 43 29.5 72.5t72.5 29.5t70.5 -29.5t27.5 -72.5q0 -45 -27.5 -74.5t-74.5 -29.5q-43 0 -70.5 30.5t-27.5 73.5z" />
<glyph unicode="&#x1e85;" horiz-adv-x="1507" d="M37 991h184l133 -504q59 -246 72 -315h6q23 100 88 313l162 506h152l153 -495q55 -180 88 -324h6q20 123 76 322l141 497h179l-320 -991h-164l-151 473q-59 186 -88 326h-4q-29 -141 -91 -328l-159 -471h-164zM461 1272q0 43 29.5 73.5t74.5 30.5q41 0 70 -29.5t29 -74.5 q0 -43 -29 -74t-74 -31q-43 0 -71.5 31t-28.5 74zM842 1272q0 43 29.5 73.5t72.5 30.5t71.5 -29.5t28.5 -74.5q0 -43 -28.5 -74t-73.5 -31q-43 0 -71.5 31t-28.5 74z" />
<glyph unicode="&#x1ea0;" horiz-adv-x="1253" d="M51 0l471 1380h213l471 -1380h-190l-148 434h-489l-143 -434h-185zM416 573h418l-138 398q-29 84 -71 252h-4q-43 -172 -70 -250zM516 -268q0 43 31 73.5t74 30.5t71.5 -30.5t28.5 -73.5q0 -45 -28.5 -76t-74.5 -31q-43 0 -72.5 32t-29.5 75z" />
<glyph unicode="&#x1ea1;" horiz-adv-x="987" d="M72 262q0 180 154.5 275.5t441.5 93.5v20q0 37 -7.5 71t-29 73t-69.5 61.5t-120 22.5q-152 0 -260 -74l-41 121q137 86 328 86q207 0 292 -115t85 -289v-370q0 -143 14 -238h-162l-14 125h-6q-45 -63 -124 -105.5t-179 -42.5q-143 0 -223 84t-80 201zM252 283 q0 -84 48 -128t120 -44q92 0 155.5 48t88.5 117q8 27 8 58v172q-420 8 -420 -223zM389 -270q0 45 31 75.5t74 30.5t71.5 -30.5t28.5 -75.5q0 -43 -28.5 -74t-73.5 -31q-43 0 -73 31t-30 74z" />
<glyph unicode="&#x1ea2;" horiz-adv-x="1253" d="M51 0l471 1380h213l471 -1380h-190l-148 434h-489l-143 -434h-185zM416 573h418l-138 398q-29 84 -71 252h-4q-47 -184 -70 -250zM451 1683q70 137 202 138q72 0 121 -43t49 -107q0 -45 -23.5 -77.5t-63.5 -69.5t-60 -72l-94 27q14 41 60 88t46 82q0 31 -18.5 48 t-48.5 17q-51 0 -103 -72z" />
<glyph unicode="&#x1ea3;" horiz-adv-x="987" d="M72 262q0 180 154.5 275.5t441.5 93.5v20q0 37 -7.5 71t-29 73t-69.5 61.5t-120 22.5q-152 0 -260 -74l-41 121q137 86 328 86q207 0 292 -115t85 -289v-370q0 -143 14 -238h-162l-14 125h-6q-45 -63 -124 -105.5t-179 -42.5q-143 0 -223 84t-80 201zM252 283 q0 -84 48 -128t120 -44q92 0 155.5 48t88.5 117q8 27 8 58v172q-420 8 -420 -223zM303 1341q68 135 201 136q76 0 125 -43t49 -111q0 -66 -70.5 -137.5t-85.5 -102.5l-96 25q12 43 64.5 99.5t52.5 95.5q0 31 -19.5 49t-50.5 18q-53 0 -100 -72z" />
<glyph unicode="&#x1ea4;" horiz-adv-x="1253" d="M51 0l471 1380h213l473 -1380h-190l-150 434h-489l-143 -434h-185zM385 1452l188 234h129l195 -234h-143l-113 143h-4l-115 -143h-137zM416 573h418l-138 398q-29 84 -71 252h-4q-47 -184 -70 -250zM799 1626l172 215h182l-248 -215h-106z" />
<glyph unicode="&#x1ea5;" horiz-adv-x="987" d="M72 262q0 180 154.5 275.5t441.5 93.5v20q0 37 -7.5 71t-29 73t-69.5 61.5t-120 22.5q-152 0 -260 -74l-41 121q137 86 328 86q207 0 292 -115t85 -289v-370q0 -143 14 -238h-162l-14 125h-6q-45 -63 -124 -105.5t-179 -42.5q-143 0 -223 84t-80 201zM240 1126l172 293 h133l176 -293h-137l-105 193h-4l-104 -193h-131zM252 283q0 -84 48 -128t120 -44q92 0 155.5 48t88.5 117q8 27 8 58v172q-420 8 -420 -223zM664 1317l141 268h166l-203 -268h-104z" />
<glyph unicode="&#x1ea6;" horiz-adv-x="1253" d="M51 0l469 1380h215l471 -1380h-190l-148 434h-489l-143 -434h-185zM373 1452l188 234h129l195 -234h-144l-112 143h-4l-115 -143h-137zM416 573h418l-138 398q-29 84 -71 252h-7q-31 -135 -67 -250zM690 1804h184l150 -215h-111z" />
<glyph unicode="&#x1ea7;" horiz-adv-x="987" d="M72 262q0 180 154.5 275.5t441.5 93.5v20q0 37 -7.5 71t-29 73t-69.5 61.5t-120 22.5q-152 0 -260 -74l-41 121q137 86 328 86q207 0 292 -115t85 -289v-370q0 -147 16 -238h-162l-16 125h-6q-45 -63 -124 -105.5t-179 -42.5q-143 0 -223 84t-80 201zM238 1126l172 293 h133l176 -293h-137l-105 193h-4l-104 -193h-131zM252 283q0 -84 48 -128t120 -44q92 0 155.5 48t88.5 117q8 25 8 58v172q-420 8 -420 -223zM557 1585h164l129 -268h-102z" />
<glyph unicode="&#x1ea8;" horiz-adv-x="1253" d="M53 0l469 1380h213l471 -1380h-190l-148 434h-489l-141 -434h-185zM377 1454l190 234h129l193 -234h-141l-115 141h-4l-113 -141h-139zM416 573h415l-135 398q-29 84 -71 252h-4q-43 -172 -70 -250zM725 1769q63 131 195 132q70 0 115.5 -42t45.5 -102 q0 -57 -62.5 -119.5t-78.5 -93.5l-86 25q14 39 60.5 87t46.5 83q0 29 -20.5 47t-49.5 18q-53 0 -100 -73z" />
<glyph unicode="&#x1ea9;" horiz-adv-x="987" d="M72 262q0 180 154.5 275.5t441.5 93.5v20q0 37 -7.5 71t-29 73t-69.5 61.5t-120 22.5q-152 0 -260 -74l-41 121q137 86 328 86q207 0 292 -115t85 -289v-370q0 -147 16 -238h-164l-14 125h-6q-45 -63 -124 -105.5t-179 -42.5q-143 0 -223 84t-80 201zM233 1126l173 293 h133l176 -293h-137l-105 193h-4l-104 -193h-132zM252 283q0 -84 48 -128t120 -44q92 0 155.5 48t88.5 117q8 25 8 58v172q-420 8 -420 -223zM557 1524q66 131 195 131q68 0 114.5 -42t46.5 -104q0 -45 -22.5 -75.5t-59 -65.5t-57.5 -70l-90 25q14 39 59 86t45 82 q0 29 -19 47t-48 18q-51 0 -98 -73z" />
<glyph unicode="&#x1eaa;" horiz-adv-x="1253" d="M51 0l471 1380h213l471 -1380h-190l-148 434h-489l-143 -434h-185zM350 1454l209 234h137l215 -234h-151l-129 141h-4l-131 -141h-146zM383 1714q-2 88 37 141.5t102 53.5q41 0 127 -45q66 -33 86 -33q51 0 58 84h94q6 -197 -139 -197q-45 0 -123 43q-63 35 -90 35 q-47 0 -52 -82h-100zM416 573h418l-138 398q-29 84 -71 252h-4q-47 -184 -70 -250z" />
<glyph unicode="&#x1eab;" horiz-adv-x="987" d="M72 262q0 180 154.5 275.5t441.5 93.5v20q0 37 -7.5 71t-29 73t-69.5 61.5t-120 22.5q-152 0 -260 -74l-41 121q137 86 328 86q207 0 292 -115t85 -289v-370q0 -143 14 -238h-162l-14 125h-6q-45 -63 -124 -105.5t-179 -42.5q-143 0 -223 84t-80 201zM244 1126l182 240 h133l186 -240h-141l-110 150h-5l-108 -150h-137zM248 1391q-2 88 36 141t103 53q37 0 127 -45q66 -33 86 -33q49 0 55 84h97q4 -197 -140 -196q-43 0 -125 43q-66 33 -88 32q-47 0 -53 -79h-98zM252 283q0 -84 48 -128t120 -44q92 0 155.5 48t88.5 117q8 27 8 58v172 q-420 8 -420 -223z" />
<glyph unicode="&#x1eac;" horiz-adv-x="1253" d="M51 0l471 1380h213l471 -1380h-190l-148 434h-489l-143 -434h-185zM352 1454l209 234h137l215 -234h-151l-129 141h-4l-131 -141h-146zM416 573h418l-138 398q-29 84 -71 252h-4q-47 -184 -70 -250zM518 -266q0 41 30 71.5t73 30.5q41 0 69.5 -30.5t28.5 -71.5 q0 -43 -28.5 -74t-72 -31t-72 31t-28.5 74z" />
<glyph unicode="&#x1ead;" horiz-adv-x="987" d="M72 262q0 180 154.5 275.5t441.5 93.5v20q0 37 -7.5 71t-29 73t-69.5 61.5t-120 22.5q-152 0 -260 -74l-41 121q137 86 328 86q207 0 292 -115t85 -289v-370q0 -143 14 -238h-162l-14 125h-6q-45 -63 -124 -105.5t-179 -42.5q-143 0 -223 84t-80 201zM238 1126l190 293 h127l197 -293h-138l-120 193h-5l-116 -193h-135zM252 283q0 -84 48 -128t120 -44q92 0 155.5 48t88.5 117q8 27 8 58v172q-420 8 -420 -223zM389 -270q0 45 31 75.5t74 30.5t71.5 -30.5t28.5 -75.5q0 -43 -28.5 -74t-73.5 -31q-43 0 -73 31t-30 74z" />
<glyph unicode="&#x1eae;" horiz-adv-x="1253" d="M53 0l469 1380h213l473 -1380h-192l-148 434h-487l-143 -434h-185zM379 1642h98q29 -100 158 -100t160 100h96q-12 -88 -79 -149t-179.5 -61t-177 59t-76.5 151zM416 573h418l-138 398q-29 84 -71 252h-4q-45 -178 -70 -250zM559 1620l154 215h186l-227 -215h-113z" />
<glyph unicode="&#x1eaf;" horiz-adv-x="987" d="M72 262q0 180 154.5 275.5t441.5 93.5v20q0 37 -7.5 71t-29 73t-69.5 61.5t-120 22.5q-152 0 -260 -74l-41 121q137 86 328 86q207 0 292 -115t85 -289v-370q0 -143 14 -238h-162l-14 125h-6q-45 -63 -124 -105.5t-179 -42.5q-143 0 -223 84t-80 201zM221 1346h103 q10 -61 53 -101.5t108 -40.5q74 0 117 42t47 100h103q-2 -115 -76 -184.5t-191 -69.5q-127 0 -194.5 75t-69.5 179zM252 283q0 -84 48 -128t120 -44q92 0 155.5 48t88.5 117q8 27 8 58v172q-420 8 -420 -223zM410 1315l163 270h172l-227 -270h-108z" />
<glyph unicode="&#x1eb0;" horiz-adv-x="1253" d="M51 0l469 1380h215l471 -1380h-190l-148 434h-489l-143 -434h-185zM379 1835h188l154 -215h-113zM381 1642h98q25 -100 156 -100t162 100h94q-10 -88 -76.5 -149t-181.5 -61q-113 0 -176.5 59t-75.5 151zM416 573h415l-137 398q-27 82 -69 252h-7q-29 -123 -67 -250z" />
<glyph unicode="&#x1eb1;" horiz-adv-x="987" d="M72 262q0 180 154.5 275.5t441.5 93.5v20q0 37 -7.5 71t-29 73t-69.5 61.5t-120 22.5q-150 0 -258 -74l-41 121q137 86 326 86q207 0 292 -115t85 -289v-370q0 -143 14 -238h-162l-16 125h-4q-45 -63 -124 -105.5t-179 -42.5q-143 0 -223 84t-80 201zM221 1346h103 q10 -61 53 -101.5t108 -40.5q74 0 117 42t47 100h101q-2 -115 -75 -185.5t-190 -70.5q-127 0 -194.5 75t-69.5 181zM229 1583h174l164 -270h-110zM252 283q0 -84 48 -128t120 -44q92 0 155.5 48t88.5 117q8 25 8 58v172q-420 8 -420 -223z" />
<glyph unicode="&#x1eb2;" horiz-adv-x="1253" d="M51 0l471 1380h213l471 -1380h-190l-148 434h-489l-143 -434h-185zM381 1642h98q29 -100 158 -100q131 0 158 100h96q-10 -88 -76.5 -149t-179.5 -61t-177.5 59t-76.5 151zM416 573h415l-135 398q-29 84 -71 252h-4q-47 -184 -70 -250zM449 1819q63 131 194 131 q68 0 115 -42t47 -102q0 -45 -22.5 -76.5t-60.5 -66.5t-58 -70l-89 25q14 39 59.5 87t45.5 81q0 29 -19.5 47t-48.5 18q-51 0 -98 -73z" />
<glyph unicode="&#x1eb3;" horiz-adv-x="987" d="M72 262q0 180 154.5 275.5t441.5 93.5v20q0 37 -7.5 71t-29 73t-69.5 61.5t-120 22.5q-152 0 -258 -74l-41 121q137 86 326 86q207 0 292 -115t85 -289v-370q0 -147 16 -238h-164l-14 125h-6q-45 -63 -124 -105.5t-179 -42.5q-143 0 -223 84t-80 201zM217 1346h102 q10 -61 53.5 -101.5t108.5 -40.5q74 0 117 42t47 100h103q-2 -115 -76 -184.5t-191 -69.5q-127 0 -194.5 74t-69.5 180zM252 283q0 -84 48 -128t120 -44q92 0 155.5 48t88.5 117q8 25 8 58v172q-420 8 -420 -223zM291 1524q66 131 194 131q70 0 118 -43t48 -103 q0 -45 -22.5 -75.5t-61.5 -65.5t-59 -70l-90 23q14 39 59 87t45 83q0 29 -19.5 47t-47.5 18q-51 0 -99 -73z" />
<glyph unicode="&#x1eb4;" horiz-adv-x="1253" d="M51 0l469 1380h215l471 -1380h-190l-148 434h-489l-143 -434h-185zM369 1642h96q29 -100 158 -100q131 0 161 100h97q-12 -88 -79 -149t-181 -61q-113 0 -176.5 59t-75.5 151zM375 1712q4 78 40 127t99 49q45 0 127 -43q61 -35 86 -35q51 0 57 84h97q4 -197 -140 -196 q-47 0 -125 43q-63 35 -90 35q-41 0 -49 -64h-102zM416 573h415l-135 398q-29 84 -71 252h-4q-37 -145 -70 -250z" />
<glyph unicode="&#x1eb5;" horiz-adv-x="987" d="M72 262q0 180 154.5 275.5t441.5 93.5v20q0 37 -7.5 71t-29 73t-69.5 61.5t-120 22.5q-152 0 -260 -74l-41 121q137 86 328 86q207 0 292 -115t85 -289v-370q0 -143 14 -238h-162l-14 125h-6q-45 -63 -124 -105.5t-179 -42.5q-143 0 -223 84t-80 201zM233 1346h101 q10 -63 52 -104.5t106 -41.5q72 0 112.5 44t46.5 102h103q-4 -115 -75 -184.5t-187 -69.5q-127 0 -192 74t-67 180zM244 1427q4 78 39.5 127.5t97.5 49.5q45 0 127 -43q57 -33 88 -33q51 0 55 82h97q4 -197 -140 -197q-43 0 -125 43q-63 35 -88 35q-43 0 -51 -64h-100z M252 283q0 -84 48 -128t120 -44q92 0 155.5 48t88.5 117q8 27 8 58v172q-420 8 -420 -223z" />
<glyph unicode="&#x1eb6;" horiz-adv-x="1253" d="M51 0l471 1380h213l471 -1380h-190l-148 434h-489l-143 -434h-185zM373 1704h106q23 -100 148 -100q129 0 147 100h105q-4 -96 -67.5 -156.5t-188.5 -60.5q-123 0 -184.5 59.5t-65.5 157.5zM416 573h418l-138 398q-29 84 -71 252h-4q-47 -184 -70 -250zM522 -266 q0 41 30 71.5t73 30.5q41 0 69.5 -30.5t28.5 -71.5q0 -43 -28.5 -74t-71.5 -31t-72 31t-29 74z" />
<glyph unicode="&#x1eb7;" horiz-adv-x="987" d="M72 262q0 180 154.5 275.5t441.5 93.5v20q0 37 -7.5 71t-29 73t-69.5 61.5t-120 22.5q-152 0 -260 -74l-41 121q137 86 328 86q207 0 292 -115t85 -289v-370q0 -143 14 -238h-162l-14 125h-6q-45 -63 -124 -105.5t-179 -42.5q-143 0 -223 84t-80 201zM240 1397h106 q10 -63 48 -102.5t98 -39.5q70 0 106.5 41t42.5 101h107q0 -115 -70 -185.5t-184 -70.5q-127 0 -190.5 75t-63.5 181zM252 283q0 -84 48 -128t120 -44q92 0 155.5 48t88.5 117q8 27 8 58v172q-420 8 -420 -223zM389 -270q0 45 31 75.5t74 30.5t71.5 -30.5t28.5 -75.5 q0 -43 -28.5 -74t-73.5 -31q-43 0 -73 31t-30 74z" />
<glyph unicode="&#x1eb8;" horiz-adv-x="1007" d="M154 0v1380h747v-149h-567v-436h534v-148h-534v-497h598v-150h-778zM403 -266q0 41 30 71.5t73 30.5q41 0 69.5 -30.5t28.5 -71.5q0 -43 -28.5 -74t-71.5 -31t-72 31t-29 74z" />
<glyph unicode="&#x1eb9;" horiz-adv-x="1026" d="M78 479q0 229 127 381t338 152q115 0 199.5 -46t127.5 -120t62.5 -148.5t19.5 -150.5q0 -53 -6 -84h-696q2 -174 97 -259t243 -85q158 0 274 51l33 -129q-141 -63 -332 -64q-225 0 -356 137.5t-131 364.5zM252 592h526q2 109 -56 200t-194 91q-125 0 -194.5 -89 t-81.5 -202zM408 -270q0 43 30.5 73.5t73.5 30.5t71.5 -29.5t28.5 -74.5q0 -43 -28.5 -74t-73.5 -31q-43 0 -72.5 31t-29.5 74z" />
<glyph unicode="&#x1eba;" horiz-adv-x="1007" d="M154 0v1380h747v-149h-567v-436h534v-148h-534v-497h598v-150h-778zM367 1686q74 135 202 135q72 0 121 -42t49 -106q0 -45 -23.5 -77.5t-62.5 -69.5t-59 -74l-96 27q16 41 62 89t46 83q0 29 -19.5 46t-49.5 17q-53 0 -101 -72z" />
<glyph unicode="&#x1ebb;" horiz-adv-x="1026" d="M78 479q0 229 127 381t338 152q115 0 199.5 -46t127.5 -120t62.5 -148.5t19.5 -150.5q0 -53 -6 -84h-696q2 -174 97 -259t243 -85q158 0 274 51l33 -129q-141 -63 -332 -64q-225 0 -356 137.5t-131 364.5zM252 592h526q2 109 -56 200t-194 91q-125 0 -194.5 -89 t-81.5 -202zM322 1341q68 135 200 136q76 0 125 -43t49 -111q0 -66 -70.5 -138.5t-84.5 -101.5l-97 25q12 43 64.5 99.5t52.5 95.5q0 31 -19.5 49t-49.5 18q-55 0 -99 -72z" />
<glyph unicode="&#x1ebc;" horiz-adv-x="1007" d="M154 0v1380h747v-149h-567v-436h534v-148h-534v-497h598v-150h-778zM291 1464q-2 94 36 151.5t103 57.5q43 0 121 -41q66 -37 98 -37q25 0 38 16.5t18 63.5h94q4 -199 -137 -198q-47 0 -125 39q-74 39 -97 38q-43 0 -53 -90h-96z" />
<glyph unicode="&#x1ebd;" horiz-adv-x="1026" d="M78 479q0 229 127 381t338 152q115 0 199.5 -46t127.5 -120t62.5 -148.5t19.5 -150.5q0 -53 -6 -84h-696q2 -174 97 -259t243 -85q158 0 274 51l33 -129q-141 -63 -332 -64q-225 0 -356 137.5t-131 364.5zM252 592h526q2 109 -56 200t-194 91q-125 0 -194.5 -89 t-81.5 -202zM260 1161q-2 98 35 155.5t104 57.5q41 0 127 -45q61 -35 88 -35q49 0 56 86h96q4 -207 -139 -206q-45 0 -127 43q-61 37 -88 36q-47 0 -54 -92h-98z" />
<glyph unicode="&#x1ebe;" horiz-adv-x="1007" d="M154 0v1380h747v-149h-567v-436h536l-2 -148h-534v-497h598v-150h-778zM281 1454l190 234h129l195 -234h-144l-114 143h-5l-112 -143h-139zM696 1628l172 215h183l-250 -215h-105z" />
<glyph unicode="&#x1ebf;" horiz-adv-x="1026" d="M78 479q0 229 127 381t338 152q115 0 199.5 -46t127.5 -120t62.5 -148.5t19.5 -150.5q0 -53 -6 -84h-696q2 -174 97 -259t243 -85q158 0 274 51l33 -129q-141 -63 -332 -64q-225 0 -356 137.5t-131 364.5zM252 592h526q2 109 -56 200t-194 91q-125 0 -194.5 -89 t-81.5 -202zM307 1126l172 293h133l176 -293h-137l-104 193h-4l-105 -193h-131zM731 1317l141 268h166l-202 -268h-105z" />
<glyph unicode="&#x1ec0;" horiz-adv-x="1007" d="M154 0v1380h747v-149h-567v-436h536l-2 -148h-534v-497h598v-150h-778zM274 1454l189 234h129l194 -234h-143l-113 143h-4l-114 -143h-138zM592 1804h184l150 -213h-111z" />
<glyph unicode="&#x1ec1;" horiz-adv-x="1026" d="M78 479q0 229 127 381t338 152q115 0 199.5 -46t127.5 -120t62.5 -148.5t19.5 -150.5q0 -57 -8 -84h-694q2 -174 97 -259t243 -85q158 0 274 51l33 -129q-141 -63 -332 -64q-225 0 -356 137.5t-131 364.5zM252 592h526q2 109 -56 200t-194 91q-125 0 -194.5 -89 t-81.5 -202zM299 1126l174 293h131l178 -293h-137l-104 193h-4l-105 -193h-133zM621 1585h163l129 -268h-102z" />
<glyph unicode="&#x1ec2;" horiz-adv-x="1007" d="M156 0v1380h745v-149h-565v-436h534v-148h-534v-497h598v-150h-778zM272 1454l191 234h129l194 -234h-143l-115 143h-4l-112 -143h-140zM621 1769q63 131 194 132q70 0 116 -41t46 -103q0 -57 -62.5 -120.5t-78.5 -92.5l-86 25q14 41 60 88t46 82q0 29 -20.5 48t-49.5 19 q-51 0 -100 -75z" />
<glyph unicode="&#x1ec3;" horiz-adv-x="1026" d="M78 479q0 229 127 381t338 152q115 0 199.5 -46t127.5 -120t62.5 -148.5t19.5 -150.5q0 -57 -8 -84h-694q2 -174 97 -259t243 -85q158 0 274 51l33 -129q-141 -63 -332 -64q-225 0 -356 137.5t-131 364.5zM252 592h526q2 109 -56 200t-194 91q-125 0 -194.5 -89 t-81.5 -202zM289 1126l174 293h131l178 -293h-137l-105 193h-4l-104 -193h-133zM612 1524q70 131 197 131q70 0 117 -43t47 -103q0 -45 -22.5 -75.5t-60.5 -65.5t-59 -70l-90 25q14 39 59.5 86t45.5 82q0 29 -19.5 47t-48.5 18q-51 0 -98 -73z" />
<glyph unicode="&#x1ec4;" horiz-adv-x="1007" d="M154 0v1380h747v-149h-567v-436h534v-148h-534v-497h598v-150h-778zM270 1454l209 234h137l215 -234h-151l-129 141h-4l-131 -141h-146zM303 1714q-2 88 37 141.5t102 53.5q41 0 127 -45q66 -33 86 -33q51 0 58 84h94q6 -197 -139 -197q-45 0 -123 43q-63 35 -90 35 q-47 0 -52 -82h-100z" />
<glyph unicode="&#x1ec5;" horiz-adv-x="1026" d="M78 479q0 229 127 381t338 152q115 0 199.5 -46t127.5 -120t62.5 -148.5t19.5 -150.5q0 -53 -6 -84h-696q2 -174 97 -259t243 -85q158 0 274 51l33 -129q-141 -63 -332 -64q-225 0 -356 137.5t-131 364.5zM252 592h526q2 109 -56 200t-194 91q-125 0 -194.5 -89 t-81.5 -202zM283 1126l184 240h131l186 -240h-141l-108 150h-5l-110 -150h-137zM287 1391q-2 88 35.5 141t103.5 53q37 0 127 -45q66 -33 86 -33q49 0 55 84h97q4 -197 -140 -196q-43 0 -125 43q-66 33 -88 32q-47 0 -53 -79h-98z" />
<glyph unicode="&#x1ec6;" horiz-adv-x="1007" d="M154 0v1380h747v-149h-567v-436h534v-148h-534v-497h598v-150h-778zM256 1454l209 234h137l215 -234h-151l-129 141h-5l-131 -141h-145zM432 -266q0 41 30 71.5t73 30.5q41 0 69.5 -30.5t28.5 -71.5q0 -43 -29 -74t-72 -31t-71.5 31t-28.5 74z" />
<glyph unicode="&#x1ec7;" horiz-adv-x="1026" d="M78 479q0 229 127 381t338 152q115 0 199.5 -46t127.5 -120t62.5 -148.5t19.5 -150.5q0 -53 -6 -84h-696q2 -174 97 -259t243 -85q158 0 274 51l33 -129q-141 -63 -332 -64q-225 0 -356 137.5t-131 364.5zM252 592h526q2 109 -56 200t-194 91q-125 0 -194.5 -89 t-81.5 -202zM256 1126l193 293h124l197 -293h-137l-119 193h-4l-119 -193h-135zM408 -270q0 43 30.5 74.5t73.5 31.5t71.5 -30.5t28.5 -75.5q0 -43 -28.5 -74t-73.5 -31q-43 0 -72.5 31t-29.5 74z" />
<glyph unicode="&#x1ec8;" horiz-adv-x="489" d="M68 1683q68 137 202 138q72 0 121 -43t49 -105q0 -45 -23.5 -78.5t-63.5 -70.5t-60 -72l-94 27q16 41 61 88t45 82q0 66 -67 65q-51 0 -103 -72zM154 0v1380h180v-1380h-180z" />
<glyph unicode="&#x1ec9;" horiz-adv-x="479" d="M51 1343q63 135 201 136q74 0 123 -43t49 -111q0 -66 -70.5 -138.5t-85.5 -101.5l-96 25q12 43 64.5 99.5t52.5 95.5q0 31 -19.5 49t-50.5 18q-55 0 -98 -72zM150 0v991h180v-991h-180z" />
<glyph unicode="&#x1eca;" horiz-adv-x="489" d="M145 -266q0 41 30 71.5t73 30.5q41 0 69.5 -30.5t28.5 -71.5q0 -43 -28.5 -74t-71.5 -31t-72 31t-29 74zM154 0v1380h180v-1380h-180z" />
<glyph unicode="&#x1ecb;" horiz-adv-x="479" d="M127 1270q0 47 31.5 79.5t81 32.5t80 -31.5t30.5 -80.5q0 -47 -30.5 -79t-83.5 -32q-49 0 -79 32t-30 79zM135 -270q0 45 31 75.5t74 30.5t71.5 -30.5t28.5 -75.5q0 -43 -28.5 -74t-73.5 -31q-43 0 -73 31t-30 74zM150 0v991h180v-991h-180z" />
<glyph unicode="&#x1ecc;" horiz-adv-x="1411" d="M74 680q0 326 179 525.5t460 199.5q283 0 452.5 -194.5t169.5 -505.5q0 -342 -182 -535t-459 -193q-274 0 -447 195t-173 508zM262 684q0 -233 120 -397t323 -164q205 0 323.5 164t118.5 409q0 227 -116 395.5t-324 168.5q-211 0 -328 -167t-117 -409zM604 -266 q0 41 30 71.5t73 30.5q41 0 69.5 -30.5t28.5 -71.5q0 -43 -28.5 -74t-71.5 -31t-72 31t-29 74z" />
<glyph unicode="&#x1ecd;" horiz-adv-x="1124" d="M78 487q0 242 140 384.5t351 142.5q213 0 345.5 -141.5t132.5 -368.5q0 -256 -147.5 -391.5t-346.5 -135.5q-205 0 -340 140.5t-135 369.5zM262 494q0 -164 84 -272.5t215 -108.5q129 0 215 109.5t86 275.5q0 90 -28.5 173t-98 145.5t-170.5 62.5q-147 0 -225 -114.5 t-78 -270.5zM457 -270q0 43 30.5 73.5t73.5 30.5t72 -29.5t29 -74.5t-29 -76t-74 -31q-43 0 -72.5 32t-29.5 75z" />
<glyph unicode="&#x1ece;" horiz-adv-x="1411" d="M74 680q0 326 179 525.5t460 199.5q283 0 452.5 -194.5t169.5 -505.5q0 -342 -182 -535t-459 -193q-274 0 -447 195t-173 508zM262 684q0 -233 120 -397t323 -164q205 0 323.5 164t118.5 409q0 227 -116 395.5t-324 168.5q-211 0 -328 -167t-117 -409zM526 1686 q68 137 203 137q72 0 121 -42t49 -106q0 -61 -65.5 -127.5t-79.5 -93.5l-97 27q14 41 60.5 89t46.5 83q0 29 -18.5 46t-49.5 17q-53 0 -100 -71z" />
<glyph unicode="&#x1ecf;" horiz-adv-x="1124" d="M78 487q0 240 140 382.5t351 142.5q213 0 345.5 -141.5t132.5 -366.5q0 -256 -147.5 -391.5t-346.5 -135.5q-205 0 -340 140.5t-135 369.5zM262 494q0 -164 84 -272.5t215 -108.5q129 0 215 109.5t86 275.5q0 145 -74.5 262t-222 117t-225.5 -113.5t-78 -269.5zM373 1341 q63 135 200 136q74 0 123 -43t49 -111q0 -66 -70.5 -137.5t-84.5 -102.5l-96 25q12 43 64 99.5t52 95.5q0 31 -19.5 49t-49.5 18q-55 0 -99 -72z" />
<glyph unicode="&#x1ed0;" horiz-adv-x="1411" d="M74 678q0 324 180 523.5t461 203.5q281 0 451.5 -194.5t168.5 -505.5q0 -342 -182 -535t-458.5 -193t-448.5 194t-172 507zM262 682q0 -233 120 -396t323 -163q205 0 323.5 164t118.5 409q0 143 -46 267t-148.5 210.5t-243.5 86.5q-211 0 -328 -167t-119 -411zM469 1456 l188 234h131l193 -234h-143l-113 143h-4l-113 -143h-139zM883 1630l172 215h182l-248 -215h-106z" />
<glyph unicode="&#x1ed1;" horiz-adv-x="1124" d="M78 487q0 240 140 382.5t351 142.5q213 0 345.5 -141.5t132.5 -366.5q0 -256 -147.5 -391.5t-346.5 -135.5q-205 0 -340 140.5t-135 369.5zM262 494q0 -164 84 -272.5t215 -108.5q129 0 215 109.5t86 275.5q0 145 -74.5 262t-222 117t-225.5 -113.5t-78 -269.5zM332 1126 l172 293h133l176 -293h-137l-105 193h-4l-104 -193h-131zM756 1317l141 268h166l-203 -268h-104z" />
<glyph unicode="&#x1ed2;" horiz-adv-x="1411" d="M74 678q0 324 179 523.5t460 203.5q283 0 452.5 -194.5t169.5 -505.5q0 -342 -182 -535t-458.5 -193t-448.5 194t-172 507zM262 682q0 -233 120 -396t323 -163q205 0 323.5 164t118.5 409q0 225 -116 393t-324 171q-211 0 -328 -167t-117 -411zM459 1456l190 234h129 l193 -234h-144l-112 143h-4l-113 -143h-139zM776 1806h187l147 -215h-109z" />
<glyph unicode="&#x1ed3;" horiz-adv-x="1124" d="M78 487q0 240 140 382.5t351 142.5q213 0 345.5 -141.5t132.5 -366.5q0 -256 -147.5 -391.5t-346.5 -135.5q-205 0 -340 140.5t-135 369.5zM262 494q0 -164 84 -272.5t215 -108.5q129 0 215 109.5t86 275.5q0 145 -74.5 262t-222 117t-225.5 -113.5t-78 -269.5zM334 1126 l172 293h131l176 -293h-137l-103 193h-6l-102 -193h-131zM651 1585h164l131 -268h-104z" />
<glyph unicode="&#x1ed4;" horiz-adv-x="1411" d="M74 680q0 326 179 525.5t460 199.5q283 0 452.5 -194.5t169.5 -505.5q0 -342 -182 -535t-459 -193q-274 0 -447 195t-173 508zM262 684q0 -233 120 -397t323 -164q205 0 323.5 164t118.5 409q0 227 -116 395.5t-324 168.5q-211 0 -328 -167t-117 -409zM461 1454l188 234 h131l193 -234h-144l-112 143h-4l-113 -143h-139zM807 1769q68 131 197 132q70 0 115.5 -42t45.5 -102q0 -57 -62.5 -119.5t-78.5 -93.5l-86 25q14 39 60 87t46 83q0 29 -20 48t-49 19q-49 0 -103 -75z" />
<glyph unicode="&#x1ed5;" horiz-adv-x="1124" d="M78 487q0 240 140 382.5t351 142.5q213 0 345.5 -141.5t132.5 -366.5q0 -256 -147.5 -391.5t-346.5 -135.5q-205 0 -340 140.5t-135 369.5zM262 494q0 -164 84 -272.5t215 -108.5q129 0 215 109.5t86 275.5q0 145 -74.5 262t-222 117t-225.5 -113.5t-78 -269.5zM322 1126 l172 293h133l174 -293h-135l-105 193h-4l-104 -193h-131zM645 1524q66 131 195 131q68 0 114.5 -42t46.5 -104q0 -45 -22.5 -75.5t-59 -65.5t-57.5 -70l-90 25q14 39 59.5 86t45.5 82q0 27 -20.5 46t-49.5 19q-49 0 -96 -73z" />
<glyph unicode="&#x1ed6;" horiz-adv-x="1411" d="M74 680q0 326 179 525.5t460 199.5q283 0 452.5 -194.5t169.5 -505.5q0 -342 -182 -535t-459 -193q-274 0 -447 195t-173 508zM262 684q0 -233 120 -397t323 -164q205 0 323.5 164t118.5 409q0 227 -116 395.5t-324 168.5q-211 0 -328 -167t-117 -409zM426 1454l209 234 h137l215 -234h-151l-129 141h-5l-131 -141h-145zM459 1714q-2 88 37 141.5t102 53.5q41 0 127 -45q66 -33 86 -33q51 0 57 84h95q6 -197 -140 -197q-45 0 -123 43q-63 35 -90 35q-47 0 -51 -82h-100z" />
<glyph unicode="&#x1ed7;" horiz-adv-x="1124" d="M78 487q0 240 140 382.5t351 142.5q213 0 345.5 -141.5t132.5 -366.5q0 -256 -147.5 -391.5t-346.5 -135.5q-205 0 -340 140.5t-135 369.5zM262 494q0 -164 84 -272.5t215 -108.5q129 0 215 109.5t86 275.5q0 145 -74.5 262t-222 117t-225.5 -113.5t-78 -269.5zM311 1126 l183 240h133l186 -240h-141l-111 150h-4l-108 -150h-138zM315 1391q-2 88 36 141t104 53q37 0 127 -45q66 -33 86 -33q49 0 55 84h96q4 -197 -139 -196q-43 0 -125 43q-66 33 -88 32q-47 0 -53 -79h-99z" />
<glyph unicode="&#x1ed8;" horiz-adv-x="1411" d="M74 680q0 326 179 525.5t460 199.5q283 0 452.5 -194.5t169.5 -505.5q0 -342 -182 -535t-459 -193q-274 0 -447 195t-173 508zM262 684q0 -233 120 -397t323 -164q205 0 323.5 164t118.5 409q0 227 -116 395.5t-324 168.5q-211 0 -328 -167t-117 -409zM424 1454l209 234 h137l215 -234h-151l-129 141h-5l-131 -141h-145zM604 -266q0 41 30 71.5t73 30.5q41 0 69.5 -30.5t28.5 -71.5q0 -43 -28.5 -74t-71.5 -31t-72 31t-29 74z" />
<glyph unicode="&#x1ed9;" horiz-adv-x="1124" d="M78 487q0 242 140 384.5t351 142.5q213 0 345.5 -141.5t132.5 -368.5q0 -256 -147.5 -391.5t-346.5 -135.5q-205 0 -340 140.5t-135 369.5zM262 494q0 -164 84 -272.5t215 -108.5q129 0 215 109.5t86 275.5q0 90 -28.5 173t-98 145.5t-170.5 62.5q-147 0 -225 -114.5 t-78 -270.5zM303 1126l193 293h125l196 -293h-137l-119 193h-4l-119 -193h-135zM457 -270q0 43 30.5 74.5t73.5 31.5t72 -30.5t29 -75.5q0 -43 -29 -74t-74 -31q-43 0 -72.5 31t-29.5 74z" />
<glyph unicode="&#x1eda;" horiz-adv-x="1411" d="M74 680q0 326 179 525.5t460 199.5q119 0 215 -37q18 -6 67 -26.5t90 -33t70 -12.5q49 0 70.5 21.5t21.5 68.5q0 66 -35 132l140 24q39 -82 39 -166q0 -90 -54.5 -141t-160.5 -43q160 -180 159 -487q0 -342 -182 -535t-459 -193q-274 0 -447 195t-173 508zM262 684 q0 -231 120 -396t323 -165q205 0 323.5 164t118.5 409q0 227 -116 395.5t-324 168.5q-211 0 -328 -168t-117 -408zM614 1454l189 240h219l-262 -240h-146z" />
<glyph unicode="&#x1edb;" horiz-adv-x="1132" d="M78 487q0 240 140 382.5t351 142.5q80 0 170 -27q16 -4 50 -19.5t65 -24.5t59 -9q80 0 84 82q0 57 -34 121l137 22q35 -70 35 -149q0 -84 -49.5 -132.5t-141.5 -44.5q102 -131 103 -327q0 -256 -147.5 -391.5t-346.5 -135.5q-205 0 -340 140.5t-135 369.5zM262 494 q0 -164 84 -272.5t215 -108.5q129 0 215 109.5t88 277.5q0 66 -17.5 130t-51 121.5t-93 91.5t-137.5 34q-147 0 -225 -113.5t-78 -269.5zM473 1126l180 293h197l-250 -293h-127z" />
<glyph unicode="&#x1edc;" horiz-adv-x="1411" d="M74 680q0 326 179 525.5t460 199.5q119 0 215 -37q18 -6 67 -26.5t90 -33t70 -12.5q92 0 92 90q0 66 -35 132l140 24q39 -82 39 -166q0 -90 -54.5 -141t-160.5 -43q160 -180 159 -487q0 -342 -182 -535t-459 -193q-274 0 -447 195t-173 508zM262 684q0 -231 120 -396 t323 -165q205 0 323.5 164t118.5 409q0 227 -116 395.5t-324 168.5q-211 0 -328 -168t-117 -408zM422 1694h217l190 -238h-145z" />
<glyph unicode="&#x1edd;" horiz-adv-x="1132" d="M78 487q0 240 140 382.5t351 142.5q80 0 170 -27q16 -4 50 -19.5t65 -24.5t59 -9q80 0 84 82q0 57 -34 121l137 22q35 -70 35 -149q0 -84 -49.5 -132.5t-141.5 -44.5q102 -131 103 -327q0 -256 -147.5 -391.5t-346.5 -135.5q-205 0 -340 140.5t-135 369.5zM262 494 q0 -164 84 -272.5t215 -108.5q129 0 215 109.5t88 277.5q0 66 -17.5 130t-51 121.5t-93 91.5t-137.5 34q-147 0 -225 -113.5t-78 -269.5zM301 1419h197l180 -293h-127z" />
<glyph unicode="&#x1ede;" horiz-adv-x="1411" d="M74 680q0 326 179 525.5t460 199.5q119 0 215 -37q20 -6 68 -26.5t89 -34t70 -13.5q92 0 92 92q0 68 -35 132l140 26q39 -86 39 -168q0 -90 -54.5 -141t-160.5 -43q160 -180 159 -487q0 -342 -182 -535t-459 -193q-274 0 -447 195t-173 508zM262 684q0 -231 120 -396 t323 -165q205 0 323.5 164t118.5 409q0 227 -116 395.5t-324 168.5q-211 0 -328 -168t-117 -408zM526 1686q68 137 203 137q72 0 121 -42t49 -106q0 -61 -65.5 -127.5t-79.5 -93.5l-97 27q14 41 60.5 89t46.5 83q0 29 -18.5 46t-49.5 17q-53 0 -100 -71z" />
<glyph unicode="&#x1edf;" horiz-adv-x="1132" d="M78 487q0 240 140 382.5t351 142.5q80 0 170 -27q16 -4 50 -19.5t65 -24.5t59 -9q80 0 84 82q0 59 -34 119l137 24q35 -70 35 -149q0 -84 -49.5 -132.5t-141.5 -44.5q102 -131 103 -327q0 -256 -147.5 -391.5t-346.5 -135.5q-205 0 -340 140.5t-135 369.5zM262 494 q0 -164 84 -272.5t215 -108.5q129 0 215 109.5t88 277.5q0 66 -17.5 130t-51 121.5t-93 91.5t-137.5 34q-147 0 -225 -113.5t-78 -269.5zM373 1341q63 135 198 136q76 0 125 -43t49 -111q0 -66 -70.5 -137.5t-84.5 -102.5l-96 25q12 43 64 99.5t52 95.5q0 31 -19.5 49 t-49.5 18q-55 0 -99 -72z" />
<glyph unicode="&#x1ee0;" horiz-adv-x="1411" d="M74 678q0 326 179 525.5t460 201.5q119 0 215 -37q18 -6 66 -26.5t89 -34t72 -13.5q92 0 92 90q0 68 -35 132l140 24q39 -82 39 -166q0 -90 -54.5 -141t-160.5 -41q160 -184 159 -487q0 -342 -182 -535t-458.5 -193t-448.5 194t-172 507zM262 682q0 -229 120 -394 t323 -165q205 0 323.5 164t118.5 409q0 225 -116 393t-324 171q-211 0 -328 -169t-117 -409zM465 1464q-2 94 36 151.5t101 57.5q45 0 123 -41q66 -37 98 -37q25 0 38 16.5t18 63.5h94q4 -199 -137 -198q-47 0 -125 39q-74 39 -97 38q-43 0 -53 -90h-96z" />
<glyph unicode="&#x1ee1;" horiz-adv-x="1132" d="M78 487q0 240 140 382.5t351 142.5q76 0 168 -25q16 -6 50 -21.5t65 -24.5t59 -9q82 0 86 82q0 61 -34 121l137 24q35 -74 35 -151q0 -84 -49.5 -132.5t-141.5 -44.5q102 -131 103 -327q0 -256 -147.5 -391.5t-346.5 -135.5q-205 0 -340 140.5t-135 369.5zM262 494 q0 -164 84 -272.5t215 -108.5q129 0 215 109.5t88 277.5q0 66 -17.5 130t-51 121.5t-93 91.5t-137.5 34q-150 0 -227.5 -113.5t-75.5 -269.5zM309 1161q-2 100 35 157.5t102 57.5q43 0 129 -47q61 -35 87 -35q51 0 57 86h96q2 -102 -32.5 -154t-108.5 -50q-43 0 -125 41 q-61 37 -88 36q-47 0 -53 -92h-99z" />
<glyph unicode="&#x1ee2;" horiz-adv-x="1411" d="M74 680q0 326 179 525.5t460 199.5q119 0 215 -37q20 -6 68 -26.5t89 -34t70 -13.5q92 0 92 92q0 68 -35 132l140 26q39 -86 39 -168q0 -90 -54.5 -141t-160.5 -43q160 -180 159 -487q0 -342 -182 -535t-459 -193q-274 0 -447 195t-173 508zM262 684q0 -231 120 -396 t323 -165q205 0 323.5 164t118.5 409q0 227 -116 395.5t-324 168.5q-211 0 -328 -168t-117 -408zM604 -266q0 41 30 71.5t73 30.5q41 0 69.5 -30.5t28.5 -71.5q0 -43 -28.5 -74t-71.5 -31t-72 31t-29 74z" />
<glyph unicode="&#x1ee3;" horiz-adv-x="1132" d="M78 487q0 240 140 382.5t351 142.5q80 0 170 -27q16 -4 50 -19.5t65 -24.5t59 -9q80 0 84 82q0 59 -34 119l137 24q35 -70 35 -149q0 -84 -49.5 -132.5t-141.5 -44.5q102 -131 103 -327q0 -256 -147.5 -391.5t-346.5 -135.5q-205 0 -340 140.5t-135 369.5zM262 494 q0 -164 84 -272.5t215 -108.5q129 0 215 109.5t88 277.5q0 66 -17.5 130t-51 121.5t-93 91.5t-137.5 34q-147 0 -225 -113.5t-78 -269.5zM461 -270q0 45 30.5 75.5t73.5 30.5t72 -30.5t29 -75.5q0 -43 -29 -74t-74 -31q-43 0 -72.5 31t-29.5 74z" />
<glyph unicode="&#x1ee4;" horiz-adv-x="1325" d="M154 567v813h180v-819q0 -221 88 -329.5t233 -108.5q158 0 247 108.5t89 329.5v819h180v-807q0 -303 -142 -449.5t-380 -146.5q-227 0 -361 142.5t-134 447.5zM563 -266q0 41 30 71.5t73 30.5q41 0 69.5 -30.5t28.5 -71.5q0 -43 -28.5 -74t-71.5 -31t-72 31t-29 74z" />
<glyph unicode="&#x1ee5;" horiz-adv-x="1128" d="M143 412v579h181v-547q0 -317 221 -317q84 0 147.5 49t89.5 117q16 39 17 92v606h180v-719q0 -168 8 -272h-160l-10 162h-4q-41 -74 -125 -129.5t-203 -55.5q-63 0 -119.5 20.5t-108.5 67t-83 135.5t-31 212zM459 -270q0 45 30.5 75.5t73.5 30.5t72 -30.5t29 -75.5 q0 -43 -29 -74t-74 -31q-43 0 -72.5 31t-29.5 74z" />
<glyph unicode="&#x1ee6;" horiz-adv-x="1325" d="M154 567v813h180v-819q0 -221 88 -329.5t233 -108.5q158 0 247 108.5t89 329.5v819h180v-807q0 -303 -142 -449.5t-380 -146.5q-227 0 -361 142.5t-134 447.5zM485 1683q68 137 203 138q72 0 121 -43t49 -105q0 -45 -23.5 -78.5t-63.5 -70.5t-60 -72l-95 27 q16 41 61.5 88t45.5 82q0 31 -18.5 48t-49.5 17q-51 0 -102 -72z" />
<glyph unicode="&#x1ee7;" horiz-adv-x="1128" d="M143 412v579h181v-547q0 -317 221 -317q84 0 147.5 49t89.5 117q16 39 17 92v606h180v-719q0 -168 8 -272h-160l-10 162h-4q-41 -74 -125 -129.5t-203 -55.5q-63 0 -119.5 20.5t-108.5 67t-83 135.5t-31 212zM375 1343q63 135 200 136q74 0 123.5 -43t49.5 -111 q0 -66 -70 -137.5t-84 -102.5l-98 25q12 43 64 99.5t52 95.5q0 31 -19.5 49t-47.5 18q-57 0 -101 -72z" />
<glyph unicode="&#x1ee8;" horiz-adv-x="1386" d="M154 567v813h180v-819q0 -221 88 -329.5t233 -108.5q158 0 247 108.5t89 329.5v819h162q51 0 72.5 18.5t21.5 59.5q0 59 -33 119l138 25q35 -76 34.5 -154t-47.5 -125t-137 -49l-31 -2v-699q0 -303 -142 -449.5t-380 -146.5q-227 0 -361 142.5t-134 447.5zM561 1454 l191 240h217l-262 -240h-146z" />
<glyph unicode="&#x1ee9;" horiz-adv-x="1128" d="M143 412v579h181v-549q0 -315 221 -315q84 0 147.5 49t89.5 117q16 39 17 92v606h143q96 0 96 80q0 59 -37 117l138 24q37 -70 37 -147q0 -74 -49.5 -121t-125.5 -51h-22v-623q0 -166 8 -270h-160l-10 162h-4q-41 -74 -125 -129.5t-203 -55.5q-63 0 -119.5 20.5 t-108.5 67t-83 135.5t-31 212zM498 1126l180 293h196l-249 -293h-127z" />
<glyph unicode="&#x1eea;" horiz-adv-x="1386" d="M154 567v813h180v-819q0 -221 88 -329.5t233 -108.5q158 0 247 108.5t89 329.5v819h162q51 0 72.5 18.5t21.5 59.5q0 59 -33 119l138 25q35 -76 34.5 -154t-47.5 -125t-137 -49l-31 -2v-699q0 -303 -142 -449.5t-380 -146.5q-227 0 -361 142.5t-134 447.5zM375 1694h217 l190 -238h-145z" />
<glyph unicode="&#x1eeb;" horiz-adv-x="1128" d="M143 412v579h181v-549q0 -315 221 -315q84 0 147.5 49t89.5 117q16 39 17 92v606h143q96 0 96 80q0 59 -37 117l138 24q37 -70 37 -147q0 -74 -49.5 -121t-125.5 -51h-22v-623q0 -166 8 -270h-160l-10 162h-4q-41 -74 -125 -129.5t-203 -55.5q-63 0 -119.5 20.5 t-108.5 67t-83 135.5t-31 212zM299 1419h197l180 -293h-127z" />
<glyph unicode="&#x1eec;" horiz-adv-x="1386" d="M154 567v813h180v-819q0 -221 88 -329.5t233 -108.5q158 0 247 108.5t89 329.5v819h162q51 0 72.5 18.5t21.5 59.5q0 59 -33 119l138 25q35 -76 34.5 -154t-47.5 -125t-137 -49l-31 -2v-699q0 -303 -142 -449.5t-380 -146.5q-227 0 -361 142.5t-134 447.5zM516 1683 q70 137 203 138q72 0 121 -43t49 -105q0 -45 -23.5 -78.5t-62.5 -70.5t-60 -72l-96 27q16 41 61.5 88t45.5 82q0 66 -68 65q-53 0 -100 -72z" />
<glyph unicode="&#x1eed;" horiz-adv-x="1128" d="M143 412v579h181v-549q0 -315 221 -315q84 0 147.5 49t89.5 117q16 39 17 92v606h143q96 0 96 82q0 57 -37 117l138 24q37 -70 37 -147q0 -76 -49.5 -123t-125.5 -51h-22v-623q0 -166 8 -270h-160l-10 162h-4q-41 -74 -125 -129.5t-203 -55.5q-63 0 -119.5 20.5 t-108.5 67t-83 135.5t-31 212zM391 1343q68 135 201 136q74 0 123 -43t49 -111q0 -66 -69.5 -138.5t-84.5 -101.5l-98 25q12 43 64.5 99.5t52.5 95.5q0 31 -19.5 49t-48.5 18q-57 0 -100 -72z" />
<glyph unicode="&#x1eee;" horiz-adv-x="1386" d="M154 567v813h180v-819q0 -221 88 -329.5t233 -108.5q158 0 247 108.5t89 329.5v819h162q51 0 72.5 18.5t21.5 61.5q0 57 -33 117l138 25q35 -76 34.5 -154t-47.5 -125t-137 -49l-31 -2v-699q0 -303 -142 -449.5t-380 -146.5q-227 0 -361 142.5t-134 447.5zM438 1464 q-2 94 36 151.5t104 57.5q41 0 122 -41q66 -37 99 -37q25 0 38 16.5t17 63.5h94q4 -199 -137 -198q-45 0 -127 39q-74 39 -96 38q-43 0 -53 -90h-97z" />
<glyph unicode="&#x1eef;" horiz-adv-x="1128" d="M143 412v579h181v-549q0 -315 221 -315q84 0 147.5 49t89.5 117q16 39 17 92v606h143q96 0 96 80q0 59 -37 117l138 24q37 -68 37 -147q0 -74 -49.5 -121t-125.5 -51h-22v-623q0 -166 8 -270h-160l-10 162h-4q-43 -74 -126 -129.5t-202 -55.5q-63 0 -119.5 20.5 t-108.5 67t-83 135.5t-31 212zM313 1161q-2 98 35 155.5t105 57.5q39 0 129 -45q61 -35 86 -35q49 0 55 86h96q4 -207 -139 -206q-49 0 -127 45q-63 35 -88 34q-47 0 -53 -92h-99z" />
<glyph unicode="&#x1ef0;" horiz-adv-x="1386" d="M154 567v813h180v-819q0 -221 88 -329.5t233 -108.5q158 0 247 108.5t89 329.5v819h162q51 0 72.5 18.5t21.5 59.5q0 59 -33 119l138 25q35 -76 34.5 -154t-47.5 -125t-137 -49l-31 -2v-699q0 -303 -142 -449.5t-380 -146.5q-227 0 -361 142.5t-134 447.5zM588 -270 q0 45 30.5 75.5t73.5 30.5t72 -30.5t29 -75.5q0 -43 -29 -74t-74 -31q-43 0 -72.5 31t-29.5 74z" />
<glyph unicode="&#x1ef1;" horiz-adv-x="1128" d="M143 412v579h181v-549q0 -315 221 -315q84 0 147.5 49t89.5 117q16 39 17 92v606h143q96 0 96 82q0 57 -37 117l138 24q37 -70 37 -147q0 -76 -49.5 -123t-125.5 -51h-22v-623q0 -166 8 -270h-160l-10 162h-4q-41 -74 -125 -129.5t-203 -55.5q-63 0 -119.5 20.5 t-108.5 67t-83 135.5t-31 212zM455 -270q0 45 30.5 75.5t73.5 30.5t71.5 -30.5t28.5 -75.5q0 -43 -28.5 -74t-73.5 -31q-43 0 -72.5 31t-29.5 74z" />
<glyph unicode="&#x1ef2;" horiz-adv-x="1107" d="M25 1380h204l195 -381q113 -231 137 -284h4q25 57 140 284l198 381h201l-461 -792v-588h-180v586zM268 1679h217l191 -237h-146z" />
<glyph unicode="&#x1ef3;" horiz-adv-x="964" d="M18 991h197l215 -585q37 -96 66 -203h4q2 6 25.5 85t37.5 122l197 581h190l-270 -706q-100 -262 -175 -401.5t-165 -219.5q-113 -94 -221 -115l-45 150q86 27 157 88q92 72 152 201q14 33 14 43q0 16 -14 47zM221 1419h197l180 -293h-127z" />
<glyph unicode="&#x1ef4;" horiz-adv-x="1107" d="M25 1380h204l195 -381q113 -231 137 -284h4q25 57 140 284l198 381h201l-461 -792v-588h-180v586zM453 -266q0 41 29.5 71.5t72.5 30.5q41 0 69.5 -30.5t28.5 -71.5q0 -43 -28.5 -74t-71.5 -31t-71.5 31t-28.5 74z" />
<glyph unicode="&#x1ef5;" horiz-adv-x="964" d="M18 991h197l215 -585q37 -96 66 -203h4q2 6 25.5 85t37.5 122l197 581h190l-270 -706q-100 -264 -175 -403.5t-165 -217.5q-113 -96 -221 -117l-45 152q84 27 159 88q96 78 150 201q14 27 14 43q0 20 -12 47zM563 -270q0 45 31 75.5t74 30.5t71.5 -30.5t28.5 -75.5 q0 -43 -28.5 -74t-73.5 -31q-43 0 -73 31t-30 74z" />
<glyph unicode="&#x1ef6;" horiz-adv-x="1107" d="M25 1380h204l195 -381q113 -231 137 -284h4q25 57 140 284l198 381h201l-461 -792v-588h-180v586zM375 1683q72 137 205 138q72 0 121 -43t49 -105q0 -45 -24 -78.5t-63.5 -70.5t-60.5 -72l-96 27q16 41 62 88t46 82q0 31 -19.5 48t-49.5 17q-53 0 -101 -72z" />
<glyph unicode="&#x1ef7;" horiz-adv-x="964" d="M18 991h197l215 -585q37 -96 66 -203h4q2 6 25.5 85t37.5 122l197 581h190l-270 -706q-100 -262 -175 -401.5t-165 -219.5q-113 -94 -221 -115l-45 150q86 27 157 88q92 72 152 201q14 33 14 43q0 16 -14 47zM311 1343q63 135 201 136q74 0 123 -43t49 -111 q0 -66 -69.5 -137.5t-84.5 -102.5l-98 25q12 43 64.5 99.5t52.5 95.5q0 31 -19.5 49t-50.5 18q-55 0 -98 -72z" />
<glyph unicode="&#x1ef8;" horiz-adv-x="1107" d="M25 1380h204l195 -381q113 -231 137 -284h4q25 57 140 284l198 381h201l-461 -792v-588h-180v586zM299 1464q-2 94 36 151.5t103 57.5q45 0 123 -41q66 -37 98 -37q25 0 38.5 16.5t17.5 63.5h94q4 -199 -137 -198q-51 0 -125 39q-78 39 -98 38q-43 0 -54 -90h-96z" />
<glyph unicode="&#x1ef9;" horiz-adv-x="964" d="M18 991h197l215 -585q37 -96 66 -203h4q2 6 25.5 85t37.5 122l197 581h190l-270 -706q-100 -262 -175 -401.5t-165 -219.5q-113 -94 -221 -115l-45 150q86 27 157 88q92 72 152 201q14 33 14 43q0 16 -14 47zM242 1161q-2 98 34.5 155.5t104.5 57.5q41 0 127 -45 q61 -35 88 -35q49 0 55 86h97q4 -207 -140 -206q-47 0 -127 45q-63 35 -88 34q-47 0 -53 -92h-98z" />
<glyph unicode="&#x2000;" horiz-adv-x="974" />
<glyph unicode="&#x2001;" horiz-adv-x="1949" />
<glyph unicode="&#x2002;" horiz-adv-x="974" />
<glyph unicode="&#x2003;" horiz-adv-x="1949" />
<glyph unicode="&#x2004;" horiz-adv-x="649" />
<glyph unicode="&#x2005;" horiz-adv-x="487" />
<glyph unicode="&#x2006;" horiz-adv-x="323" />
<glyph unicode="&#x2007;" horiz-adv-x="323" />
<glyph unicode="&#x2008;" horiz-adv-x="243" />
<glyph unicode="&#x2009;" horiz-adv-x="389" />
<glyph unicode="&#x200a;" horiz-adv-x="106" />
<glyph unicode="&#x2010;" horiz-adv-x="628" d="M61 487v131h506v-131h-506z" />
<glyph unicode="&#x2011;" horiz-adv-x="628" d="M61 487v131h506v-131h-506z" />
<glyph unicode="&#x2012;" horiz-adv-x="628" d="M61 487v131h506v-131h-506z" />
<glyph unicode="&#x2013;" horiz-adv-x="1024" d="M61 459v123h902v-123h-902z" />
<glyph unicode="&#x2014;" horiz-adv-x="2048" d="M61 459v123h1926v-123h-1926z" />
<glyph unicode="&#x2018;" horiz-adv-x="423" d="M72 918q35 127 91 271t99 216l115 12q-84 -233 -121 -479z" />
<glyph unicode="&#x2019;" horiz-adv-x="423" d="M70 918q84 233 120 479l185 20q-35 -127 -91.5 -271.5t-99.5 -215.5z" />
<glyph unicode="&#x201a;" horiz-adv-x="423" d="M43 -242q84 233 121 480l184 20q-35 -127 -91 -271.5t-99 -215.5z" />
<glyph unicode="&#x201c;" horiz-adv-x="724" d="M72 918q35 127 91 271t99 216l115 12q-84 -233 -121 -479zM375 918q35 127 91 271t99 216l115 12q-80 -217 -121 -479z" />
<glyph unicode="&#x201d;" horiz-adv-x="724" d="M70 918q80 217 120 479l185 20q-35 -127 -91.5 -271.5t-99.5 -215.5zM373 918q84 233 121 479l184 20q-35 -127 -91.5 -271.5t-99.5 -215.5z" />
<glyph unicode="&#x201e;" horiz-adv-x="729" d="M41 -242q80 217 121 480l184 20q-35 -127 -91 -271.5t-99 -215.5zM344 -242q84 233 121 480l184 20q-35 -127 -91 -271.5t-99 -215.5z" />
<glyph unicode="&#x2020;" horiz-adv-x="1024" d="M88 815v148l356 -15l-16 432h168l-16 -432l356 15v-148l-356 16l16 -933h-168l16 933z" />
<glyph unicode="&#x2021;" horiz-adv-x="1024" d="M90 303v148l352 -17v418l-352 -16v147l352 -14l-12 411h166l-12 -411l352 14v-147l-352 16v-418l352 17v-148l-352 14l12 -419h-166l12 419z" />
<glyph unicode="&#x2022;" horiz-adv-x="577" d="M74 537q-2 88 61.5 151.5t153.5 63.5t152.5 -62.5t62.5 -153t-63.5 -152.5t-153.5 -62q-88 0 -150.5 62.5t-62.5 152.5z" />
<glyph unicode="&#x2026;" horiz-adv-x="2048" d="M219 106.5q0 55.5 35 92.5t88 37t87 -36t34 -94q0 -55 -35 -92t-90 -37q-51 0 -85 37t-34 92.5zM901 106.5q0 55.5 35 92.5t88 37t87 -36t34 -94q0 -55 -35 -92t-90 -37q-51 0 -85 37t-34 92.5zM1583 106.5q0 55.5 35 92.5t88 37t87 -36t34 -94q0 -55 -35 -92t-90 -37 q-51 0 -85 37t-34 92.5z" />
<glyph unicode="&#x202f;" horiz-adv-x="389" />
<glyph unicode="&#x2030;" horiz-adv-x="2367" d="M61 938q0 195 92.5 305.5t231.5 110.5t222 -104.5t83 -291.5q0 -201 -90 -310t-227 -109q-133 0 -221.5 104.5t-90.5 294.5zM203 946q-4 -131 44 -215t130 -84q86 0 129 82t43 219q0 133 -42 215t-132 82q-80 0 -126 -85t-46 -214zM358 -25l785 1381h114l-784 -1381h-115 zM930 387q0 195 92 305.5t231.5 110.5t222.5 -104.5t83 -292.5q0 -201 -90.5 -310.5t-227.5 -109.5q-133 0 -221 104t-90 297zM1071 393q-4 -131 44 -215t130 -84q86 0 129 82t43 221q0 133 -42 215t-132 82q-80 0 -126 -85t-46 -216zM1677 387q0 195 92.5 305.5 t231.5 110.5t222 -104.5t83 -292.5q0 -201 -90 -310.5t-227 -109.5q-133 0 -221.5 104t-90.5 297zM1819 393q-4 -131 44 -215t130 -84q86 0 129 82t43 221q0 133 -42 215t-132 82q-80 0 -126 -85t-46 -216z" />
<glyph unicode="&#x2039;" horiz-adv-x="522" d="M59 516l271 377h145l-272 -377l272 -377h-145z" />
<glyph unicode="&#x203a;" horiz-adv-x="522" d="M49 139l273 377l-273 377h144l272 -377l-272 -377h-144z" />
<glyph unicode="&#x2044;" horiz-adv-x="247" d="M-322 -23l779 1377h114l-778 -1377h-115z" />
<glyph unicode="&#x205f;" horiz-adv-x="487" />
<glyph unicode="&#x2070;" horiz-adv-x="688" d="M47 1304.5q0 190.5 81 301t220 110.5t216 -107.5t77 -295.5q0 -195 -78 -306.5t-225 -111.5q-135 0 -213 109.5t-78 300zM190 1309q0 -145 41 -227.5t113 -82.5q74 0 114 81t40 229q0 303 -154 303q-70 0 -112 -81t-42 -222z" />
<glyph unicode="&#x2074;" horiz-adv-x="710" d="M33 1116v84l362 504h162v-485h113v-103h-113v-209h-137v209h-387zM176 1221l2 -2h242v235q0 6 6 129h-4q-39 -76 -70 -121z" />
<glyph unicode="&#x2075;" horiz-adv-x="630" d="M39 942l29 102q82 -43 182 -43q74 0 127 43t53 113q0 162 -231 162q-20 0 -42 -1t-43.5 -4t-31.5 -3l53 389h414v-113h-318l-26 -172q16 2 63 2q119 0 191 -43q113 -63 112 -207q0 -119 -88 -195.5t-229 -76.5q-129 0 -215 47z" />
<glyph unicode="&#x2076;" horiz-adv-x="679" d="M47 1239q0 223 137 354q104 98 283 117q61 4 80 4v-108q-39 4 -82 -2q-119 -16 -189.5 -85t-89.5 -165h4q76 84 193 84q111 0 180.5 -71t69.5 -187q0 -121 -80 -203t-203 -82q-141 0 -222 95t-81 249zM182 1202q0 -88 44 -145.5t124 -57.5q63 0 103.5 49.5t40.5 122.5 q0 78 -42 123t-114 45q-47 0 -86 -25.5t-59 -66.5q-11 -20 -11 -45z" />
<glyph unicode="&#x2077;" horiz-adv-x="602" d="M39 1589v113h539v-88l-353 -707h-143l350 680v2h-393z" />
<glyph unicode="&#x2078;" horiz-adv-x="671" d="M49 1112q0 139 158 205v6q-129 57 -129 176q0 96 75.5 155.5t190.5 59.5q119 0 183.5 -58.5t64.5 -139.5q0 -123 -129 -181v-4q160 -59 160 -201q0 -104 -81 -168.5t-210 -64.5q-131 0 -207 63.5t-76 151.5zM186 1128q0 -55 41 -95t108.5 -40t107.5 36t40 91 q0 115 -161 156q-136 -37 -136 -148zM207 1505q0 -96 143 -133q113 37 113 129q0 49 -32 84t-95 35q-61 0 -95 -33t-34 -82z" />
<glyph unicode="&#x2079;" horiz-adv-x="669" d="M47 1432q0 117 82 199.5t207 82.5q133 0 209 -93t76 -245q0 -240 -140 -368q-98 -92 -266 -107q-37 -4 -96 -4v109q41 -4 86 2q102 10 172 67q84 68 104 189h-4q-68 -78 -182 -78q-109 0 -178.5 68.5t-69.5 177.5zM184 1438q0 -66 40 -110t106 -44q98 0 145 76q8 10 8 39 q0 94 -38.5 153.5t-116.5 59.5q-61 0 -102.5 -49t-41.5 -125z" />
<glyph unicode="&#x207d;" horiz-adv-x="368" d="M82 1280q0 287 158 498h104q-147 -211 -147 -498q0 -270 147 -494h-104q-158 215 -158 494z" />
<glyph unicode="&#x207e;" horiz-adv-x="368" d="M27 786q147 223 147 496q0 283 -147 496h104q158 -211 158 -496q0 -276 -158 -496h-104z" />
<glyph unicode="&#x2080;" horiz-adv-x="688" d="M47 96.5q0 190.5 81 301t220 110.5t216 -107.5t77 -296.5q0 -193 -78 -304t-225 -111q-135 0 -213 108.5t-78 299zM190 102q0 -147 41 -228t113 -81q74 0 114 81t40 228q0 301 -154 301q-70 0 -112 -80t-42 -221z" />
<glyph unicode="&#x2081;" horiz-adv-x="499" d="M45 408l193 90h124v-799h-143v674h-4l-147 -72z" />
<glyph unicode="&#x2082;" horiz-adv-x="636" d="M25 -225l129 119q141 131 199.5 206.5t58.5 149.5q0 61 -40 102t-116 41q-86 0 -172 -63l-43 92q100 86 252 86q133 0 201.5 -68.5t68.5 -160.5q0 -106 -65.5 -194.5t-206.5 -211.5l-62 -57v-4h349v-113h-553v76z" />
<glyph unicode="&#x2083;" horiz-adv-x="624" d="M16 -254l37 102q78 -53 191 -53q88 0 135 42t45 95q0 74 -63.5 110t-153.5 34h-55v94h57q70 0 128 33t58 96q0 43 -31.5 72.5t-97.5 29.5q-94 0 -174 -55l-35 98q98 63 236 64q125 0 187.5 -55.5t62.5 -137.5q0 -131 -158 -184v-4q84 -12 137 -66.5t53 -132.5 q0 -100 -87 -169.5t-236 -69.5q-148 0 -236 57z" />
<glyph unicode="&#x2084;" horiz-adv-x="710" d="M33 -8l362 506h162v-488h113v-102h-113v-209h-137v209h-387v84zM176 12l2 -2h242v238q0 6 6 129h-4q-39 -76 -70 -121z" />
<glyph unicode="&#x2085;" horiz-adv-x="630" d="M39 -264l29 100q82 -43 182 -43q74 0 127 43t53 113q0 162 -231 162q-55 0 -117 -9l53 392h414v-113h-318l-26 -174q16 2 63 2q119 0 191 -43q113 -63 112 -205q0 -121 -88 -197.5t-229 -76.5q-133 0 -215 49z" />
<glyph unicode="&#x2086;" horiz-adv-x="679" d="M47 31q0 223 137 354q106 102 283 117q61 4 80 4v-109q-39 4 -82 -2q-119 -16 -189.5 -84.5t-89.5 -165.5h4q76 84 193 84q111 0 180.5 -70.5t69.5 -185.5q0 -121 -80 -202.5t-203 -81.5q-141 0 -222 95t-81 247zM182 -4q0 -88 44 -145.5t124 -57.5q63 0 103.5 49 t40.5 123q0 76 -42 121t-114 45q-47 0 -86 -25.5t-59 -66.5q-11 -20 -11 -43z" />
<glyph unicode="&#x2087;" horiz-adv-x="602" d="M39 381v113h539v-88l-353 -707h-143l350 680v2h-393z" />
<glyph unicode="&#x2088;" horiz-adv-x="671" d="M49 -94q0 139 158 205v6q-129 57 -129 176q0 96 75.5 155.5t190.5 59.5q119 0 183.5 -58.5t64.5 -140.5q0 -123 -129 -180v-4q160 -59 160 -201q0 -104 -81 -169.5t-210 -65.5q-131 0 -207 63.5t-76 153.5zM186 -78q0 -57 41 -97t109 -40q66 0 106.5 36t40.5 91 q0 63 -41 99t-120 59q-136 -37 -136 -148zM207 299q0 -96 143 -133q113 37 113 129q0 49 -32 84t-95 35q-61 0 -95 -33t-34 -82z" />
<glyph unicode="&#x2089;" horiz-adv-x="669" d="M47 225q0 117 82 200t207 83q133 0 209 -93t76 -245q0 -240 -140 -369q-98 -92 -266 -106q-63 -6 -96 -4v108q41 -4 86 2q102 10 172 68q84 68 104 188h-4q-68 -78 -182 -77q-109 0 -178.5 68t-69.5 177zM184 231q0 -66 40 -109.5t106 -43.5q98 0 145 76q8 10 8 39 q0 94 -38.5 153.5t-116.5 59.5q-61 0 -102.5 -49.5t-41.5 -125.5z" />
<glyph unicode="&#x208d;" horiz-adv-x="368" d="M82 72q0 287 158 497h104q-147 -211 -147 -497q0 -270 147 -494h-104q-158 215 -158 494z" />
<glyph unicode="&#x208e;" horiz-adv-x="368" d="M27 -422q147 223 147 496q0 283 -147 495h104q158 -211 158 -495q0 -276 -158 -496h-104z" />
<glyph unicode="&#x20ab;" horiz-adv-x="1050" d="M137 670q0 172 99.5 275.5t246.5 103.5q158 0 222 -107h4v180h-258v101h258v137h155v-137h127v-101h-127v-612q0 -109 6 -180h-141l-6 116h-4q-74 -133 -256 -133q-139 0 -232.5 99.5t-93.5 257.5zM182 80v121h690v-121h-690zM301 676q0 -104 54.5 -173t150.5 -69 q70 0 124 41t70 107q8 18 9 53v96q0 35 -7 55q-14 59 -67 100.5t-123 41.5q-98 0 -154.5 -70.5t-56.5 -181.5z" />
<glyph unicode="&#x20ac;" horiz-adv-x="1050" d="M20 512v102h117v31q0 33 4 90h-121v103h136q37 215 168 346q160 170 403 170q152 0 274 -66l-40 -135q-100 57 -230 57q-166 0 -272 -110q-88 -92 -121 -262h571v-103h-590q-4 -27 -4 -86v-35h594v-102h-579q25 -174 112 -268q111 -119 289 -119q139 0 250 68l35 -132 q-125 -84 -305 -84q-262 0 -416 183q-121 133 -148 352h-127z" />
<glyph unicode="&#x2113;" horiz-adv-x="1032" d="M61 352q106 76 164 121v541q0 227 89 337.5t235 110.5q123 0 194.5 -86t71.5 -227q0 -182 -104.5 -354t-313.5 -359v-30q2 -274 209 -275q158 0 279 180l88 -84q-141 -248 -410 -247q-152 0 -235.5 90t-98.5 241q0 12 -2 17q-51 -37 -112 -76zM397 606q268 274 269 539 q0 190 -127 190q-59 0 -100.5 -71.5t-41.5 -214.5v-443z" />
<glyph unicode="&#x2116;" horiz-adv-x="1875" d="M152 0v1339h196l348 -665q125 -240 209 -445l2 2q-18 240 -18 562v546h160v-1339h-183l-352 670q-127 250 -209 452l-4 -2q10 -287 10 -569v-551h-159zM1165 948q0 168 93.5 265.5t234.5 97.5q147 0 233 -96.5t86 -256.5q0 -180 -94 -271t-229 -91q-143 0 -233.5 94 t-90.5 258zM1221 403v107h538v-107h-538zM1313 950q0 -109 51 -180.5t125 -71.5q80 0 128 72t48 184q0 102 -44 178t-134 76q-84 0 -129 -78t-45 -180z" />
<glyph unicode="&#x2122;" horiz-adv-x="1267" d="M63 1288v92h465v-92h-178v-465h-110v465h-177zM561 823l41 557h166l96 -272q6 -18 37 -141h2q6 18 19.5 66t19.5 71l96 276h160l43 -557h-111l-20 328q-2 23 -3 76t-1 80h-6q-16 -55 -47 -166l-101 -310h-114l-101 318q-4 18 -18 76l-21 82h-6q0 -53 -4 -156l-20 -328 h-107z" />
<glyph unicode="&#x2126;" horiz-adv-x="1443" d="M61 0v141h299v6q-115 96 -192.5 249t-79.5 337q0 295 183.5 483.5t459.5 188.5q281 0 452 -186.5t171 -466.5q0 -197 -78 -350.5t-195 -254.5v-6h301v-141h-518v113q133 90 219 250.5t86 359.5q0 209 -118.5 373t-323.5 164q-207 0 -330 -162t-123 -379q0 -186 90.5 -356 t217.5 -250v-113h-521z" />
<glyph unicode="&#x212e;" horiz-adv-x="1673" d="M72 665.5q0 284.5 224 486.5t541.5 202t541 -202t223.5 -486v-19h-1240q-10 0 -10 -8v-375q0 -20 19 -43q190 -203 469 -203q297 0 491 228h113q-106 -125 -266 -197t-340 -72q-317 0 -541.5 202t-224.5 486.5zM352 696q0 -10 10 -10h951q10 0 10 10v377q0 25 -20 45 q-195 195 -463 195q-272 0 -467 -201q-20 -20 -21 -47v-369z" />
<glyph unicode="&#x2202;" horiz-adv-x="768" d="M53 408q0 209 129 354t320 145q119 0 208 -54t128 -124h2q2 20 2 68q0 256 -115 399t-270 143q-168 0 -281 -82l-57 121q152 111 354 111q225 0 383 -193.5t158 -531.5q0 -373 -161 -580t-392 -207q-197 0 -302.5 126.5t-105.5 304.5zM233 412q0 -133 67 -210t177 -77 q131 0 225.5 129t116.5 313q-29 80 -107.5 138.5t-181.5 58.5q-123 0 -210 -101t-87 -251z" />
<glyph unicode="&#x2206;" horiz-adv-x="1165" d="M53 0v100l432 1243h201l428 -1241v-102h-1061zM233 147h693l-246 713q-55 166 -98 324h-7q-51 -176 -88 -297z" />
<glyph unicode="&#x220f;" horiz-adv-x="1259" d="M18 1182v149h1221v-149h-190v-1366h-170v1366h-500v-1366h-170v1366h-191z" />
<glyph unicode="&#x2211;" horiz-adv-x="1038" d="M18 -76l514 645l-487 643v119h944v-147h-715v-8l455 -601l-479 -602v-8h803v-149h-1035v108z" />
<glyph unicode="&#x2212;" horiz-adv-x="1220" d="M82 485v123h1057v-123h-1057z" />
<glyph unicode="&#x2215;" horiz-adv-x="247" d="M-322 -23l779 1377h114l-778 -1377h-115z" />
<glyph unicode="&#x2219;" horiz-adv-x="423" d="M90 537q0 57 35 93t88 36t87 -36t34 -93q0 -55 -35 -91t-90 -36q-51 0 -85 37t-34 90z" />
<glyph unicode="&#x221a;" horiz-adv-x="1150" d="M66 713l282 116l252 -706q25 -70 39 -131h2q12 74 29 131l379 1571h135l-471 -1889h-129l-328 875l-152 -64z" />
<glyph unicode="&#x221e;" horiz-adv-x="1490" d="M72 539q0 125 89 214t220 89q55 0 104.5 -17.5t102.5 -58.5t77.5 -63.5t79.5 -77.5q55 55 83 80.5t80.5 64.5t105.5 55.5t112 16.5q129 0 211 -85t82 -218q0 -123 -89 -211t-222 -88q-53 0 -102.5 16t-103.5 58t-75.5 62.5t-81.5 78.5q-76 -74 -112.5 -107t-113.5 -70.5 t-154 -37.5q-129 0 -211 84t-82 215zM201 539q0 -78 50 -128.5t126 -50.5q53 0 110.5 32t89 60.5t87.5 86.5q-6 6 -57.5 56t-73 66.5t-66.5 38t-86 21.5q-76 0 -128 -54t-52 -128zM827 539q6 -6 57.5 -54.5t73 -65t66.5 -38t88 -21.5q74 0 126 52.5t52 126.5q0 78 -49 130 t-125 52q-53 0 -112.5 -34t-88.5 -60.5t-88 -87.5z" />
<glyph unicode="&#x222b;" horiz-adv-x="647" d="M20 -287l23 117q37 -12 74 -12q53 0 90 43q63 78 63 315q0 158 -12 493t-12 482q0 289 106 401q70 76 183 76q55 0 92 -14l-25 -115q-33 8 -61 8q-61 0 -95 -45q-59 -74 -59 -321q0 -147 12.5 -478t12.5 -487q0 -270 -86 -385q-68 -98 -197 -98q-72 0 -109 20z" />
<glyph unicode="&#x2248;" horiz-adv-x="1220" d="M47 719q55 66 139 112t174 46q41 0 85 -9.5t62.5 -16.5t64.5 -28.5t49 -21.5q12 -4 45.5 -20.5t56 -24.5t59.5 -16.5t72 -8.5q121 0 238 121l73 -84q-51 -68 -135 -114t-174 -46q-35 0 -64.5 4t-63.5 16l-46 15q-12 4 -50 22.5t-40 18.5q-12 4 -46 20.5t-56.5 24.5 t-59.5 16.5t-72 8.5q-127 0 -239 -121zM55 313q53 63 138.5 109.5t175.5 46.5q41 0 83 -8t65.5 -17.5t62 -27t51.5 -21.5q12 -6 46 -21.5t56.5 -23.5t58 -16t70.5 -8q131 0 240 120l74 -81q-53 -68 -138.5 -115t-175.5 -47q-41 0 -83 9t-64.5 17.5t-63.5 25.5t-49 21 q-12 4 -47 20.5t-56.5 25t-58.5 16.5t-73 8q-127 0 -240 -121z" />
<glyph unicode="&#x2260;" horiz-adv-x="1220" d="M82 287v123h373l182 282h-555v123h633l155 250h134l-162 -250h297v-123h-375l-180 -282h555v-123h-635l-156 -250h-133l162 250h-295z" />
<glyph unicode="&#x2264;" horiz-adv-x="1220" d="M135 598v121l950 393v-135l-782 -318v-4l782 -315v-137zM139 0v119h946v-119h-946z" />
<glyph unicode="&#x2265;" horiz-adv-x="1220" d="M135 0v119h946v-119h-946zM135 203v137l783 315v4l-783 318v135l950 -393v-121z" />
<glyph unicode="&#x25ca;" horiz-adv-x="1069" d="M92 664l371 729h141l373 -729l-373 -727h-141zM246 668l268 -547q16 -27 21 -47h4q4 10 12 27.5t8 19.5l262 541l-266 546q-14 20 -20 47h-5q-12 -31 -22 -47z" />
<glyph unicode="&#xe000;" horiz-adv-x="990" d="M0 990h990v-990h-990v990z" />
<glyph unicode="&#xe001;" horiz-adv-x="1646" d="M119 0l96 1380h227l236 -667q82 -246 139 -465h4q49 188 148 465l245 667h228l86 -1380h-176l-33 606q-23 424 -23 596h-4q-94 -303 -174 -524l-244 -670h-135l-225 658q-104 315 -158 536h-4q-6 -264 -26 -610l-37 -592h-170zM543 1454l209 234h137l215 -234h-152 l-129 141h-4l-131 -141h-145z" />
<glyph unicode="&#xe002;" horiz-adv-x="1347" d="M156 0v1380h196l441 -698q160 -258 245 -449l6 3q-20 231 -20 567v577h168v-1380h-180l-439 700q-172 272 -256 461l-6 -2q12 -209 13 -569v-590h-168zM393 1454l211 234h135l215 -234h-151l-129 141h-4l-131 -141h-146z" />
<glyph unicode="&#xe005;" horiz-adv-x="1144" d="M53 487q0 240 133 382.5t316 142.5q215 0 309 -170h4l6 149h160q-8 -92 -8 -270v-576q0 -322 -142 -454q-133 -119 -362 -119q-207 0 -330 82l45 139q121 -80 291 -80q147 0 233.5 84t86.5 264v109h-4q-43 -74 -124 -120t-192 -46q-182 0 -302 138t-120 345zM236 498 q0 -154 76.5 -255.5t215.5 -101.5q86 0 155 49.5t95 135.5q14 43 15 96v178q0 51 -11 80q-27 84 -91 138t-161 54q-131 0 -212.5 -102t-81.5 -272zM322 1161q-2 98 34.5 155.5t104.5 57.5q41 0 127 -45q61 -35 86 -35q49 0 55 86h96q4 -207 -139 -206q-47 0 -125 43 q-68 37 -88 36q-47 0 -53 -92h-98z" />
<glyph unicode="&#xe006;" horiz-adv-x="1708" d="M141 991h158l8 -162h6q106 182 314 183q98 0 171.5 -54.5t106.5 -144.5h4q41 78 111 129q94 70 217 70q55 0 108.5 -19.5t104.5 -64.5t83 -134t32 -212v-582h-176v559q0 305 -215 305q-74 0 -130.5 -46t-82.5 -116q-14 -47 -15 -90v-612h-176v594q0 123 -53 196.5 t-154 73.5q-78 0 -139.5 -53t-83.5 -127q-14 -35 -14 -88v-596h-176v723q-1 104 -9 268zM596 1126l192 293h125l197 -293h-137l-119 193h-4l-119 -193h-135z" />
<glyph unicode="&#xe007;" horiz-adv-x="1136" d="M141 991h160l10 -164h4q41 78 127 131.5t201 53.5q57 0 113.5 -19.5t112 -63.5t90 -131t34.5 -208v-590h-180v571q0 131 -55.5 212t-173.5 81q-84 0 -149.5 -53t-92.5 -131q-12 -33 -12 -84v-596h-180v723q-1 159 -9 268zM311 1126l193 293h125l196 -293h-137l-119 193 h-4l-119 -193h-135z" />
<glyph unicode="&#xe008;" horiz-adv-x="1050" d="M74 662q-2 330 126 511t337 181q160 0 262 -101l80 136l90 -60l-101 -162q109 -176 109 -487q0 -338 -120 -520.5t-341 -182.5q-154 0 -258 103l-74 -129l-90 63l94 152q-110 177 -114 496zM248 672q-2 -188 49 -328l414 766q-66 104 -185 104q-127 0 -201.5 -147 t-76.5 -395zM346 217q70 -100 176 -100q139 0 210 146.5t71 408.5q0 180 -43 315z" />
<glyph unicode="&#xe184;" horiz-adv-x="1050" d="M139 670q-2 172 97.5 275.5t246.5 103.5q158 0 222 -107h4v180h-258v101h258v137h155v-137h127v-101h-127v-612q0 -109 6 -180h-141l-6 116h-4q-74 -133 -256 -133q-139 0 -231.5 99.5t-92.5 257.5zM303 676q0 -104 53.5 -173t149.5 -69q70 0 124 41t70 107q8 18 9 53v96 q0 35 -7 55q-14 59 -67 100.5t-123 41.5q-96 0 -152.5 -70.5t-56.5 -181.5z" />
<glyph unicode="&#xe300;" d="M43 1346h102q10 -61 53.5 -101.5t108.5 -40.5q74 0 116 42t46 100h102q-2 -115 -74.5 -184.5t-189.5 -69.5q-127 0 -194.5 75t-69.5 179zM231 1315l162 270h174l-227 -270h-109z" />
<glyph unicode="&#xe301;" d="M35 1346h102q10 -61 53 -101.5t109 -40.5q74 0 117 42t47 100h100q-2 -115 -74.5 -185.5t-189.5 -70.5q-127 0 -194.5 75t-69.5 181zM45 1583h172l164 -270h-111z" />
<glyph unicode="&#xe302;" d="M43 1346h102q10 -61 53.5 -101.5t108.5 -40.5q74 0 116 42t46 100h102q-2 -115 -75.5 -184.5t-188.5 -69.5q-127 0 -194.5 74t-69.5 180zM117 1524q70 131 194 131q70 0 117 -43t47 -103q0 -45 -22.5 -75.5t-60.5 -65.5t-58 -70l-90 23q14 39 59 87t45 83q0 29 -19.5 47 t-49.5 18q-49 0 -97 -73z" />
<glyph unicode="&#xe303;" d="M47 1346h100q10 -63 52.5 -104.5t105.5 -41.5q74 0 115 43t47 103h102q-4 -115 -74.5 -184.5t-187.5 -69.5q-127 0 -192.5 74t-67.5 180zM57 1427q4 78 40 127.5t100 49.5q41 0 127 -43q57 -33 86 -33q53 0 57 82h96q4 -197 -139 -197q-45 0 -127 43q-63 35 -88 35 q-43 0 -51 -64h-101z" />
<glyph unicode="&#xe304;" d="M68 1126l172 293h133l176 -293h-137l-103 193h-6l-104 -193h-131zM492 1317l141 268h166l-203 -268h-104z" />
<glyph unicode="&#xe305;" d="M68 1126l174 293h131l176 -293h-137l-103 193h-6l-102 -193h-133zM387 1585h164l131 -268h-104z" />
<glyph unicode="&#xe306;" d="M68 1126l174 293h131l176 -293h-137l-103 193h-6l-102 -193h-133zM391 1524q68 131 195 131q70 0 117 -43t47 -103q0 -45 -22.5 -75.5t-60.5 -65.5t-59 -70l-90 25q14 39 59.5 86t45.5 82q0 29 -19.5 47t-48.5 18q-51 0 -98 -73z" />
<glyph unicode="&#xe307;" d="M57 1126l185 240h131l186 -240h-141l-109 150h-4l-110 -150h-138zM61 1391q-2 88 36 141t104 53q37 0 127 -45q66 -33 86 -33q49 0 55 84h96q4 -197 -139 -196q-43 0 -125 43q-66 33 -88 32q-47 0 -53 -79h-99z" />
<glyph unicode="&#xe308;" d="M203 -270q0 45 30.5 75.5t73.5 30.5t72 -30.5t29 -75.5q0 -43 -29 -74t-74 -31q-43 0 -72.5 31t-29.5 74z" />
<glyph unicode="&#xe309;" d="M111 1341q70 137 200 138q74 0 123 -43t49 -111q0 -51 -26.5 -89t-67.5 -77t-59 -74l-97 25q12 43 63.5 98.5t51.5 94.5q0 31 -19.5 50t-47.5 19q-53 0 -101 -72z" />
<glyph unicode="&#xe310;" d="M354 887v104h31q96 0 96 80q0 61 -35 119l138 22q37 -68 37 -147q0 -78 -54.5 -128t-148.5 -50h-64z" />
<glyph unicode="&#xe311;" d="M59 1642h97q29 -98 157 -98q133 0 162 98h96q-12 -88 -78.5 -149t-181.5 -61q-113 0 -176.5 59t-75.5 151zM240 1622l151 213h189l-230 -213h-110z" />
</font>
</defs>
</svg>
